M48
;DRILL file {KiCad 4.0.7} date Tue Mar 13 09:57:07 2018
;FORMAT={-:-/ absolute / inch / decimal}
FMAT,2
INCH,TZ
T1C0.012
T2C0.016
T3C0.020
T4C0.024
T5C0.039
T6C0.039
T7C0.108
%
G90
G05
M72
T1
X4.8228Y-4.0713
X4.8327Y-4.4094
X4.8425Y-3.7992
X4.8425Y-3.9232
X4.8543Y-4.3307
X4.8819Y-3.1496
X4.8819Y-3.2382
X4.8917Y-4.4094
X4.8917Y-4.5768
X4.9311Y-4.0453
X4.9505Y-3.6808
X4.9508Y-3.7205
X4.9508Y-4.4094
X4.9606Y-3.3858
X4.966Y-3.8637
X4.966Y-3.9316
X4.9695Y-3.6382
X5.Y-3.7303
X5.0003Y-3.6912
X5.034Y-3.8637
X5.034Y-3.9316
X5.0689Y-3.6417
X5.128Y-4.1043
X5.1378Y-3.7795
X5.1476Y-4.1437
X5.1588Y-4.0638
X5.1772Y-3.1102
X5.1772Y-3.2283
X5.187Y-3.5335
X5.1969Y-3.6811
X5.1969Y-4.0748
X5.2165Y-3.9075
X5.2953Y-3.2283
X5.3543Y-3.2283
T2
X4.9606Y-3.248
T3
X5.1772Y-3.7992
X5.1772Y-3.874
T4
X4.8425Y-3.8583
T5
X5.1Y-2.9
X5.1Y-3.
X5.1Y-3.3
X5.1Y-3.4
X5.1Y-4.4
X5.1Y-4.5
X5.1Y-4.6
X5.1Y-4.7
X5.1Y-4.8
X5.1Y-4.9
X5.2Y-2.9
X5.2Y-3.
X5.2Y-3.3
X5.2Y-3.4
X5.2Y-4.8
X5.2Y-4.9
X5.3Y-2.9
X5.3Y-3.
X5.3Y-3.3
X5.3Y-3.4
X5.3Y-3.5
X5.3Y-3.6
X5.3Y-3.7
X5.3Y-3.8
X5.3Y-3.9
X5.3Y-4.
X5.3Y-4.1
X5.3Y-4.2
X5.3Y-4.3
X5.3Y-4.8
X5.3Y-4.9
X5.4Y-2.9
X5.4Y-3.
X5.4Y-3.3
X5.4Y-3.4
X5.4Y-4.8
X5.4Y-4.9
X5.5Y-2.9
X5.5Y-3.
X5.5Y-3.3
X5.5Y-3.4
X5.5Y-4.8
X5.5Y-4.9
X5.6Y-2.9
X5.6Y-3.
X5.6Y-3.3
X5.6Y-3.4
X5.6Y-4.8
X5.6Y-4.9
X5.7Y-2.9
X5.7Y-3.
X5.7Y-3.3
X5.7Y-3.4
X5.7Y-4.8
X5.7Y-4.9
X5.8Y-2.9
X5.8Y-3.
X5.8Y-3.3
X5.8Y-3.4
X5.8Y-4.8
X5.8Y-4.9
X5.9Y-2.9
X5.9Y-3.
X5.9Y-3.3
X5.9Y-3.4
X5.9Y-4.8
X5.9Y-4.9
X6.Y-2.9
X6.Y-3.
X6.Y-3.3
X6.Y-3.4
X6.Y-4.8
X6.Y-4.9
X6.1Y-2.9
X6.1Y-3.
X6.1Y-3.3
X6.1Y-3.4
X6.1Y-4.8
X6.1Y-4.9
X6.2Y-2.9
X6.2Y-3.
X6.2Y-3.3
X6.2Y-3.4
X6.2Y-4.8
X6.2Y-4.9
X6.3Y-2.9
X6.3Y-3.
X6.3Y-3.3
X6.3Y-3.4
X6.3Y-4.8
X6.3Y-4.9
X6.4Y-2.9
X6.4Y-3.
X6.4Y-3.3
X6.4Y-3.4
X6.4Y-4.8
X6.4Y-4.9
X6.5Y-2.9
X6.5Y-3.
X6.5Y-3.3
X6.5Y-3.4
X6.5Y-4.8
X6.5Y-4.9
X6.6Y-2.9
X6.6Y-3.
X6.6Y-3.3
X6.6Y-3.4
X6.6Y-4.8
X6.6Y-4.9
X6.7Y-2.9
X6.7Y-3.
X6.7Y-3.3
X6.7Y-3.4
X6.7Y-4.8
X6.7Y-4.9
X6.8Y-2.9
X6.8Y-3.
X6.8Y-3.3
X6.8Y-3.4
X6.8Y-4.8
X6.8Y-4.9
X6.9Y-2.9
X6.9Y-3.
X6.9Y-3.3
X6.9Y-3.4
X6.9Y-4.8
X6.9Y-4.9
X7.Y-2.9
X7.Y-3.
X7.Y-3.3
X7.Y-3.4
T6
X5.2Y-4.4
X5.2Y-4.5
X5.2Y-4.6
X5.2Y-4.7
X5.3Y-4.4
X5.3Y-4.5
X5.3Y-4.6
X5.3Y-4.7
X5.4Y-3.5
X5.4Y-3.6
X5.4Y-3.7
X5.4Y-3.8
X5.4Y-3.9
X5.4Y-4.
X5.4Y-4.1
X5.4Y-4.2
X5.4Y-4.3
X5.4Y-4.4
X5.4Y-4.5
X5.4Y-4.6
X5.4Y-4.7
X5.5Y-3.5
X5.5Y-3.6
X5.5Y-3.7
X5.5Y-3.8
X5.5Y-3.9
X5.5Y-4.
X5.5Y-4.1
X5.5Y-4.2
X5.5Y-4.3
X5.5Y-4.4
X5.5Y-4.5
X5.5Y-4.6
X5.5Y-4.7
X5.6Y-3.5
X5.6Y-3.6
X5.6Y-3.7
X5.6Y-3.8
X5.6Y-3.9
X5.6Y-4.
X5.6Y-4.1
X5.6Y-4.2
X5.6Y-4.3
X5.6Y-4.4
X5.6Y-4.5
X5.6Y-4.6
X5.6Y-4.7
X5.7Y-3.5
X5.7Y-3.6
X5.7Y-3.7
X5.7Y-3.8
X5.7Y-3.9
X5.7Y-4.
X5.7Y-4.1
X5.7Y-4.2
X5.7Y-4.3
X5.7Y-4.4
X5.7Y-4.5
X5.7Y-4.6
X5.7Y-4.7
X5.8Y-3.5
X5.8Y-3.6
X5.8Y-3.7
X5.8Y-3.8
X5.8Y-3.9
X5.8Y-4.
X5.8Y-4.1
X5.8Y-4.2
X5.8Y-4.3
X5.8Y-4.4
X5.8Y-4.5
X5.8Y-4.6
X5.8Y-4.7
X5.9Y-3.5
X5.9Y-3.6
X5.9Y-3.7
X5.9Y-3.8
X5.9Y-3.9
X5.9Y-4.
X5.9Y-4.1
X5.9Y-4.2
X5.9Y-4.3
X5.9Y-4.4
X5.9Y-4.5
X5.9Y-4.6
X5.9Y-4.7
X6.Y-3.5
X6.Y-3.6
X6.Y-3.7
X6.Y-3.8
X6.Y-3.9
X6.Y-4.
X6.Y-4.1
X6.Y-4.2
X6.Y-4.3
X6.Y-4.4
X6.Y-4.5
X6.Y-4.6
X6.Y-4.7
X6.1Y-3.5
X6.1Y-3.6
X6.1Y-3.7
X6.1Y-3.8
X6.1Y-3.9
X6.1Y-4.
X6.1Y-4.1
X6.1Y-4.2
X6.1Y-4.3
X6.1Y-4.4
X6.1Y-4.5
X6.1Y-4.6
X6.1Y-4.7
X6.2Y-3.5
X6.2Y-3.6
X6.2Y-3.7
X6.2Y-3.8
X6.2Y-3.9
X6.2Y-4.
X6.2Y-4.1
X6.2Y-4.2
X6.2Y-4.3
X6.2Y-4.4
X6.2Y-4.5
X6.2Y-4.6
X6.2Y-4.7
X6.3Y-3.5
X6.3Y-3.6
X6.3Y-3.7
X6.3Y-3.8
X6.3Y-3.9
X6.3Y-4.
X6.3Y-4.1
X6.3Y-4.2
X6.3Y-4.3
X6.3Y-4.4
X6.3Y-4.5
X6.3Y-4.6
X6.3Y-4.7
X6.4Y-3.5
X6.4Y-3.6
X6.4Y-3.7
X6.4Y-3.8
X6.4Y-3.9
X6.4Y-4.
X6.4Y-4.1
X6.4Y-4.2
X6.4Y-4.3
X6.4Y-4.4
X6.4Y-4.5
X6.4Y-4.6
X6.4Y-4.7
X6.5Y-3.5
X6.5Y-3.6
X6.5Y-3.7
X6.5Y-3.8
X6.5Y-3.9
X6.5Y-4.
X6.5Y-4.1
X6.5Y-4.2
X6.5Y-4.3
X6.5Y-4.4
X6.5Y-4.5
X6.5Y-4.6
X6.5Y-4.7
X6.6Y-3.5
X6.6Y-3.6
X6.6Y-3.7
X6.6Y-3.8
X6.6Y-3.9
X6.6Y-4.
X6.6Y-4.1
X6.6Y-4.2
X6.6Y-4.3
X6.6Y-4.4
X6.6Y-4.5
X6.6Y-4.6
X6.6Y-4.7
X6.7Y-3.5
X6.7Y-3.6
X6.7Y-3.7
X6.7Y-3.8
X6.7Y-3.9
X6.7Y-4.
X6.7Y-4.1
X6.7Y-4.2
X6.7Y-4.3
X6.7Y-4.4
X6.7Y-4.5
X6.7Y-4.6
X6.7Y-4.7
X6.8Y-3.5
X6.8Y-3.6
X6.8Y-3.7
X6.8Y-3.8
X6.8Y-3.9
X6.8Y-4.
X6.8Y-4.1
X6.8Y-4.2
X6.8Y-4.3
X6.8Y-4.4
X6.8Y-4.5
X6.8Y-4.6
X6.8Y-4.7
X6.9Y-3.5
X6.9Y-3.6
X6.9Y-3.7
X6.9Y-3.8
X6.9Y-3.9
X6.9Y-4.
X6.9Y-4.1
X6.9Y-4.2
X6.9Y-4.3
X6.9Y-4.4
X6.9Y-4.5
X6.9Y-4.6
X6.9Y-4.7
X7.Y-3.5
X7.Y-3.6
X7.Y-3.7
X7.Y-3.8
X7.Y-3.9
X7.Y-4.
X7.Y-4.1
X7.Y-4.2
X7.Y-4.3
X7.Y-4.4
X7.Y-4.5
X7.Y-4.6
X7.Y-4.7
X7.1Y-3.3
X7.1Y-3.4
X7.1Y-3.5
X7.1Y-3.6
X7.1Y-3.7
X7.1Y-3.8
X7.1Y-3.9
X7.1Y-4.
X7.1Y-4.1
X7.1Y-4.2
X7.1Y-4.3
X7.1Y-4.4
X7.1Y-4.5
X7.1Y-4.6
X7.1Y-4.7
X7.2Y-3.3
X7.2Y-3.4
X7.2Y-3.5
X7.2Y-3.6
X7.2Y-3.7
X7.2Y-3.8
X7.2Y-3.9
X7.2Y-4.
X7.2Y-4.1
X7.2Y-4.2
X7.2Y-4.3
X7.2Y-4.4
X7.2Y-4.5
X7.2Y-4.6
X7.2Y-4.7
T7
X4.9083Y-2.95
X4.9083Y-4.8791
X7.1917Y-2.95
X7.1917Y-4.8791
T0
M30
