G04 #@! TF.FileFunction,Legend,Top*
%FSLAX46Y46*%
G04 Gerber Fmt 4.6, Leading zero omitted, Abs format (unit mm)*
G04 Created by KiCad (PCBNEW 4.0.7) date Tue Mar 13 09:57:10 2018*
%MOMM*%
%LPD*%
G01*
G04 APERTURE LIST*
%ADD10C,0.100000*%
%ADD11C,0.200000*%
%ADD12C,0.150000*%
%ADD13C,0.120000*%
G04 APERTURE END LIST*
D10*
D11*
X127127143Y-114752381D02*
X126555714Y-114752381D01*
X126841428Y-114752381D02*
X126841428Y-113752381D01*
X126746190Y-113895238D01*
X126650952Y-113990476D01*
X126555714Y-114038095D01*
X128079524Y-114752381D02*
X127508095Y-114752381D01*
X127793809Y-114752381D02*
X127793809Y-113752381D01*
X127698571Y-113895238D01*
X127603333Y-113990476D01*
X127508095Y-114038095D01*
X127127143Y-119832381D02*
X126555714Y-119832381D01*
X126841428Y-119832381D02*
X126841428Y-118832381D01*
X126746190Y-118975238D01*
X126650952Y-119070476D01*
X126555714Y-119118095D01*
X127460476Y-118832381D02*
X128079524Y-118832381D01*
X127746190Y-119213333D01*
X127889048Y-119213333D01*
X127984286Y-119260952D01*
X128031905Y-119308571D01*
X128079524Y-119403810D01*
X128079524Y-119641905D01*
X128031905Y-119737143D01*
X127984286Y-119784762D01*
X127889048Y-119832381D01*
X127603333Y-119832381D01*
X127508095Y-119784762D01*
X127460476Y-119737143D01*
X127127143Y-117292381D02*
X126555714Y-117292381D01*
X126841428Y-117292381D02*
X126841428Y-116292381D01*
X126746190Y-116435238D01*
X126650952Y-116530476D01*
X126555714Y-116578095D01*
X127508095Y-116387619D02*
X127555714Y-116340000D01*
X127650952Y-116292381D01*
X127889048Y-116292381D01*
X127984286Y-116340000D01*
X128031905Y-116387619D01*
X128079524Y-116482857D01*
X128079524Y-116578095D01*
X128031905Y-116720952D01*
X127460476Y-117292381D01*
X128079524Y-117292381D01*
X128452381Y-108352381D02*
X128452381Y-107685714D01*
X128452381Y-107876190D02*
X128500000Y-107780952D01*
X128547619Y-107733333D01*
X128642857Y-107685714D01*
X128738096Y-107685714D01*
X129452382Y-108304762D02*
X129357144Y-108352381D01*
X129166667Y-108352381D01*
X129071429Y-108304762D01*
X129023810Y-108209524D01*
X129023810Y-107828571D01*
X129071429Y-107733333D01*
X129166667Y-107685714D01*
X129357144Y-107685714D01*
X129452382Y-107733333D01*
X129500001Y-107828571D01*
X129500001Y-107923810D01*
X129023810Y-108019048D01*
X129833334Y-107685714D02*
X130071429Y-108352381D01*
X130309525Y-107685714D01*
X130690477Y-108257143D02*
X130738096Y-108304762D01*
X130690477Y-108352381D01*
X130642858Y-108304762D01*
X130690477Y-108257143D01*
X130690477Y-108352381D01*
X131119048Y-108066667D02*
X131595239Y-108066667D01*
X131023810Y-108352381D02*
X131357143Y-107352381D01*
X131690477Y-108352381D01*
X128285714Y-109147619D02*
X128333333Y-109100000D01*
X128428571Y-109052381D01*
X128666667Y-109052381D01*
X128761905Y-109100000D01*
X128809524Y-109147619D01*
X128857143Y-109242857D01*
X128857143Y-109338095D01*
X128809524Y-109480952D01*
X128238095Y-110052381D01*
X128857143Y-110052381D01*
X129476190Y-109052381D02*
X129571429Y-109052381D01*
X129666667Y-109100000D01*
X129714286Y-109147619D01*
X129761905Y-109242857D01*
X129809524Y-109433333D01*
X129809524Y-109671429D01*
X129761905Y-109861905D01*
X129714286Y-109957143D01*
X129666667Y-110004762D01*
X129571429Y-110052381D01*
X129476190Y-110052381D01*
X129380952Y-110004762D01*
X129333333Y-109957143D01*
X129285714Y-109861905D01*
X129238095Y-109671429D01*
X129238095Y-109433333D01*
X129285714Y-109242857D01*
X129333333Y-109147619D01*
X129380952Y-109100000D01*
X129476190Y-109052381D01*
X130761905Y-110052381D02*
X130190476Y-110052381D01*
X130476190Y-110052381D02*
X130476190Y-109052381D01*
X130380952Y-109195238D01*
X130285714Y-109290476D01*
X130190476Y-109338095D01*
X131333333Y-109480952D02*
X131238095Y-109433333D01*
X131190476Y-109385714D01*
X131142857Y-109290476D01*
X131142857Y-109242857D01*
X131190476Y-109147619D01*
X131238095Y-109100000D01*
X131333333Y-109052381D01*
X131523810Y-109052381D01*
X131619048Y-109100000D01*
X131666667Y-109147619D01*
X131714286Y-109242857D01*
X131714286Y-109290476D01*
X131666667Y-109385714D01*
X131619048Y-109433333D01*
X131523810Y-109480952D01*
X131333333Y-109480952D01*
X131238095Y-109528571D01*
X131190476Y-109576190D01*
X131142857Y-109671429D01*
X131142857Y-109861905D01*
X131190476Y-109957143D01*
X131238095Y-110004762D01*
X131333333Y-110052381D01*
X131523810Y-110052381D01*
X131619048Y-110004762D01*
X131666667Y-109957143D01*
X131714286Y-109861905D01*
X131714286Y-109671429D01*
X131666667Y-109576190D01*
X131619048Y-109528571D01*
X131523810Y-109480952D01*
D12*
X123600000Y-96200000D02*
X124000000Y-95600000D01*
X124200000Y-96200000D02*
X123600000Y-96200000D01*
X124200000Y-96200000D02*
X124000000Y-95600000D01*
D11*
X130823810Y-91097619D02*
X130861905Y-90983333D01*
X130861905Y-90792857D01*
X130823810Y-90716667D01*
X130785714Y-90678571D01*
X130709524Y-90640476D01*
X130633333Y-90640476D01*
X130557143Y-90678571D01*
X130519048Y-90716667D01*
X130480952Y-90792857D01*
X130442857Y-90945238D01*
X130404762Y-91021429D01*
X130366667Y-91059524D01*
X130290476Y-91097619D01*
X130214286Y-91097619D01*
X130138095Y-91059524D01*
X130100000Y-91021429D01*
X130061905Y-90945238D01*
X130061905Y-90754762D01*
X130100000Y-90640476D01*
X130785714Y-89840476D02*
X130823810Y-89878571D01*
X130861905Y-89992857D01*
X130861905Y-90069047D01*
X130823810Y-90183333D01*
X130747619Y-90259524D01*
X130671429Y-90297619D01*
X130519048Y-90335714D01*
X130404762Y-90335714D01*
X130252381Y-90297619D01*
X130176190Y-90259524D01*
X130100000Y-90183333D01*
X130061905Y-90069047D01*
X130061905Y-89992857D01*
X130100000Y-89878571D01*
X130138095Y-89840476D01*
X130861905Y-89116666D02*
X130861905Y-89497619D01*
X130061905Y-89497619D01*
X130861905Y-88850000D02*
X130061905Y-88850000D01*
X130861905Y-88392857D02*
X130404762Y-88735714D01*
X130061905Y-88392857D02*
X130519048Y-88850000D01*
X127823810Y-88347619D02*
X127861905Y-88233333D01*
X127861905Y-88042857D01*
X127823810Y-87966667D01*
X127785714Y-87928571D01*
X127709524Y-87890476D01*
X127633333Y-87890476D01*
X127557143Y-87928571D01*
X127519048Y-87966667D01*
X127480952Y-88042857D01*
X127442857Y-88195238D01*
X127404762Y-88271429D01*
X127366667Y-88309524D01*
X127290476Y-88347619D01*
X127214286Y-88347619D01*
X127138095Y-88309524D01*
X127100000Y-88271429D01*
X127061905Y-88195238D01*
X127061905Y-88004762D01*
X127100000Y-87890476D01*
X127861905Y-87547619D02*
X127061905Y-87547619D01*
X127061905Y-87014286D02*
X127061905Y-86861905D01*
X127100000Y-86785714D01*
X127176190Y-86709524D01*
X127328571Y-86671429D01*
X127595238Y-86671429D01*
X127747619Y-86709524D01*
X127823810Y-86785714D01*
X127861905Y-86861905D01*
X127861905Y-87014286D01*
X127823810Y-87090476D01*
X127747619Y-87166667D01*
X127595238Y-87204762D01*
X127328571Y-87204762D01*
X127176190Y-87166667D01*
X127100000Y-87090476D01*
X127061905Y-87014286D01*
X126361905Y-87852381D02*
X125980952Y-88119048D01*
X126361905Y-88309524D02*
X125561905Y-88309524D01*
X125561905Y-88004762D01*
X125600000Y-87928571D01*
X125638095Y-87890476D01*
X125714286Y-87852381D01*
X125828571Y-87852381D01*
X125904762Y-87890476D01*
X125942857Y-87928571D01*
X125980952Y-88004762D01*
X125980952Y-88309524D01*
X126323810Y-87547619D02*
X126361905Y-87433333D01*
X126361905Y-87242857D01*
X126323810Y-87166667D01*
X126285714Y-87128571D01*
X126209524Y-87090476D01*
X126133333Y-87090476D01*
X126057143Y-87128571D01*
X126019048Y-87166667D01*
X125980952Y-87242857D01*
X125942857Y-87395238D01*
X125904762Y-87471429D01*
X125866667Y-87509524D01*
X125790476Y-87547619D01*
X125714286Y-87547619D01*
X125638095Y-87509524D01*
X125600000Y-87471429D01*
X125561905Y-87395238D01*
X125561905Y-87204762D01*
X125600000Y-87090476D01*
X125561905Y-86861905D02*
X125561905Y-86404762D01*
X126361905Y-86633333D02*
X125561905Y-86633333D01*
X124861905Y-87852381D02*
X124480952Y-88119048D01*
X124861905Y-88309524D02*
X124061905Y-88309524D01*
X124061905Y-88004762D01*
X124100000Y-87928571D01*
X124138095Y-87890476D01*
X124214286Y-87852381D01*
X124328571Y-87852381D01*
X124404762Y-87890476D01*
X124442857Y-87928571D01*
X124480952Y-88004762D01*
X124480952Y-88309524D01*
X124061905Y-87585714D02*
X124861905Y-87052381D01*
X124061905Y-87052381D02*
X124861905Y-87585714D01*
X122561905Y-88423810D02*
X122561905Y-87966667D01*
X123361905Y-88195238D02*
X122561905Y-88195238D01*
X122561905Y-87776190D02*
X123361905Y-87242857D01*
X122561905Y-87242857D02*
X123361905Y-87776190D01*
X127127143Y-112212381D02*
X126555714Y-112212381D01*
X126841428Y-112212381D02*
X126841428Y-111212381D01*
X126746190Y-111355238D01*
X126650952Y-111450476D01*
X126555714Y-111498095D01*
X127746190Y-111212381D02*
X127841429Y-111212381D01*
X127936667Y-111260000D01*
X127984286Y-111307619D01*
X128031905Y-111402857D01*
X128079524Y-111593333D01*
X128079524Y-111831429D01*
X128031905Y-112021905D01*
X127984286Y-112117143D01*
X127936667Y-112164762D01*
X127841429Y-112212381D01*
X127746190Y-112212381D01*
X127650952Y-112164762D01*
X127603333Y-112117143D01*
X127555714Y-112021905D01*
X127508095Y-111831429D01*
X127508095Y-111593333D01*
X127555714Y-111402857D01*
X127603333Y-111307619D01*
X127650952Y-111260000D01*
X127746190Y-111212381D01*
X132683333Y-109672381D02*
X132873809Y-109672381D01*
X132969048Y-109624762D01*
X133016667Y-109577143D01*
X133111905Y-109434286D01*
X133159524Y-109243810D01*
X133159524Y-108862857D01*
X133111905Y-108767619D01*
X133064286Y-108720000D01*
X132969048Y-108672381D01*
X132778571Y-108672381D01*
X132683333Y-108720000D01*
X132635714Y-108767619D01*
X132588095Y-108862857D01*
X132588095Y-109100952D01*
X132635714Y-109196190D01*
X132683333Y-109243810D01*
X132778571Y-109291429D01*
X132969048Y-109291429D01*
X133064286Y-109243810D01*
X133111905Y-109196190D01*
X133159524Y-109100952D01*
X132778571Y-106560952D02*
X132683333Y-106513333D01*
X132635714Y-106465714D01*
X132588095Y-106370476D01*
X132588095Y-106322857D01*
X132635714Y-106227619D01*
X132683333Y-106180000D01*
X132778571Y-106132381D01*
X132969048Y-106132381D01*
X133064286Y-106180000D01*
X133111905Y-106227619D01*
X133159524Y-106322857D01*
X133159524Y-106370476D01*
X133111905Y-106465714D01*
X133064286Y-106513333D01*
X132969048Y-106560952D01*
X132778571Y-106560952D01*
X132683333Y-106608571D01*
X132635714Y-106656190D01*
X132588095Y-106751429D01*
X132588095Y-106941905D01*
X132635714Y-107037143D01*
X132683333Y-107084762D01*
X132778571Y-107132381D01*
X132969048Y-107132381D01*
X133064286Y-107084762D01*
X133111905Y-107037143D01*
X133159524Y-106941905D01*
X133159524Y-106751429D01*
X133111905Y-106656190D01*
X133064286Y-106608571D01*
X132969048Y-106560952D01*
X132540476Y-103592381D02*
X133207143Y-103592381D01*
X132778571Y-104592381D01*
X132540476Y-93432381D02*
X133159524Y-93432381D01*
X132826190Y-93813333D01*
X132969048Y-93813333D01*
X133064286Y-93860952D01*
X133111905Y-93908571D01*
X133159524Y-94003810D01*
X133159524Y-94241905D01*
X133111905Y-94337143D01*
X133064286Y-94384762D01*
X132969048Y-94432381D01*
X132683333Y-94432381D01*
X132588095Y-94384762D01*
X132540476Y-94337143D01*
X132588095Y-90987619D02*
X132635714Y-90940000D01*
X132730952Y-90892381D01*
X132969048Y-90892381D01*
X133064286Y-90940000D01*
X133111905Y-90987619D01*
X133159524Y-91082857D01*
X133159524Y-91178095D01*
X133111905Y-91320952D01*
X132540476Y-91892381D01*
X133159524Y-91892381D01*
X133159524Y-89352381D02*
X132588095Y-89352381D01*
X132873809Y-89352381D02*
X132873809Y-88352381D01*
X132778571Y-88495238D01*
X132683333Y-88590476D01*
X132588095Y-88638095D01*
D13*
X130810000Y-77590000D02*
X179190000Y-77590000D01*
X179190000Y-77590000D02*
X179190000Y-72270000D01*
X179190000Y-72270000D02*
X128150000Y-72270000D01*
X128150000Y-72270000D02*
X128150000Y-74930000D01*
X128150000Y-74930000D02*
X130810000Y-74930000D01*
X130810000Y-74930000D02*
X130810000Y-77590000D01*
X129540000Y-77590000D02*
X128150000Y-77590000D01*
X128150000Y-77590000D02*
X128150000Y-76200000D01*
X122390000Y-81600000D02*
X122390000Y-83400000D01*
X125610000Y-83400000D02*
X125610000Y-80950000D01*
X126700000Y-104300000D02*
X122300000Y-104300000D01*
X122300000Y-104300000D02*
X122300000Y-109700000D01*
X130718186Y-96500439D02*
G75*
G03X130718719Y-98400000I781814J-949561D01*
G01*
X132281814Y-96500439D02*
G75*
G02X132281281Y-98400000I-781814J-949561D01*
G01*
D12*
X129625000Y-96375000D02*
X129625000Y-96900000D01*
X124375000Y-101625000D02*
X124375000Y-101100000D01*
X129625000Y-101625000D02*
X129625000Y-101100000D01*
X124375000Y-96375000D02*
X124900000Y-96375000D01*
X124375000Y-101625000D02*
X124900000Y-101625000D01*
X129625000Y-101625000D02*
X129100000Y-101625000D01*
X129625000Y-96375000D02*
X129100000Y-96375000D01*
X123700000Y-89200000D02*
G75*
G03X122300000Y-89200000I-700000J0D01*
G01*
X123700000Y-91200000D02*
X122300000Y-91200000D01*
X122300000Y-91200000D02*
X122300000Y-89200000D01*
X123700000Y-89200000D02*
X123700000Y-91200000D01*
X125200000Y-89200000D02*
G75*
G03X123800000Y-89200000I-700000J0D01*
G01*
X125200000Y-91200000D02*
X123800000Y-91200000D01*
X123800000Y-91200000D02*
X123800000Y-89200000D01*
X125200000Y-89200000D02*
X125200000Y-91200000D01*
X126700000Y-89200000D02*
G75*
G03X125300000Y-89200000I-700000J0D01*
G01*
X126700000Y-91200000D02*
X125300000Y-91200000D01*
X125300000Y-91200000D02*
X125300000Y-89200000D01*
X126700000Y-89200000D02*
X126700000Y-91200000D01*
X128200000Y-89200000D02*
G75*
G03X126800000Y-89200000I-700000J0D01*
G01*
X128200000Y-91200000D02*
X126800000Y-91200000D01*
X126800000Y-91200000D02*
X126800000Y-89200000D01*
X128200000Y-89200000D02*
X128200000Y-91200000D01*
X129700000Y-89200000D02*
G75*
G03X128300000Y-89200000I-700000J0D01*
G01*
X129700000Y-91200000D02*
X128300000Y-91200000D01*
X128300000Y-91200000D02*
X128300000Y-89200000D01*
X129700000Y-89200000D02*
X129700000Y-91200000D01*
D13*
X126750000Y-116200000D02*
X126750000Y-117000000D01*
X126750044Y-117000000D02*
X122300000Y-117000000D01*
X126200000Y-114000000D02*
X122300000Y-114000000D01*
X129350000Y-79590000D02*
X130650000Y-79590000D01*
X129350000Y-81410000D02*
X130650000Y-81410000D01*
X134010000Y-79780000D02*
X134010000Y-80220000D01*
X132990000Y-79780000D02*
X132990000Y-80220000D01*
X135510000Y-79780000D02*
X135510000Y-80220000D01*
X134490000Y-79780000D02*
X134490000Y-80220000D01*
X137010000Y-79780000D02*
X137010000Y-80220000D01*
X135990000Y-79780000D02*
X135990000Y-80220000D01*
X138510000Y-79780000D02*
X138510000Y-80220000D01*
X137490000Y-79780000D02*
X137490000Y-80220000D01*
X140510000Y-79780000D02*
X140510000Y-80220000D01*
X139490000Y-79780000D02*
X139490000Y-80220000D01*
X142010000Y-79780000D02*
X142010000Y-80220000D01*
X140990000Y-79780000D02*
X140990000Y-80220000D01*
X143510000Y-79780000D02*
X143510000Y-80220000D01*
X142490000Y-79780000D02*
X142490000Y-80220000D01*
X145010000Y-79780000D02*
X145010000Y-80220000D01*
X143990000Y-79780000D02*
X143990000Y-80220000D01*
X147010000Y-79780000D02*
X147010000Y-80220000D01*
X145990000Y-79780000D02*
X145990000Y-80220000D01*
X148510000Y-79780000D02*
X148510000Y-80220000D01*
X147490000Y-79780000D02*
X147490000Y-80220000D01*
X150010000Y-79780000D02*
X150010000Y-80220000D01*
X148990000Y-79780000D02*
X148990000Y-80220000D01*
X151510000Y-79780000D02*
X151510000Y-80220000D01*
X150490000Y-79780000D02*
X150490000Y-80220000D01*
X153510000Y-79780000D02*
X153510000Y-80220000D01*
X152490000Y-79780000D02*
X152490000Y-80220000D01*
X155010000Y-79780000D02*
X155010000Y-80220000D01*
X153990000Y-79780000D02*
X153990000Y-80220000D01*
X156510000Y-79780000D02*
X156510000Y-80220000D01*
X155490000Y-79780000D02*
X155490000Y-80220000D01*
X158010000Y-79780000D02*
X158010000Y-80220000D01*
X156990000Y-79780000D02*
X156990000Y-80220000D01*
X160010000Y-79780000D02*
X160010000Y-80220000D01*
X158990000Y-79780000D02*
X158990000Y-80220000D01*
X161510000Y-79780000D02*
X161510000Y-80220000D01*
X160490000Y-79780000D02*
X160490000Y-80220000D01*
X163010000Y-79780000D02*
X163010000Y-80220000D01*
X161990000Y-79780000D02*
X161990000Y-80220000D01*
X164510000Y-79780000D02*
X164510000Y-80220000D01*
X163490000Y-79780000D02*
X163490000Y-80220000D01*
X166510000Y-79780000D02*
X166510000Y-80220000D01*
X165490000Y-79780000D02*
X165490000Y-80220000D01*
X168010000Y-79780000D02*
X168010000Y-80220000D01*
X166990000Y-79780000D02*
X166990000Y-80220000D01*
X169510000Y-79780000D02*
X169510000Y-80220000D01*
X168490000Y-79780000D02*
X168490000Y-80220000D01*
X171010000Y-79780000D02*
X171010000Y-80220000D01*
X169990000Y-79780000D02*
X169990000Y-80220000D01*
X173010000Y-79780000D02*
X173010000Y-80220000D01*
X171990000Y-79780000D02*
X171990000Y-80220000D01*
X174510000Y-79780000D02*
X174510000Y-80220000D01*
X173490000Y-79780000D02*
X173490000Y-80220000D01*
X176010000Y-79780000D02*
X176010000Y-80220000D01*
X174990000Y-79780000D02*
X174990000Y-80220000D01*
X177510000Y-79780000D02*
X177510000Y-80220000D01*
X176490000Y-79780000D02*
X176490000Y-80220000D01*
X123740000Y-112220000D02*
X123740000Y-111780000D01*
X124760000Y-112220000D02*
X124760000Y-111780000D01*
X122240000Y-112220000D02*
X122240000Y-111780000D01*
X123260000Y-112220000D02*
X123260000Y-111780000D01*
X125240000Y-112220000D02*
X125240000Y-111780000D01*
X126260000Y-112220000D02*
X126260000Y-111780000D01*
X124220000Y-79510000D02*
X123780000Y-79510000D01*
X124220000Y-78490000D02*
X123780000Y-78490000D01*
X127510000Y-84780000D02*
X127510000Y-85220000D01*
X126490000Y-84780000D02*
X126490000Y-85220000D01*
X123780000Y-85490000D02*
X124220000Y-85490000D01*
X123780000Y-86510000D02*
X124220000Y-86510000D01*
D12*
X128270000Y-124460000D02*
X176530000Y-124460000D01*
X130810000Y-121920000D02*
X176530000Y-121920000D01*
X130810000Y-120650000D02*
X179070000Y-120650000D01*
X133350000Y-87630000D02*
X133350000Y-110490000D01*
X135890000Y-87630000D02*
X133350000Y-87630000D01*
X135890000Y-110490000D02*
X135890000Y-87630000D01*
X128270000Y-110490000D02*
X135890000Y-110490000D01*
X130810000Y-87630000D02*
X130810000Y-85725000D01*
X130175000Y-85090000D02*
X130810000Y-85725000D01*
X128270000Y-85090000D02*
X130175000Y-85090000D01*
X179070000Y-125730000D02*
X130810000Y-125730000D01*
X128270000Y-123190000D02*
X179070000Y-123190000D01*
X130810000Y-123190000D02*
X130810000Y-110490000D01*
X128270000Y-125730000D02*
X130810000Y-125730000D01*
X128270000Y-110490000D02*
X128270000Y-125730000D01*
X128270000Y-87630000D02*
X128270000Y-82550000D01*
X179070000Y-87630000D02*
X128270000Y-87630000D01*
X179070000Y-82550000D02*
X179070000Y-87630000D01*
X128270000Y-82550000D02*
X179070000Y-82550000D01*
D13*
X123010000Y-101280000D02*
X123010000Y-101720000D01*
X121990000Y-101280000D02*
X121990000Y-101720000D01*
X132760000Y-101280000D02*
X132760000Y-101720000D01*
X131740000Y-101280000D02*
X131740000Y-101720000D01*
X130490000Y-93720000D02*
X130490000Y-93280000D01*
X131510000Y-93720000D02*
X131510000Y-93280000D01*
X127490000Y-93720000D02*
X127490000Y-93280000D01*
X128510000Y-93720000D02*
X128510000Y-93280000D01*
X128990000Y-93720000D02*
X128990000Y-93280000D01*
X130010000Y-93720000D02*
X130010000Y-93280000D01*
D12*
X126238095Y-80952381D02*
X126238095Y-81761905D01*
X126285714Y-81857143D01*
X126333333Y-81904762D01*
X126428571Y-81952381D01*
X126619048Y-81952381D01*
X126714286Y-81904762D01*
X126761905Y-81857143D01*
X126809524Y-81761905D01*
X126809524Y-80952381D01*
X127238095Y-81047619D02*
X127285714Y-81000000D01*
X127380952Y-80952381D01*
X127619048Y-80952381D01*
X127714286Y-81000000D01*
X127761905Y-81047619D01*
X127809524Y-81142857D01*
X127809524Y-81238095D01*
X127761905Y-81380952D01*
X127190476Y-81952381D01*
X127809524Y-81952381D01*
X127476190Y-107476191D02*
X127952381Y-107476191D01*
X126952381Y-107809524D02*
X127476190Y-107476191D01*
X126952381Y-107142857D01*
X127952381Y-106285714D02*
X127952381Y-106857143D01*
X127952381Y-106571429D02*
X126952381Y-106571429D01*
X127095238Y-106666667D01*
X127190476Y-106761905D01*
X127238095Y-106857143D01*
X126238095Y-102202381D02*
X126238095Y-103011905D01*
X126285714Y-103107143D01*
X126333333Y-103154762D01*
X126428571Y-103202381D01*
X126619048Y-103202381D01*
X126714286Y-103154762D01*
X126761905Y-103107143D01*
X126809524Y-103011905D01*
X126809524Y-102202381D01*
X127809524Y-103202381D02*
X127238095Y-103202381D01*
X127523809Y-103202381D02*
X127523809Y-102202381D01*
X127428571Y-102345238D01*
X127333333Y-102440476D01*
X127238095Y-102488095D01*
X129833334Y-79107143D02*
X129785715Y-79154762D01*
X129642858Y-79202381D01*
X129547620Y-79202381D01*
X129404762Y-79154762D01*
X129309524Y-79059524D01*
X129261905Y-78964286D01*
X129214286Y-78773810D01*
X129214286Y-78630952D01*
X129261905Y-78440476D01*
X129309524Y-78345238D01*
X129404762Y-78250000D01*
X129547620Y-78202381D01*
X129642858Y-78202381D01*
X129785715Y-78250000D01*
X129833334Y-78297619D01*
X130690477Y-78535714D02*
X130690477Y-79202381D01*
X130452381Y-78154762D02*
X130214286Y-78869048D01*
X130833334Y-78869048D01*
X126333334Y-79357143D02*
X126285715Y-79404762D01*
X126142858Y-79452381D01*
X126047620Y-79452381D01*
X125904762Y-79404762D01*
X125809524Y-79309524D01*
X125761905Y-79214286D01*
X125714286Y-79023810D01*
X125714286Y-78880952D01*
X125761905Y-78690476D01*
X125809524Y-78595238D01*
X125904762Y-78500000D01*
X126047620Y-78452381D01*
X126142858Y-78452381D01*
X126285715Y-78500000D01*
X126333334Y-78547619D01*
X127285715Y-79452381D02*
X126714286Y-79452381D01*
X127000000Y-79452381D02*
X127000000Y-78452381D01*
X126904762Y-78595238D01*
X126809524Y-78690476D01*
X126714286Y-78738095D01*
X126833334Y-83107143D02*
X126785715Y-83154762D01*
X126642858Y-83202381D01*
X126547620Y-83202381D01*
X126404762Y-83154762D01*
X126309524Y-83059524D01*
X126261905Y-82964286D01*
X126214286Y-82773810D01*
X126214286Y-82630952D01*
X126261905Y-82440476D01*
X126309524Y-82345238D01*
X126404762Y-82250000D01*
X126547620Y-82202381D01*
X126642858Y-82202381D01*
X126785715Y-82250000D01*
X126833334Y-82297619D01*
X127166667Y-82202381D02*
X127785715Y-82202381D01*
X127452381Y-82583333D01*
X127595239Y-82583333D01*
X127690477Y-82630952D01*
X127738096Y-82678571D01*
X127785715Y-82773810D01*
X127785715Y-83011905D01*
X127738096Y-83107143D01*
X127690477Y-83154762D01*
X127595239Y-83202381D01*
X127309524Y-83202381D01*
X127214286Y-83154762D01*
X127166667Y-83107143D01*
X177190477Y-123960000D02*
X177114286Y-123912381D01*
X177000001Y-123912381D01*
X176885715Y-123960000D01*
X176809524Y-124055238D01*
X176771429Y-124150476D01*
X176733334Y-124340952D01*
X176733334Y-124483810D01*
X176771429Y-124674286D01*
X176809524Y-124769524D01*
X176885715Y-124864762D01*
X177000001Y-124912381D01*
X177076191Y-124912381D01*
X177190477Y-124864762D01*
X177228572Y-124817143D01*
X177228572Y-124483810D01*
X177076191Y-124483810D01*
X177571429Y-124912381D02*
X177571429Y-123912381D01*
X178028572Y-124912381D01*
X178028572Y-123912381D01*
X178409524Y-124912381D02*
X178409524Y-123912381D01*
X178600000Y-123912381D01*
X178714286Y-123960000D01*
X178790477Y-124055238D01*
X178828572Y-124150476D01*
X178866667Y-124340952D01*
X178866667Y-124483810D01*
X178828572Y-124674286D01*
X178790477Y-124769524D01*
X178714286Y-124864762D01*
X178600000Y-124912381D01*
X178409524Y-124912381D01*
X176809524Y-121372381D02*
X177304762Y-121372381D01*
X177038095Y-121753333D01*
X177152381Y-121753333D01*
X177228571Y-121800952D01*
X177266667Y-121848571D01*
X177304762Y-121943810D01*
X177304762Y-122181905D01*
X177266667Y-122277143D01*
X177228571Y-122324762D01*
X177152381Y-122372381D01*
X176923809Y-122372381D01*
X176847619Y-122324762D01*
X176809524Y-122277143D01*
X177533333Y-121372381D02*
X177800000Y-122372381D01*
X178066667Y-121372381D01*
X178257143Y-121372381D02*
X178752381Y-121372381D01*
X178485714Y-121753333D01*
X178600000Y-121753333D01*
X178676190Y-121800952D01*
X178714286Y-121848571D01*
X178752381Y-121943810D01*
X178752381Y-122181905D01*
X178714286Y-122277143D01*
X178676190Y-122324762D01*
X178600000Y-122372381D01*
X178371428Y-122372381D01*
X178295238Y-122324762D01*
X178257143Y-122277143D01*
X124357143Y-103166666D02*
X124404762Y-103214285D01*
X124452381Y-103357142D01*
X124452381Y-103452380D01*
X124404762Y-103595238D01*
X124309524Y-103690476D01*
X124214286Y-103738095D01*
X124023810Y-103785714D01*
X123880952Y-103785714D01*
X123690476Y-103738095D01*
X123595238Y-103690476D01*
X123500000Y-103595238D01*
X123452381Y-103452380D01*
X123452381Y-103357142D01*
X123500000Y-103214285D01*
X123547619Y-103166666D01*
X123880952Y-102595238D02*
X123833333Y-102690476D01*
X123785714Y-102738095D01*
X123690476Y-102785714D01*
X123642857Y-102785714D01*
X123547619Y-102738095D01*
X123500000Y-102690476D01*
X123452381Y-102595238D01*
X123452381Y-102404761D01*
X123500000Y-102309523D01*
X123547619Y-102261904D01*
X123642857Y-102214285D01*
X123690476Y-102214285D01*
X123785714Y-102261904D01*
X123833333Y-102309523D01*
X123880952Y-102404761D01*
X123880952Y-102595238D01*
X123928571Y-102690476D01*
X123976190Y-102738095D01*
X124071429Y-102785714D01*
X124261905Y-102785714D01*
X124357143Y-102738095D01*
X124404762Y-102690476D01*
X124452381Y-102595238D01*
X124452381Y-102404761D01*
X124404762Y-102309523D01*
X124357143Y-102261904D01*
X124261905Y-102214285D01*
X124071429Y-102214285D01*
X123976190Y-102261904D01*
X123928571Y-102309523D01*
X123880952Y-102404761D01*
X131357143Y-101666666D02*
X131404762Y-101714285D01*
X131452381Y-101857142D01*
X131452381Y-101952380D01*
X131404762Y-102095238D01*
X131309524Y-102190476D01*
X131214286Y-102238095D01*
X131023810Y-102285714D01*
X130880952Y-102285714D01*
X130690476Y-102238095D01*
X130595238Y-102190476D01*
X130500000Y-102095238D01*
X130452381Y-101952380D01*
X130452381Y-101857142D01*
X130500000Y-101714285D01*
X130547619Y-101666666D01*
X130452381Y-101333333D02*
X130452381Y-100666666D01*
X131452381Y-101095238D01*
X126857143Y-93666666D02*
X126904762Y-93714285D01*
X126952381Y-93857142D01*
X126952381Y-93952380D01*
X126904762Y-94095238D01*
X126809524Y-94190476D01*
X126714286Y-94238095D01*
X126523810Y-94285714D01*
X126380952Y-94285714D01*
X126190476Y-94238095D01*
X126095238Y-94190476D01*
X126000000Y-94095238D01*
X125952381Y-93952380D01*
X125952381Y-93857142D01*
X126000000Y-93714285D01*
X126047619Y-93666666D01*
X126047619Y-93285714D02*
X126000000Y-93238095D01*
X125952381Y-93142857D01*
X125952381Y-92904761D01*
X126000000Y-92809523D01*
X126047619Y-92761904D01*
X126142857Y-92714285D01*
X126238095Y-92714285D01*
X126380952Y-92761904D01*
X126952381Y-93333333D01*
X126952381Y-92714285D01*
X124357143Y-93666666D02*
X124404762Y-93714285D01*
X124452381Y-93857142D01*
X124452381Y-93952380D01*
X124404762Y-94095238D01*
X124309524Y-94190476D01*
X124214286Y-94238095D01*
X124023810Y-94285714D01*
X123880952Y-94285714D01*
X123690476Y-94238095D01*
X123595238Y-94190476D01*
X123500000Y-94095238D01*
X123452381Y-93952380D01*
X123452381Y-93857142D01*
X123500000Y-93714285D01*
X123547619Y-93666666D01*
X123452381Y-92809523D02*
X123452381Y-93000000D01*
X123500000Y-93095238D01*
X123547619Y-93142857D01*
X123690476Y-93238095D01*
X123880952Y-93285714D01*
X124261905Y-93285714D01*
X124357143Y-93238095D01*
X124404762Y-93190476D01*
X124452381Y-93095238D01*
X124452381Y-92904761D01*
X124404762Y-92809523D01*
X124357143Y-92761904D01*
X124261905Y-92714285D01*
X124023810Y-92714285D01*
X123928571Y-92761904D01*
X123880952Y-92809523D01*
X123833333Y-92904761D01*
X123833333Y-93095238D01*
X123880952Y-93190476D01*
X123928571Y-93238095D01*
X124023810Y-93285714D01*
X125607143Y-93666666D02*
X125654762Y-93714285D01*
X125702381Y-93857142D01*
X125702381Y-93952380D01*
X125654762Y-94095238D01*
X125559524Y-94190476D01*
X125464286Y-94238095D01*
X125273810Y-94285714D01*
X125130952Y-94285714D01*
X124940476Y-94238095D01*
X124845238Y-94190476D01*
X124750000Y-94095238D01*
X124702381Y-93952380D01*
X124702381Y-93857142D01*
X124750000Y-93714285D01*
X124797619Y-93666666D01*
X125702381Y-93190476D02*
X125702381Y-93000000D01*
X125654762Y-92904761D01*
X125607143Y-92857142D01*
X125464286Y-92761904D01*
X125273810Y-92714285D01*
X124892857Y-92714285D01*
X124797619Y-92761904D01*
X124750000Y-92809523D01*
X124702381Y-92904761D01*
X124702381Y-93095238D01*
X124750000Y-93190476D01*
X124797619Y-93238095D01*
X124892857Y-93285714D01*
X125130952Y-93285714D01*
X125226190Y-93238095D01*
X125273810Y-93190476D01*
X125321429Y-93095238D01*
X125321429Y-92904761D01*
X125273810Y-92809523D01*
X125226190Y-92761904D01*
X125130952Y-92714285D01*
M02*
