G04 #@! TF.FileFunction,Legend,Bot*
%FSLAX46Y46*%
G04 Gerber Fmt 4.6, Leading zero omitted, Abs format (unit mm)*
G04 Created by KiCad (PCBNEW 4.0.7) date Tue Mar 13 09:57:10 2018*
%MOMM*%
%LPD*%
G01*
G04 APERTURE LIST*
%ADD10C,0.100000*%
%ADD11C,0.250000*%
%ADD12C,0.200000*%
%ADD13C,0.150000*%
%ADD14C,0.120000*%
%ADD15C,0.010000*%
G04 APERTURE END LIST*
D10*
D11*
X185542857Y-85971429D02*
X184971429Y-85571429D01*
X185542857Y-85285714D02*
X184342857Y-85285714D01*
X184342857Y-85742857D01*
X184400000Y-85857143D01*
X184457143Y-85914286D01*
X184571429Y-85971429D01*
X184742857Y-85971429D01*
X184857143Y-85914286D01*
X184914286Y-85857143D01*
X184971429Y-85742857D01*
X184971429Y-85285714D01*
X185542857Y-87000000D02*
X184914286Y-87000000D01*
X184800000Y-86942857D01*
X184742857Y-86828571D01*
X184742857Y-86600000D01*
X184800000Y-86485714D01*
X185485714Y-87000000D02*
X185542857Y-86885714D01*
X185542857Y-86600000D01*
X185485714Y-86485714D01*
X185371429Y-86428571D01*
X185257143Y-86428571D01*
X185142857Y-86485714D01*
X185085714Y-86600000D01*
X185085714Y-86885714D01*
X185028571Y-87000000D01*
X185485714Y-87514285D02*
X185542857Y-87628571D01*
X185542857Y-87857143D01*
X185485714Y-87971428D01*
X185371429Y-88028571D01*
X185314286Y-88028571D01*
X185200000Y-87971428D01*
X185142857Y-87857143D01*
X185142857Y-87685714D01*
X185085714Y-87571428D01*
X184971429Y-87514285D01*
X184914286Y-87514285D01*
X184800000Y-87571428D01*
X184742857Y-87685714D01*
X184742857Y-87857143D01*
X184800000Y-87971428D01*
X184742857Y-88542857D02*
X185942857Y-88542857D01*
X184800000Y-88542857D02*
X184742857Y-88657143D01*
X184742857Y-88885714D01*
X184800000Y-89000000D01*
X184857143Y-89057143D01*
X184971429Y-89114286D01*
X185314286Y-89114286D01*
X185428571Y-89057143D01*
X185485714Y-89000000D01*
X185542857Y-88885714D01*
X185542857Y-88657143D01*
X185485714Y-88542857D01*
X185542857Y-89628571D02*
X184342857Y-89628571D01*
X184800000Y-89628571D02*
X184742857Y-89742857D01*
X184742857Y-89971428D01*
X184800000Y-90085714D01*
X184857143Y-90142857D01*
X184971429Y-90200000D01*
X185314286Y-90200000D01*
X185428571Y-90142857D01*
X185485714Y-90085714D01*
X185542857Y-89971428D01*
X185542857Y-89742857D01*
X185485714Y-89628571D01*
X185485714Y-91171428D02*
X185542857Y-91057142D01*
X185542857Y-90828571D01*
X185485714Y-90714285D01*
X185371429Y-90657142D01*
X184914286Y-90657142D01*
X184800000Y-90714285D01*
X184742857Y-90828571D01*
X184742857Y-91057142D01*
X184800000Y-91171428D01*
X184914286Y-91228571D01*
X185028571Y-91228571D01*
X185142857Y-90657142D01*
X185542857Y-91742856D02*
X184742857Y-91742856D01*
X184971429Y-91742856D02*
X184857143Y-91799999D01*
X184800000Y-91857142D01*
X184742857Y-91971428D01*
X184742857Y-92085713D01*
X185542857Y-92485713D02*
X184742857Y-92485713D01*
X184971429Y-92485713D02*
X184857143Y-92542856D01*
X184800000Y-92599999D01*
X184742857Y-92714285D01*
X184742857Y-92828570D01*
X184742857Y-93114285D02*
X185542857Y-93399999D01*
X184742857Y-93685713D02*
X185542857Y-93399999D01*
X185828571Y-93285713D01*
X185885714Y-93228570D01*
X185942857Y-93114285D01*
X185542857Y-95057142D02*
X184342857Y-95057142D01*
X184342857Y-95514285D01*
X184400000Y-95628571D01*
X184457143Y-95685714D01*
X184571429Y-95742857D01*
X184742857Y-95742857D01*
X184857143Y-95685714D01*
X184914286Y-95628571D01*
X184971429Y-95514285D01*
X184971429Y-95057142D01*
X185542857Y-96257142D02*
X184742857Y-96257142D01*
X184342857Y-96257142D02*
X184400000Y-96199999D01*
X184457143Y-96257142D01*
X184400000Y-96314285D01*
X184342857Y-96257142D01*
X184457143Y-96257142D01*
X184400000Y-98371429D02*
X184342857Y-98257143D01*
X184342857Y-98085714D01*
X184400000Y-97914286D01*
X184514286Y-97800000D01*
X184628571Y-97742857D01*
X184857143Y-97685714D01*
X185028571Y-97685714D01*
X185257143Y-97742857D01*
X185371429Y-97800000D01*
X185485714Y-97914286D01*
X185542857Y-98085714D01*
X185542857Y-98200000D01*
X185485714Y-98371429D01*
X185428571Y-98428572D01*
X185028571Y-98428572D01*
X185028571Y-98200000D01*
X185485714Y-99400000D02*
X185542857Y-99285714D01*
X185542857Y-99057143D01*
X185485714Y-98942857D01*
X185371429Y-98885714D01*
X184914286Y-98885714D01*
X184800000Y-98942857D01*
X184742857Y-99057143D01*
X184742857Y-99285714D01*
X184800000Y-99400000D01*
X184914286Y-99457143D01*
X185028571Y-99457143D01*
X185142857Y-98885714D01*
X185485714Y-100485714D02*
X185542857Y-100371428D01*
X185542857Y-100142857D01*
X185485714Y-100028571D01*
X185428571Y-99971428D01*
X185314286Y-99914285D01*
X184971429Y-99914285D01*
X184857143Y-99971428D01*
X184800000Y-100028571D01*
X184742857Y-100142857D01*
X184742857Y-100371428D01*
X184800000Y-100485714D01*
X185542857Y-100999999D02*
X184342857Y-100999999D01*
X185085714Y-101114285D02*
X185542857Y-101457142D01*
X184742857Y-101457142D02*
X185200000Y-100999999D01*
X185542857Y-102142857D02*
X185485714Y-102028571D01*
X185428571Y-101971428D01*
X185314286Y-101914285D01*
X184971429Y-101914285D01*
X184857143Y-101971428D01*
X184800000Y-102028571D01*
X184742857Y-102142857D01*
X184742857Y-102314285D01*
X184800000Y-102428571D01*
X184857143Y-102485714D01*
X184971429Y-102542857D01*
X185314286Y-102542857D01*
X185428571Y-102485714D01*
X185485714Y-102428571D01*
X185542857Y-102314285D01*
X185542857Y-102142857D01*
X184742857Y-103971428D02*
X185942857Y-103971428D01*
X184800000Y-103971428D02*
X184742857Y-104085714D01*
X184742857Y-104314285D01*
X184800000Y-104428571D01*
X184857143Y-104485714D01*
X184971429Y-104542857D01*
X185314286Y-104542857D01*
X185428571Y-104485714D01*
X185485714Y-104428571D01*
X185542857Y-104314285D01*
X185542857Y-104085714D01*
X185485714Y-103971428D01*
X185542857Y-105057142D02*
X184742857Y-105057142D01*
X184971429Y-105057142D02*
X184857143Y-105114285D01*
X184800000Y-105171428D01*
X184742857Y-105285714D01*
X184742857Y-105399999D01*
X185542857Y-105971428D02*
X185485714Y-105857142D01*
X185428571Y-105799999D01*
X185314286Y-105742856D01*
X184971429Y-105742856D01*
X184857143Y-105799999D01*
X184800000Y-105857142D01*
X184742857Y-105971428D01*
X184742857Y-106142856D01*
X184800000Y-106257142D01*
X184857143Y-106314285D01*
X184971429Y-106371428D01*
X185314286Y-106371428D01*
X185428571Y-106314285D01*
X185485714Y-106257142D01*
X185542857Y-106142856D01*
X185542857Y-105971428D01*
X184742857Y-106714285D02*
X184742857Y-107171428D01*
X184342857Y-106885713D02*
X185371429Y-106885713D01*
X185485714Y-106942856D01*
X185542857Y-107057142D01*
X185542857Y-107171428D01*
X185542857Y-107742856D02*
X185485714Y-107628570D01*
X185428571Y-107571427D01*
X185314286Y-107514284D01*
X184971429Y-107514284D01*
X184857143Y-107571427D01*
X184800000Y-107628570D01*
X184742857Y-107742856D01*
X184742857Y-107914284D01*
X184800000Y-108028570D01*
X184857143Y-108085713D01*
X184971429Y-108142856D01*
X185314286Y-108142856D01*
X185428571Y-108085713D01*
X185485714Y-108028570D01*
X185542857Y-107914284D01*
X185542857Y-107742856D01*
X184742857Y-108485713D02*
X184742857Y-108942856D01*
X184342857Y-108657141D02*
X185371429Y-108657141D01*
X185485714Y-108714284D01*
X185542857Y-108828570D01*
X185542857Y-108942856D01*
X184742857Y-109228570D02*
X185542857Y-109514284D01*
X184742857Y-109799998D02*
X185542857Y-109514284D01*
X185828571Y-109399998D01*
X185885714Y-109342855D01*
X185942857Y-109228570D01*
X184742857Y-110257141D02*
X185942857Y-110257141D01*
X184800000Y-110257141D02*
X184742857Y-110371427D01*
X184742857Y-110599998D01*
X184800000Y-110714284D01*
X184857143Y-110771427D01*
X184971429Y-110828570D01*
X185314286Y-110828570D01*
X185428571Y-110771427D01*
X185485714Y-110714284D01*
X185542857Y-110599998D01*
X185542857Y-110371427D01*
X185485714Y-110257141D01*
X185542857Y-111342855D02*
X184742857Y-111342855D01*
X184342857Y-111342855D02*
X184400000Y-111285712D01*
X184457143Y-111342855D01*
X184400000Y-111399998D01*
X184342857Y-111342855D01*
X184457143Y-111342855D01*
X184742857Y-111914284D02*
X185542857Y-111914284D01*
X184857143Y-111914284D02*
X184800000Y-111971427D01*
X184742857Y-112085713D01*
X184742857Y-112257141D01*
X184800000Y-112371427D01*
X184914286Y-112428570D01*
X185542857Y-112428570D01*
X184742857Y-113514284D02*
X185714286Y-113514284D01*
X185828571Y-113457141D01*
X185885714Y-113399998D01*
X185942857Y-113285713D01*
X185942857Y-113114284D01*
X185885714Y-112999998D01*
X185485714Y-113514284D02*
X185542857Y-113399998D01*
X185542857Y-113171427D01*
X185485714Y-113057141D01*
X185428571Y-112999998D01*
X185314286Y-112942855D01*
X184971429Y-112942855D01*
X184857143Y-112999998D01*
X184800000Y-113057141D01*
X184742857Y-113171427D01*
X184742857Y-113399998D01*
X184800000Y-113514284D01*
X185542857Y-114999998D02*
X184342857Y-114999998D01*
X185542857Y-115514284D02*
X184914286Y-115514284D01*
X184800000Y-115457141D01*
X184742857Y-115342855D01*
X184742857Y-115171427D01*
X184800000Y-115057141D01*
X184857143Y-114999998D01*
X185542857Y-116599998D02*
X184914286Y-116599998D01*
X184800000Y-116542855D01*
X184742857Y-116428569D01*
X184742857Y-116199998D01*
X184800000Y-116085712D01*
X185485714Y-116599998D02*
X185542857Y-116485712D01*
X185542857Y-116199998D01*
X185485714Y-116085712D01*
X185371429Y-116028569D01*
X185257143Y-116028569D01*
X185142857Y-116085712D01*
X185085714Y-116199998D01*
X185085714Y-116485712D01*
X185028571Y-116599998D01*
X184742857Y-116999998D02*
X184742857Y-117457141D01*
X184342857Y-117171426D02*
X185371429Y-117171426D01*
X185485714Y-117228569D01*
X185542857Y-117342855D01*
X185542857Y-117457141D01*
D12*
X127635000Y-121920000D02*
X126365000Y-120650000D01*
X128270000Y-121920000D02*
X127635000Y-121920000D01*
X128031905Y-120467381D02*
X128031905Y-119467381D01*
X127650952Y-119467381D01*
X127555714Y-119515000D01*
X127508095Y-119562619D01*
X127460476Y-119657857D01*
X127460476Y-119800714D01*
X127508095Y-119895952D01*
X127555714Y-119943571D01*
X127650952Y-119991190D01*
X128031905Y-119991190D01*
X127031905Y-120467381D02*
X127031905Y-119467381D01*
X126793810Y-119467381D01*
X126650952Y-119515000D01*
X126555714Y-119610238D01*
X126508095Y-119705476D01*
X126460476Y-119895952D01*
X126460476Y-120038810D01*
X126508095Y-120229286D01*
X126555714Y-120324524D01*
X126650952Y-120419762D01*
X126793810Y-120467381D01*
X127031905Y-120467381D01*
X125984286Y-120467381D02*
X125793810Y-120467381D01*
X125698571Y-120419762D01*
X125650952Y-120372143D01*
X125555714Y-120229286D01*
X125508095Y-120038810D01*
X125508095Y-119657857D01*
X125555714Y-119562619D01*
X125603333Y-119515000D01*
X125698571Y-119467381D01*
X125889048Y-119467381D01*
X125984286Y-119515000D01*
X126031905Y-119562619D01*
X126079524Y-119657857D01*
X126079524Y-119895952D01*
X126031905Y-119991190D01*
X125984286Y-120038810D01*
X125889048Y-120086429D01*
X125698571Y-120086429D01*
X125603333Y-120038810D01*
X125555714Y-119991190D01*
X125508095Y-119895952D01*
X128031905Y-119197381D02*
X128031905Y-118197381D01*
X127650952Y-118197381D01*
X127555714Y-118245000D01*
X127508095Y-118292619D01*
X127460476Y-118387857D01*
X127460476Y-118530714D01*
X127508095Y-118625952D01*
X127555714Y-118673571D01*
X127650952Y-118721190D01*
X128031905Y-118721190D01*
X127031905Y-119197381D02*
X127031905Y-118197381D01*
X126793810Y-118197381D01*
X126650952Y-118245000D01*
X126555714Y-118340238D01*
X126508095Y-118435476D01*
X126460476Y-118625952D01*
X126460476Y-118768810D01*
X126508095Y-118959286D01*
X126555714Y-119054524D01*
X126650952Y-119149762D01*
X126793810Y-119197381D01*
X127031905Y-119197381D01*
X125508095Y-119197381D02*
X126079524Y-119197381D01*
X125793810Y-119197381D02*
X125793810Y-118197381D01*
X125889048Y-118340238D01*
X125984286Y-118435476D01*
X126079524Y-118483095D01*
X124889048Y-118197381D02*
X124793809Y-118197381D01*
X124698571Y-118245000D01*
X124650952Y-118292619D01*
X124603333Y-118387857D01*
X124555714Y-118578333D01*
X124555714Y-118816429D01*
X124603333Y-119006905D01*
X124650952Y-119102143D01*
X124698571Y-119149762D01*
X124793809Y-119197381D01*
X124889048Y-119197381D01*
X124984286Y-119149762D01*
X125031905Y-119102143D01*
X125079524Y-119006905D01*
X125127143Y-118816429D01*
X125127143Y-118578333D01*
X125079524Y-118387857D01*
X125031905Y-118292619D01*
X124984286Y-118245000D01*
X124889048Y-118197381D01*
X128031905Y-117292381D02*
X128031905Y-116292381D01*
X127650952Y-116292381D01*
X127555714Y-116340000D01*
X127508095Y-116387619D01*
X127460476Y-116482857D01*
X127460476Y-116625714D01*
X127508095Y-116720952D01*
X127555714Y-116768571D01*
X127650952Y-116816190D01*
X128031905Y-116816190D01*
X127031905Y-117292381D02*
X127031905Y-116292381D01*
X126793810Y-116292381D01*
X126650952Y-116340000D01*
X126555714Y-116435238D01*
X126508095Y-116530476D01*
X126460476Y-116720952D01*
X126460476Y-116863810D01*
X126508095Y-117054286D01*
X126555714Y-117149524D01*
X126650952Y-117244762D01*
X126793810Y-117292381D01*
X127031905Y-117292381D01*
X125508095Y-117292381D02*
X126079524Y-117292381D01*
X125793810Y-117292381D02*
X125793810Y-116292381D01*
X125889048Y-116435238D01*
X125984286Y-116530476D01*
X126079524Y-116578095D01*
X124555714Y-117292381D02*
X125127143Y-117292381D01*
X124841429Y-117292381D02*
X124841429Y-116292381D01*
X124936667Y-116435238D01*
X125031905Y-116530476D01*
X125127143Y-116578095D01*
X128031905Y-114752381D02*
X128031905Y-113752381D01*
X127650952Y-113752381D01*
X127555714Y-113800000D01*
X127508095Y-113847619D01*
X127460476Y-113942857D01*
X127460476Y-114085714D01*
X127508095Y-114180952D01*
X127555714Y-114228571D01*
X127650952Y-114276190D01*
X128031905Y-114276190D01*
X127031905Y-114752381D02*
X127031905Y-113752381D01*
X126793810Y-113752381D01*
X126650952Y-113800000D01*
X126555714Y-113895238D01*
X126508095Y-113990476D01*
X126460476Y-114180952D01*
X126460476Y-114323810D01*
X126508095Y-114514286D01*
X126555714Y-114609524D01*
X126650952Y-114704762D01*
X126793810Y-114752381D01*
X127031905Y-114752381D01*
X125508095Y-114752381D02*
X126079524Y-114752381D01*
X125793810Y-114752381D02*
X125793810Y-113752381D01*
X125889048Y-113895238D01*
X125984286Y-113990476D01*
X126079524Y-114038095D01*
X125127143Y-113847619D02*
X125079524Y-113800000D01*
X124984286Y-113752381D01*
X124746190Y-113752381D01*
X124650952Y-113800000D01*
X124603333Y-113847619D01*
X124555714Y-113942857D01*
X124555714Y-114038095D01*
X124603333Y-114180952D01*
X125174762Y-114752381D01*
X124555714Y-114752381D01*
X128031905Y-112212381D02*
X128031905Y-111212381D01*
X127650952Y-111212381D01*
X127555714Y-111260000D01*
X127508095Y-111307619D01*
X127460476Y-111402857D01*
X127460476Y-111545714D01*
X127508095Y-111640952D01*
X127555714Y-111688571D01*
X127650952Y-111736190D01*
X128031905Y-111736190D01*
X127031905Y-112212381D02*
X127031905Y-111212381D01*
X126793810Y-111212381D01*
X126650952Y-111260000D01*
X126555714Y-111355238D01*
X126508095Y-111450476D01*
X126460476Y-111640952D01*
X126460476Y-111783810D01*
X126508095Y-111974286D01*
X126555714Y-112069524D01*
X126650952Y-112164762D01*
X126793810Y-112212381D01*
X127031905Y-112212381D01*
X125508095Y-112212381D02*
X126079524Y-112212381D01*
X125793810Y-112212381D02*
X125793810Y-111212381D01*
X125889048Y-111355238D01*
X125984286Y-111450476D01*
X126079524Y-111498095D01*
X125174762Y-111212381D02*
X124555714Y-111212381D01*
X124889048Y-111593333D01*
X124746190Y-111593333D01*
X124650952Y-111640952D01*
X124603333Y-111688571D01*
X124555714Y-111783810D01*
X124555714Y-112021905D01*
X124603333Y-112117143D01*
X124650952Y-112164762D01*
X124746190Y-112212381D01*
X125031905Y-112212381D01*
X125127143Y-112164762D01*
X125174762Y-112117143D01*
X132715000Y-96520000D02*
X132080000Y-95885000D01*
X132715000Y-99060000D02*
X132080000Y-99695000D01*
X133350000Y-99060000D02*
X132715000Y-99060000D01*
X133350000Y-96520000D02*
X132715000Y-96520000D01*
X133111905Y-109672381D02*
X133111905Y-108672381D01*
X132730952Y-108672381D01*
X132635714Y-108720000D01*
X132588095Y-108767619D01*
X132540476Y-108862857D01*
X132540476Y-109005714D01*
X132588095Y-109100952D01*
X132635714Y-109148571D01*
X132730952Y-109196190D01*
X133111905Y-109196190D01*
X132111905Y-109672381D02*
X132111905Y-108672381D01*
X131873810Y-108672381D01*
X131730952Y-108720000D01*
X131635714Y-108815238D01*
X131588095Y-108910476D01*
X131540476Y-109100952D01*
X131540476Y-109243810D01*
X131588095Y-109434286D01*
X131635714Y-109529524D01*
X131730952Y-109624762D01*
X131873810Y-109672381D01*
X132111905Y-109672381D01*
X130588095Y-109672381D02*
X131159524Y-109672381D01*
X130873810Y-109672381D02*
X130873810Y-108672381D01*
X130969048Y-108815238D01*
X131064286Y-108910476D01*
X131159524Y-108958095D01*
X129730952Y-109005714D02*
X129730952Y-109672381D01*
X129969048Y-108624762D02*
X130207143Y-109339048D01*
X129588095Y-109339048D01*
X133111905Y-107132381D02*
X133111905Y-106132381D01*
X132730952Y-106132381D01*
X132635714Y-106180000D01*
X132588095Y-106227619D01*
X132540476Y-106322857D01*
X132540476Y-106465714D01*
X132588095Y-106560952D01*
X132635714Y-106608571D01*
X132730952Y-106656190D01*
X133111905Y-106656190D01*
X132111905Y-107132381D02*
X132111905Y-106132381D01*
X131873810Y-106132381D01*
X131730952Y-106180000D01*
X131635714Y-106275238D01*
X131588095Y-106370476D01*
X131540476Y-106560952D01*
X131540476Y-106703810D01*
X131588095Y-106894286D01*
X131635714Y-106989524D01*
X131730952Y-107084762D01*
X131873810Y-107132381D01*
X132111905Y-107132381D01*
X130588095Y-107132381D02*
X131159524Y-107132381D01*
X130873810Y-107132381D02*
X130873810Y-106132381D01*
X130969048Y-106275238D01*
X131064286Y-106370476D01*
X131159524Y-106418095D01*
X129683333Y-106132381D02*
X130159524Y-106132381D01*
X130207143Y-106608571D01*
X130159524Y-106560952D01*
X130064286Y-106513333D01*
X129826190Y-106513333D01*
X129730952Y-106560952D01*
X129683333Y-106608571D01*
X129635714Y-106703810D01*
X129635714Y-106941905D01*
X129683333Y-107037143D01*
X129730952Y-107084762D01*
X129826190Y-107132381D01*
X130064286Y-107132381D01*
X130159524Y-107084762D01*
X130207143Y-107037143D01*
X133111905Y-104592381D02*
X133111905Y-103592381D01*
X132730952Y-103592381D01*
X132635714Y-103640000D01*
X132588095Y-103687619D01*
X132540476Y-103782857D01*
X132540476Y-103925714D01*
X132588095Y-104020952D01*
X132635714Y-104068571D01*
X132730952Y-104116190D01*
X133111905Y-104116190D01*
X132159524Y-104306667D02*
X131683333Y-104306667D01*
X132254762Y-104592381D02*
X131921429Y-103592381D01*
X131588095Y-104592381D01*
X131064286Y-103592381D02*
X130969047Y-103592381D01*
X130873809Y-103640000D01*
X130826190Y-103687619D01*
X130778571Y-103782857D01*
X130730952Y-103973333D01*
X130730952Y-104211429D01*
X130778571Y-104401905D01*
X130826190Y-104497143D01*
X130873809Y-104544762D01*
X130969047Y-104592381D01*
X131064286Y-104592381D01*
X131159524Y-104544762D01*
X131207143Y-104497143D01*
X131254762Y-104401905D01*
X131302381Y-104211429D01*
X131302381Y-103973333D01*
X131254762Y-103782857D01*
X131207143Y-103687619D01*
X131159524Y-103640000D01*
X131064286Y-103592381D01*
X133111905Y-102052381D02*
X133111905Y-101052381D01*
X132730952Y-101052381D01*
X132635714Y-101100000D01*
X132588095Y-101147619D01*
X132540476Y-101242857D01*
X132540476Y-101385714D01*
X132588095Y-101480952D01*
X132635714Y-101528571D01*
X132730952Y-101576190D01*
X133111905Y-101576190D01*
X132159524Y-101766667D02*
X131683333Y-101766667D01*
X132254762Y-102052381D02*
X131921429Y-101052381D01*
X131588095Y-102052381D01*
X130730952Y-102052381D02*
X131302381Y-102052381D01*
X131016667Y-102052381D02*
X131016667Y-101052381D01*
X131111905Y-101195238D01*
X131207143Y-101290476D01*
X131302381Y-101338095D01*
X133111905Y-100782381D02*
X133111905Y-99782381D01*
X132730952Y-99782381D01*
X132635714Y-99830000D01*
X132588095Y-99877619D01*
X132540476Y-99972857D01*
X132540476Y-100115714D01*
X132588095Y-100210952D01*
X132635714Y-100258571D01*
X132730952Y-100306190D01*
X133111905Y-100306190D01*
X131540476Y-100687143D02*
X131588095Y-100734762D01*
X131730952Y-100782381D01*
X131826190Y-100782381D01*
X131969048Y-100734762D01*
X132064286Y-100639524D01*
X132111905Y-100544286D01*
X132159524Y-100353810D01*
X132159524Y-100210952D01*
X132111905Y-100020476D01*
X132064286Y-99925238D01*
X131969048Y-99830000D01*
X131826190Y-99782381D01*
X131730952Y-99782381D01*
X131588095Y-99830000D01*
X131540476Y-99877619D01*
X131207143Y-99782381D02*
X130540476Y-99782381D01*
X130969048Y-100782381D01*
X133111905Y-95702381D02*
X133111905Y-94702381D01*
X132730952Y-94702381D01*
X132635714Y-94750000D01*
X132588095Y-94797619D01*
X132540476Y-94892857D01*
X132540476Y-95035714D01*
X132588095Y-95130952D01*
X132635714Y-95178571D01*
X132730952Y-95226190D01*
X133111905Y-95226190D01*
X131540476Y-95607143D02*
X131588095Y-95654762D01*
X131730952Y-95702381D01*
X131826190Y-95702381D01*
X131969048Y-95654762D01*
X132064286Y-95559524D01*
X132111905Y-95464286D01*
X132159524Y-95273810D01*
X132159524Y-95130952D01*
X132111905Y-94940476D01*
X132064286Y-94845238D01*
X131969048Y-94750000D01*
X131826190Y-94702381D01*
X131730952Y-94702381D01*
X131588095Y-94750000D01*
X131540476Y-94797619D01*
X130969048Y-95130952D02*
X131064286Y-95083333D01*
X131111905Y-95035714D01*
X131159524Y-94940476D01*
X131159524Y-94892857D01*
X131111905Y-94797619D01*
X131064286Y-94750000D01*
X130969048Y-94702381D01*
X130778571Y-94702381D01*
X130683333Y-94750000D01*
X130635714Y-94797619D01*
X130588095Y-94892857D01*
X130588095Y-94940476D01*
X130635714Y-95035714D01*
X130683333Y-95083333D01*
X130778571Y-95130952D01*
X130969048Y-95130952D01*
X131064286Y-95178571D01*
X131111905Y-95226190D01*
X131159524Y-95321429D01*
X131159524Y-95511905D01*
X131111905Y-95607143D01*
X131064286Y-95654762D01*
X130969048Y-95702381D01*
X130778571Y-95702381D01*
X130683333Y-95654762D01*
X130635714Y-95607143D01*
X130588095Y-95511905D01*
X130588095Y-95321429D01*
X130635714Y-95226190D01*
X130683333Y-95178571D01*
X130778571Y-95130952D01*
X133111905Y-94432381D02*
X133111905Y-93432381D01*
X132730952Y-93432381D01*
X132635714Y-93480000D01*
X132588095Y-93527619D01*
X132540476Y-93622857D01*
X132540476Y-93765714D01*
X132588095Y-93860952D01*
X132635714Y-93908571D01*
X132730952Y-93956190D01*
X133111905Y-93956190D01*
X131540476Y-94337143D02*
X131588095Y-94384762D01*
X131730952Y-94432381D01*
X131826190Y-94432381D01*
X131969048Y-94384762D01*
X132064286Y-94289524D01*
X132111905Y-94194286D01*
X132159524Y-94003810D01*
X132159524Y-93860952D01*
X132111905Y-93670476D01*
X132064286Y-93575238D01*
X131969048Y-93480000D01*
X131826190Y-93432381D01*
X131730952Y-93432381D01*
X131588095Y-93480000D01*
X131540476Y-93527619D01*
X131064286Y-94432381D02*
X130873810Y-94432381D01*
X130778571Y-94384762D01*
X130730952Y-94337143D01*
X130635714Y-94194286D01*
X130588095Y-94003810D01*
X130588095Y-93622857D01*
X130635714Y-93527619D01*
X130683333Y-93480000D01*
X130778571Y-93432381D01*
X130969048Y-93432381D01*
X131064286Y-93480000D01*
X131111905Y-93527619D01*
X131159524Y-93622857D01*
X131159524Y-93860952D01*
X131111905Y-93956190D01*
X131064286Y-94003810D01*
X130969048Y-94051429D01*
X130778571Y-94051429D01*
X130683333Y-94003810D01*
X130635714Y-93956190D01*
X130588095Y-93860952D01*
X133111905Y-91892381D02*
X133111905Y-90892381D01*
X132730952Y-90892381D01*
X132635714Y-90940000D01*
X132588095Y-90987619D01*
X132540476Y-91082857D01*
X132540476Y-91225714D01*
X132588095Y-91320952D01*
X132635714Y-91368571D01*
X132730952Y-91416190D01*
X133111905Y-91416190D01*
X131540476Y-91797143D02*
X131588095Y-91844762D01*
X131730952Y-91892381D01*
X131826190Y-91892381D01*
X131969048Y-91844762D01*
X132064286Y-91749524D01*
X132111905Y-91654286D01*
X132159524Y-91463810D01*
X132159524Y-91320952D01*
X132111905Y-91130476D01*
X132064286Y-91035238D01*
X131969048Y-90940000D01*
X131826190Y-90892381D01*
X131730952Y-90892381D01*
X131588095Y-90940000D01*
X131540476Y-90987619D01*
X130588095Y-91892381D02*
X131159524Y-91892381D01*
X130873810Y-91892381D02*
X130873810Y-90892381D01*
X130969048Y-91035238D01*
X131064286Y-91130476D01*
X131159524Y-91178095D01*
X129969048Y-90892381D02*
X129873809Y-90892381D01*
X129778571Y-90940000D01*
X129730952Y-90987619D01*
X129683333Y-91082857D01*
X129635714Y-91273333D01*
X129635714Y-91511429D01*
X129683333Y-91701905D01*
X129730952Y-91797143D01*
X129778571Y-91844762D01*
X129873809Y-91892381D01*
X129969048Y-91892381D01*
X130064286Y-91844762D01*
X130111905Y-91797143D01*
X130159524Y-91701905D01*
X130207143Y-91511429D01*
X130207143Y-91273333D01*
X130159524Y-91082857D01*
X130111905Y-90987619D01*
X130064286Y-90940000D01*
X129969048Y-90892381D01*
X133111905Y-89352381D02*
X133111905Y-88352381D01*
X132730952Y-88352381D01*
X132635714Y-88400000D01*
X132588095Y-88447619D01*
X132540476Y-88542857D01*
X132540476Y-88685714D01*
X132588095Y-88780952D01*
X132635714Y-88828571D01*
X132730952Y-88876190D01*
X133111905Y-88876190D01*
X131540476Y-89257143D02*
X131588095Y-89304762D01*
X131730952Y-89352381D01*
X131826190Y-89352381D01*
X131969048Y-89304762D01*
X132064286Y-89209524D01*
X132111905Y-89114286D01*
X132159524Y-88923810D01*
X132159524Y-88780952D01*
X132111905Y-88590476D01*
X132064286Y-88495238D01*
X131969048Y-88400000D01*
X131826190Y-88352381D01*
X131730952Y-88352381D01*
X131588095Y-88400000D01*
X131540476Y-88447619D01*
X130588095Y-89352381D02*
X131159524Y-89352381D01*
X130873810Y-89352381D02*
X130873810Y-88352381D01*
X130969048Y-88495238D01*
X131064286Y-88590476D01*
X131159524Y-88638095D01*
X129635714Y-89352381D02*
X130207143Y-89352381D01*
X129921429Y-89352381D02*
X129921429Y-88352381D01*
X130016667Y-88495238D01*
X130111905Y-88590476D01*
X130207143Y-88638095D01*
X133476190Y-80202381D02*
X132857142Y-80202381D01*
X133190476Y-80583333D01*
X133047618Y-80583333D01*
X132952380Y-80630952D01*
X132904761Y-80678571D01*
X132857142Y-80773810D01*
X132857142Y-81011905D01*
X132904761Y-81107143D01*
X132952380Y-81154762D01*
X133047618Y-81202381D01*
X133333333Y-81202381D01*
X133428571Y-81154762D01*
X133476190Y-81107143D01*
X132428571Y-81107143D02*
X132380952Y-81154762D01*
X132428571Y-81202381D01*
X132476190Y-81154762D01*
X132428571Y-81107143D01*
X132428571Y-81202381D01*
X132047619Y-80202381D02*
X131428571Y-80202381D01*
X131761905Y-80583333D01*
X131619047Y-80583333D01*
X131523809Y-80630952D01*
X131476190Y-80678571D01*
X131428571Y-80773810D01*
X131428571Y-81011905D01*
X131476190Y-81107143D01*
X131523809Y-81154762D01*
X131619047Y-81202381D01*
X131904762Y-81202381D01*
X132000000Y-81154762D01*
X132047619Y-81107143D01*
X131142857Y-80202381D02*
X130809524Y-81202381D01*
X130476190Y-80202381D01*
D13*
X152675000Y-81720000D02*
X152675000Y-81620000D01*
X157325000Y-81720000D02*
X157325000Y-81520000D01*
X157325000Y-78470000D02*
X157325000Y-78670000D01*
X152675000Y-78470000D02*
X152675000Y-78670000D01*
X152675000Y-81720000D02*
X157325000Y-81720000D01*
X152675000Y-78470000D02*
X157325000Y-78470000D01*
X152675000Y-81620000D02*
X151325000Y-81620000D01*
X128700000Y-80800000D02*
G75*
G02X127300000Y-80800000I-700000J0D01*
G01*
X128700000Y-78800000D02*
X127300000Y-78800000D01*
X127300000Y-78800000D02*
X127300000Y-80800000D01*
X128700000Y-80800000D02*
X128700000Y-78800000D01*
X130069060Y-80800000D02*
G75*
G02X128669060Y-80800000I-700000J0D01*
G01*
X130069060Y-78800000D02*
X128669060Y-78800000D01*
X128669060Y-78800000D02*
X128669060Y-80800000D01*
X130069060Y-80800000D02*
X130069060Y-78800000D01*
D14*
X162990000Y-79780000D02*
X162990000Y-80220000D01*
X164010000Y-79780000D02*
X164010000Y-80220000D01*
X161490000Y-79780000D02*
X161490000Y-80220000D01*
X162510000Y-79780000D02*
X162510000Y-80220000D01*
D12*
X130810000Y-110490000D02*
X130810000Y-120650000D01*
X128270000Y-110490000D02*
X128270000Y-123190000D01*
X133350000Y-110490000D02*
X128270000Y-110490000D01*
X135890000Y-110490000D02*
X135890000Y-87630000D01*
X133350000Y-110490000D02*
X135890000Y-110490000D01*
X133350000Y-87630000D02*
X133350000Y-110490000D01*
X128270000Y-125730000D02*
X179070000Y-125730000D01*
X128270000Y-123190000D02*
X128270000Y-125730000D01*
X130810000Y-123190000D02*
X128270000Y-123190000D01*
X130810000Y-123190000D02*
X179070000Y-123190000D01*
X130810000Y-120650000D02*
X130810000Y-123190000D01*
X130810000Y-120650000D02*
X179070000Y-120650000D01*
X179070000Y-82550000D02*
X128270000Y-82550000D01*
X179070000Y-87630000D02*
X179070000Y-82550000D01*
X128270000Y-87630000D02*
X179070000Y-87630000D01*
X128270000Y-82550000D02*
X128270000Y-87630000D01*
D15*
G36*
X183969184Y-78841241D02*
X183982282Y-78867753D01*
X184005106Y-78900447D01*
X184029996Y-78924275D01*
X184061249Y-78940594D01*
X184103166Y-78950760D01*
X184160044Y-78956128D01*
X184236184Y-78958056D01*
X184268917Y-78958169D01*
X184340656Y-78957839D01*
X184391927Y-78956473D01*
X184427404Y-78953500D01*
X184451763Y-78948351D01*
X184469680Y-78940457D01*
X184481902Y-78932243D01*
X184533905Y-78879813D01*
X184565184Y-78818070D01*
X184574592Y-78751464D01*
X184560980Y-78684442D01*
X184551354Y-78663208D01*
X184524859Y-78612376D01*
X184940052Y-78612376D01*
X184920868Y-78649475D01*
X184906025Y-78698357D01*
X184902222Y-78758439D01*
X184909243Y-78818436D01*
X184925013Y-78863744D01*
X184955047Y-78901325D01*
X184998024Y-78933436D01*
X185002436Y-78935850D01*
X185023221Y-78946033D01*
X185044170Y-78953470D01*
X185069548Y-78958589D01*
X185103618Y-78961819D01*
X185150641Y-78963587D01*
X185214882Y-78964323D01*
X185287176Y-78964456D01*
X185517822Y-78964456D01*
X185517822Y-78826139D01*
X185092533Y-78826139D01*
X185059979Y-78787451D01*
X185033940Y-78747262D01*
X185029205Y-78709203D01*
X185041389Y-78670934D01*
X185053320Y-78650538D01*
X185070313Y-78635358D01*
X185095995Y-78624562D01*
X185133991Y-78617317D01*
X185187926Y-78612792D01*
X185261425Y-78610156D01*
X185310347Y-78609228D01*
X185511535Y-78606089D01*
X185515336Y-78540074D01*
X185519136Y-78474060D01*
X184270650Y-78474060D01*
X184270650Y-78612376D01*
X184340254Y-78615903D01*
X184388569Y-78627785D01*
X184418631Y-78649980D01*
X184433471Y-78684441D01*
X184436436Y-78719258D01*
X184433028Y-78758671D01*
X184419617Y-78784829D01*
X184401896Y-78801186D01*
X184382835Y-78814063D01*
X184361601Y-78821728D01*
X184331849Y-78825139D01*
X184287236Y-78825251D01*
X184249880Y-78824103D01*
X184193604Y-78821468D01*
X184156658Y-78817544D01*
X184133223Y-78810937D01*
X184117480Y-78800251D01*
X184108380Y-78790167D01*
X184088537Y-78748030D01*
X184085332Y-78698160D01*
X184092168Y-78669524D01*
X184116464Y-78641172D01*
X184163728Y-78622391D01*
X184233624Y-78613288D01*
X184270650Y-78612376D01*
X184270650Y-78474060D01*
X183958614Y-78474060D01*
X183958614Y-78543218D01*
X183960256Y-78584740D01*
X183966087Y-78606162D01*
X183977461Y-78612374D01*
X183977798Y-78612376D01*
X183988938Y-78615258D01*
X183987673Y-78627970D01*
X183975433Y-78653243D01*
X183956707Y-78712131D01*
X183954739Y-78778385D01*
X183969184Y-78841241D01*
X183969184Y-78841241D01*
G37*
X183969184Y-78841241D02*
X183982282Y-78867753D01*
X184005106Y-78900447D01*
X184029996Y-78924275D01*
X184061249Y-78940594D01*
X184103166Y-78950760D01*
X184160044Y-78956128D01*
X184236184Y-78958056D01*
X184268917Y-78958169D01*
X184340656Y-78957839D01*
X184391927Y-78956473D01*
X184427404Y-78953500D01*
X184451763Y-78948351D01*
X184469680Y-78940457D01*
X184481902Y-78932243D01*
X184533905Y-78879813D01*
X184565184Y-78818070D01*
X184574592Y-78751464D01*
X184560980Y-78684442D01*
X184551354Y-78663208D01*
X184524859Y-78612376D01*
X184940052Y-78612376D01*
X184920868Y-78649475D01*
X184906025Y-78698357D01*
X184902222Y-78758439D01*
X184909243Y-78818436D01*
X184925013Y-78863744D01*
X184955047Y-78901325D01*
X184998024Y-78933436D01*
X185002436Y-78935850D01*
X185023221Y-78946033D01*
X185044170Y-78953470D01*
X185069548Y-78958589D01*
X185103618Y-78961819D01*
X185150641Y-78963587D01*
X185214882Y-78964323D01*
X185287176Y-78964456D01*
X185517822Y-78964456D01*
X185517822Y-78826139D01*
X185092533Y-78826139D01*
X185059979Y-78787451D01*
X185033940Y-78747262D01*
X185029205Y-78709203D01*
X185041389Y-78670934D01*
X185053320Y-78650538D01*
X185070313Y-78635358D01*
X185095995Y-78624562D01*
X185133991Y-78617317D01*
X185187926Y-78612792D01*
X185261425Y-78610156D01*
X185310347Y-78609228D01*
X185511535Y-78606089D01*
X185515336Y-78540074D01*
X185519136Y-78474060D01*
X184270650Y-78474060D01*
X184270650Y-78612376D01*
X184340254Y-78615903D01*
X184388569Y-78627785D01*
X184418631Y-78649980D01*
X184433471Y-78684441D01*
X184436436Y-78719258D01*
X184433028Y-78758671D01*
X184419617Y-78784829D01*
X184401896Y-78801186D01*
X184382835Y-78814063D01*
X184361601Y-78821728D01*
X184331849Y-78825139D01*
X184287236Y-78825251D01*
X184249880Y-78824103D01*
X184193604Y-78821468D01*
X184156658Y-78817544D01*
X184133223Y-78810937D01*
X184117480Y-78800251D01*
X184108380Y-78790167D01*
X184088537Y-78748030D01*
X184085332Y-78698160D01*
X184092168Y-78669524D01*
X184116464Y-78641172D01*
X184163728Y-78622391D01*
X184233624Y-78613288D01*
X184270650Y-78612376D01*
X184270650Y-78474060D01*
X183958614Y-78474060D01*
X183958614Y-78543218D01*
X183960256Y-78584740D01*
X183966087Y-78606162D01*
X183977461Y-78612374D01*
X183977798Y-78612376D01*
X183988938Y-78615258D01*
X183987673Y-78627970D01*
X183975433Y-78653243D01*
X183956707Y-78712131D01*
X183954739Y-78778385D01*
X183969184Y-78841241D01*
G36*
X184906555Y-79365790D02*
X184922339Y-79424945D01*
X184950948Y-79469977D01*
X184988419Y-79501754D01*
X185004411Y-79511634D01*
X185021163Y-79518927D01*
X185042592Y-79524026D01*
X185072616Y-79527321D01*
X185115154Y-79529203D01*
X185174122Y-79530063D01*
X185253440Y-79530293D01*
X185274484Y-79530297D01*
X185517822Y-79530297D01*
X185517822Y-79469941D01*
X185515126Y-79431443D01*
X185508295Y-79402977D01*
X185504083Y-79395845D01*
X185496813Y-79376348D01*
X185504083Y-79356434D01*
X185513160Y-79323647D01*
X185516813Y-79276022D01*
X185515228Y-79223236D01*
X185508589Y-79174964D01*
X185500072Y-79146782D01*
X185465063Y-79092247D01*
X185416479Y-79058165D01*
X185351882Y-79042843D01*
X185350223Y-79042701D01*
X185321566Y-79044045D01*
X185321566Y-79165644D01*
X185354161Y-79176274D01*
X185372505Y-79193590D01*
X185386379Y-79228348D01*
X185391917Y-79274227D01*
X185389191Y-79321012D01*
X185378274Y-79358486D01*
X185371269Y-79368985D01*
X185338904Y-79387332D01*
X185302111Y-79391980D01*
X185253763Y-79391980D01*
X185253763Y-79322418D01*
X185258850Y-79256333D01*
X185273263Y-79206236D01*
X185295729Y-79175071D01*
X185321566Y-79165644D01*
X185321566Y-79044045D01*
X185279647Y-79046013D01*
X185223845Y-79069290D01*
X185181647Y-79113052D01*
X185177808Y-79119101D01*
X185165309Y-79145093D01*
X185157740Y-79177265D01*
X185154061Y-79222240D01*
X185153216Y-79275669D01*
X185153169Y-79391980D01*
X185104411Y-79391980D01*
X185066581Y-79387047D01*
X185041236Y-79374457D01*
X185039887Y-79372983D01*
X185028800Y-79344966D01*
X185024503Y-79302674D01*
X185026615Y-79255936D01*
X185034756Y-79214582D01*
X185046965Y-79190043D01*
X185056746Y-79176747D01*
X185058613Y-79162706D01*
X185050600Y-79143329D01*
X185030739Y-79114024D01*
X184997063Y-79070197D01*
X184993909Y-79066175D01*
X184982236Y-79068236D01*
X184962822Y-79085432D01*
X184941248Y-79111567D01*
X184923096Y-79140448D01*
X184918809Y-79149522D01*
X184910256Y-79182620D01*
X184904155Y-79231120D01*
X184901708Y-79285305D01*
X184901703Y-79287839D01*
X184906555Y-79365790D01*
X184906555Y-79365790D01*
G37*
X184906555Y-79365790D02*
X184922339Y-79424945D01*
X184950948Y-79469977D01*
X184988419Y-79501754D01*
X185004411Y-79511634D01*
X185021163Y-79518927D01*
X185042592Y-79524026D01*
X185072616Y-79527321D01*
X185115154Y-79529203D01*
X185174122Y-79530063D01*
X185253440Y-79530293D01*
X185274484Y-79530297D01*
X185517822Y-79530297D01*
X185517822Y-79469941D01*
X185515126Y-79431443D01*
X185508295Y-79402977D01*
X185504083Y-79395845D01*
X185496813Y-79376348D01*
X185504083Y-79356434D01*
X185513160Y-79323647D01*
X185516813Y-79276022D01*
X185515228Y-79223236D01*
X185508589Y-79174964D01*
X185500072Y-79146782D01*
X185465063Y-79092247D01*
X185416479Y-79058165D01*
X185351882Y-79042843D01*
X185350223Y-79042701D01*
X185321566Y-79044045D01*
X185321566Y-79165644D01*
X185354161Y-79176274D01*
X185372505Y-79193590D01*
X185386379Y-79228348D01*
X185391917Y-79274227D01*
X185389191Y-79321012D01*
X185378274Y-79358486D01*
X185371269Y-79368985D01*
X185338904Y-79387332D01*
X185302111Y-79391980D01*
X185253763Y-79391980D01*
X185253763Y-79322418D01*
X185258850Y-79256333D01*
X185273263Y-79206236D01*
X185295729Y-79175071D01*
X185321566Y-79165644D01*
X185321566Y-79044045D01*
X185279647Y-79046013D01*
X185223845Y-79069290D01*
X185181647Y-79113052D01*
X185177808Y-79119101D01*
X185165309Y-79145093D01*
X185157740Y-79177265D01*
X185154061Y-79222240D01*
X185153216Y-79275669D01*
X185153169Y-79391980D01*
X185104411Y-79391980D01*
X185066581Y-79387047D01*
X185041236Y-79374457D01*
X185039887Y-79372983D01*
X185028800Y-79344966D01*
X185024503Y-79302674D01*
X185026615Y-79255936D01*
X185034756Y-79214582D01*
X185046965Y-79190043D01*
X185056746Y-79176747D01*
X185058613Y-79162706D01*
X185050600Y-79143329D01*
X185030739Y-79114024D01*
X184997063Y-79070197D01*
X184993909Y-79066175D01*
X184982236Y-79068236D01*
X184962822Y-79085432D01*
X184941248Y-79111567D01*
X184923096Y-79140448D01*
X184918809Y-79149522D01*
X184910256Y-79182620D01*
X184904155Y-79231120D01*
X184901708Y-79285305D01*
X184901703Y-79287839D01*
X184906555Y-79365790D01*
G36*
X184903020Y-79756644D02*
X184908660Y-79775461D01*
X184921053Y-79781527D01*
X184926647Y-79781782D01*
X184942230Y-79782871D01*
X184944676Y-79790368D01*
X184933993Y-79810619D01*
X184926694Y-79822649D01*
X184911063Y-79860600D01*
X184903334Y-79905928D01*
X184902740Y-79953456D01*
X184908513Y-79998005D01*
X184919884Y-80034398D01*
X184936088Y-80057457D01*
X184956355Y-80062004D01*
X184961843Y-80059709D01*
X184984626Y-80042980D01*
X185012647Y-80017037D01*
X185017177Y-80012345D01*
X185038005Y-79987617D01*
X185044735Y-79966282D01*
X185040038Y-79936445D01*
X185036917Y-79924492D01*
X185029421Y-79887295D01*
X185032792Y-79861141D01*
X185044681Y-79839054D01*
X185060635Y-79818822D01*
X185080700Y-79803921D01*
X185108702Y-79793566D01*
X185148467Y-79786971D01*
X185203823Y-79783351D01*
X185278594Y-79781922D01*
X185323740Y-79781782D01*
X185517822Y-79781782D01*
X185517822Y-79656040D01*
X184901683Y-79656040D01*
X184901683Y-79718911D01*
X184903020Y-79756644D01*
X184903020Y-79756644D01*
G37*
X184903020Y-79756644D02*
X184908660Y-79775461D01*
X184921053Y-79781527D01*
X184926647Y-79781782D01*
X184942230Y-79782871D01*
X184944676Y-79790368D01*
X184933993Y-79810619D01*
X184926694Y-79822649D01*
X184911063Y-79860600D01*
X184903334Y-79905928D01*
X184902740Y-79953456D01*
X184908513Y-79998005D01*
X184919884Y-80034398D01*
X184936088Y-80057457D01*
X184956355Y-80062004D01*
X184961843Y-80059709D01*
X184984626Y-80042980D01*
X185012647Y-80017037D01*
X185017177Y-80012345D01*
X185038005Y-79987617D01*
X185044735Y-79966282D01*
X185040038Y-79936445D01*
X185036917Y-79924492D01*
X185029421Y-79887295D01*
X185032792Y-79861141D01*
X185044681Y-79839054D01*
X185060635Y-79818822D01*
X185080700Y-79803921D01*
X185108702Y-79793566D01*
X185148467Y-79786971D01*
X185203823Y-79783351D01*
X185278594Y-79781922D01*
X185323740Y-79781782D01*
X185517822Y-79781782D01*
X185517822Y-79656040D01*
X184901683Y-79656040D01*
X184901683Y-79718911D01*
X184903020Y-79756644D01*
G36*
X185517822Y-80548812D02*
X185517822Y-80479654D01*
X185516645Y-80439512D01*
X185511772Y-80418606D01*
X185501186Y-80411078D01*
X185494029Y-80410495D01*
X185479676Y-80409226D01*
X185476923Y-80401221D01*
X185485771Y-80380185D01*
X185494029Y-80363827D01*
X185513597Y-80301023D01*
X185514729Y-80232752D01*
X185500135Y-80177248D01*
X185464877Y-80125562D01*
X185412835Y-80086162D01*
X185351450Y-80064587D01*
X185348018Y-80064038D01*
X185310571Y-80060833D01*
X185256813Y-80059239D01*
X185216155Y-80059367D01*
X185216155Y-80196721D01*
X185270194Y-80199903D01*
X185314735Y-80207141D01*
X185339888Y-80216940D01*
X185374260Y-80254011D01*
X185386582Y-80298026D01*
X185376618Y-80343416D01*
X185346895Y-80382203D01*
X185326905Y-80396892D01*
X185303050Y-80405481D01*
X185268230Y-80409504D01*
X185215930Y-80410495D01*
X185164139Y-80408722D01*
X185118634Y-80404037D01*
X185088181Y-80397397D01*
X185085452Y-80396290D01*
X185053000Y-80369509D01*
X185035183Y-80330421D01*
X185032306Y-80286685D01*
X185044674Y-80245962D01*
X185072593Y-80215913D01*
X185078148Y-80212796D01*
X185112022Y-80203039D01*
X185160728Y-80197723D01*
X185216155Y-80196721D01*
X185216155Y-80059367D01*
X185195540Y-80059432D01*
X185162563Y-80060336D01*
X185080981Y-80066486D01*
X185019730Y-80079267D01*
X184974449Y-80100529D01*
X184940779Y-80132122D01*
X184921014Y-80162793D01*
X184907120Y-80205646D01*
X184902354Y-80258944D01*
X184906236Y-80313520D01*
X184918282Y-80360208D01*
X184932693Y-80384876D01*
X184955878Y-80410495D01*
X184662773Y-80410495D01*
X184662773Y-80548812D01*
X185517822Y-80548812D01*
X185517822Y-80548812D01*
G37*
X185517822Y-80548812D02*
X185517822Y-80479654D01*
X185516645Y-80439512D01*
X185511772Y-80418606D01*
X185501186Y-80411078D01*
X185494029Y-80410495D01*
X185479676Y-80409226D01*
X185476923Y-80401221D01*
X185485771Y-80380185D01*
X185494029Y-80363827D01*
X185513597Y-80301023D01*
X185514729Y-80232752D01*
X185500135Y-80177248D01*
X185464877Y-80125562D01*
X185412835Y-80086162D01*
X185351450Y-80064587D01*
X185348018Y-80064038D01*
X185310571Y-80060833D01*
X185256813Y-80059239D01*
X185216155Y-80059367D01*
X185216155Y-80196721D01*
X185270194Y-80199903D01*
X185314735Y-80207141D01*
X185339888Y-80216940D01*
X185374260Y-80254011D01*
X185386582Y-80298026D01*
X185376618Y-80343416D01*
X185346895Y-80382203D01*
X185326905Y-80396892D01*
X185303050Y-80405481D01*
X185268230Y-80409504D01*
X185215930Y-80410495D01*
X185164139Y-80408722D01*
X185118634Y-80404037D01*
X185088181Y-80397397D01*
X185085452Y-80396290D01*
X185053000Y-80369509D01*
X185035183Y-80330421D01*
X185032306Y-80286685D01*
X185044674Y-80245962D01*
X185072593Y-80215913D01*
X185078148Y-80212796D01*
X185112022Y-80203039D01*
X185160728Y-80197723D01*
X185216155Y-80196721D01*
X185216155Y-80059367D01*
X185195540Y-80059432D01*
X185162563Y-80060336D01*
X185080981Y-80066486D01*
X185019730Y-80079267D01*
X184974449Y-80100529D01*
X184940779Y-80132122D01*
X184921014Y-80162793D01*
X184907120Y-80205646D01*
X184902354Y-80258944D01*
X184906236Y-80313520D01*
X184918282Y-80360208D01*
X184932693Y-80384876D01*
X184955878Y-80410495D01*
X184662773Y-80410495D01*
X184662773Y-80548812D01*
X185517822Y-80548812D01*
G36*
X184904237Y-81031524D02*
X184907971Y-81081255D01*
X185297773Y-81211291D01*
X185228614Y-81231678D01*
X185185874Y-81243946D01*
X185128115Y-81260085D01*
X185064625Y-81277512D01*
X185030570Y-81286726D01*
X184901683Y-81321388D01*
X184901683Y-81464391D01*
X185036857Y-81421646D01*
X185103342Y-81400596D01*
X185183539Y-81375167D01*
X185267193Y-81348610D01*
X185341782Y-81324902D01*
X185511535Y-81270902D01*
X185515328Y-81212598D01*
X185519122Y-81154295D01*
X185414734Y-81122679D01*
X185349889Y-81103182D01*
X185278400Y-81081904D01*
X185215263Y-81063308D01*
X185212750Y-81062574D01*
X185169969Y-81048684D01*
X185140779Y-81036429D01*
X185129741Y-81027846D01*
X185131018Y-81026082D01*
X185148130Y-81019891D01*
X185184787Y-81008128D01*
X185236378Y-80992225D01*
X185298294Y-80973614D01*
X185332352Y-80963543D01*
X185517822Y-80909007D01*
X185517822Y-80793264D01*
X185225471Y-80700737D01*
X185143462Y-80674744D01*
X185068987Y-80651066D01*
X185005544Y-80630820D01*
X184956632Y-80615126D01*
X184925749Y-80605102D01*
X184916726Y-80602055D01*
X184907487Y-80604467D01*
X184903441Y-80623408D01*
X184903846Y-80662823D01*
X184904152Y-80668993D01*
X184907971Y-80742086D01*
X185084010Y-80789957D01*
X185148211Y-80807553D01*
X185204649Y-80823277D01*
X185248422Y-80835746D01*
X185274630Y-80843574D01*
X185278903Y-80845020D01*
X185273990Y-80851014D01*
X185248532Y-80863101D01*
X185205997Y-80879893D01*
X185149850Y-80900003D01*
X185099130Y-80917003D01*
X184900504Y-80981794D01*
X184904237Y-81031524D01*
X184904237Y-81031524D01*
G37*
X184904237Y-81031524D02*
X184907971Y-81081255D01*
X185297773Y-81211291D01*
X185228614Y-81231678D01*
X185185874Y-81243946D01*
X185128115Y-81260085D01*
X185064625Y-81277512D01*
X185030570Y-81286726D01*
X184901683Y-81321388D01*
X184901683Y-81464391D01*
X185036857Y-81421646D01*
X185103342Y-81400596D01*
X185183539Y-81375167D01*
X185267193Y-81348610D01*
X185341782Y-81324902D01*
X185511535Y-81270902D01*
X185515328Y-81212598D01*
X185519122Y-81154295D01*
X185414734Y-81122679D01*
X185349889Y-81103182D01*
X185278400Y-81081904D01*
X185215263Y-81063308D01*
X185212750Y-81062574D01*
X185169969Y-81048684D01*
X185140779Y-81036429D01*
X185129741Y-81027846D01*
X185131018Y-81026082D01*
X185148130Y-81019891D01*
X185184787Y-81008128D01*
X185236378Y-80992225D01*
X185298294Y-80973614D01*
X185332352Y-80963543D01*
X185517822Y-80909007D01*
X185517822Y-80793264D01*
X185225471Y-80700737D01*
X185143462Y-80674744D01*
X185068987Y-80651066D01*
X185005544Y-80630820D01*
X184956632Y-80615126D01*
X184925749Y-80605102D01*
X184916726Y-80602055D01*
X184907487Y-80604467D01*
X184903441Y-80623408D01*
X184903846Y-80662823D01*
X184904152Y-80668993D01*
X184907971Y-80742086D01*
X185084010Y-80789957D01*
X185148211Y-80807553D01*
X185204649Y-80823277D01*
X185248422Y-80835746D01*
X185274630Y-80843574D01*
X185278903Y-80845020D01*
X185273990Y-80851014D01*
X185248532Y-80863101D01*
X185205997Y-80879893D01*
X185149850Y-80900003D01*
X185099130Y-80917003D01*
X184900504Y-80981794D01*
X184904237Y-81031524D01*
G36*
X184905417Y-81788411D02*
X184918290Y-81841411D01*
X184925110Y-81856731D01*
X184942974Y-81886428D01*
X184963093Y-81909220D01*
X184988962Y-81926083D01*
X185024073Y-81937998D01*
X185071920Y-81945942D01*
X185135996Y-81950894D01*
X185219794Y-81953831D01*
X185275768Y-81954947D01*
X185517822Y-81959052D01*
X185517822Y-81888932D01*
X185516038Y-81846393D01*
X185509942Y-81824476D01*
X185499706Y-81818812D01*
X185488637Y-81815821D01*
X185490754Y-81802451D01*
X185499629Y-81784233D01*
X185513233Y-81738624D01*
X185516899Y-81680007D01*
X185510903Y-81618354D01*
X185495521Y-81563638D01*
X185493386Y-81558730D01*
X185458255Y-81508723D01*
X185409419Y-81475756D01*
X185352333Y-81460587D01*
X185331824Y-81461746D01*
X185331824Y-81585508D01*
X185359425Y-81596413D01*
X185379204Y-81628745D01*
X185389819Y-81680910D01*
X185391228Y-81708787D01*
X185387620Y-81755247D01*
X185373597Y-81786129D01*
X185366931Y-81793664D01*
X185330666Y-81814076D01*
X185297773Y-81818812D01*
X185253763Y-81818812D01*
X185253763Y-81757513D01*
X185257395Y-81686256D01*
X185268818Y-81636276D01*
X185288824Y-81604696D01*
X185297743Y-81597626D01*
X185331824Y-81585508D01*
X185331824Y-81461746D01*
X185292456Y-81463971D01*
X185235244Y-81486663D01*
X185196580Y-81517624D01*
X185179864Y-81536376D01*
X185168878Y-81554733D01*
X185162180Y-81578619D01*
X185158326Y-81613957D01*
X185155873Y-81666669D01*
X185155168Y-81687577D01*
X185150879Y-81818812D01*
X185111158Y-81818620D01*
X185069405Y-81813537D01*
X185044158Y-81795162D01*
X185028030Y-81758039D01*
X185027742Y-81757043D01*
X185021400Y-81704410D01*
X185029684Y-81652906D01*
X185049827Y-81614630D01*
X185059773Y-81599272D01*
X185058397Y-81582730D01*
X185043987Y-81557275D01*
X185033817Y-81542328D01*
X185012088Y-81513091D01*
X184995800Y-81494980D01*
X184991137Y-81492074D01*
X184967005Y-81504040D01*
X184938185Y-81539396D01*
X184928461Y-81554753D01*
X184911714Y-81598901D01*
X184902227Y-81658398D01*
X184900095Y-81724487D01*
X184905417Y-81788411D01*
X184905417Y-81788411D01*
G37*
X184905417Y-81788411D02*
X184918290Y-81841411D01*
X184925110Y-81856731D01*
X184942974Y-81886428D01*
X184963093Y-81909220D01*
X184988962Y-81926083D01*
X185024073Y-81937998D01*
X185071920Y-81945942D01*
X185135996Y-81950894D01*
X185219794Y-81953831D01*
X185275768Y-81954947D01*
X185517822Y-81959052D01*
X185517822Y-81888932D01*
X185516038Y-81846393D01*
X185509942Y-81824476D01*
X185499706Y-81818812D01*
X185488637Y-81815821D01*
X185490754Y-81802451D01*
X185499629Y-81784233D01*
X185513233Y-81738624D01*
X185516899Y-81680007D01*
X185510903Y-81618354D01*
X185495521Y-81563638D01*
X185493386Y-81558730D01*
X185458255Y-81508723D01*
X185409419Y-81475756D01*
X185352333Y-81460587D01*
X185331824Y-81461746D01*
X185331824Y-81585508D01*
X185359425Y-81596413D01*
X185379204Y-81628745D01*
X185389819Y-81680910D01*
X185391228Y-81708787D01*
X185387620Y-81755247D01*
X185373597Y-81786129D01*
X185366931Y-81793664D01*
X185330666Y-81814076D01*
X185297773Y-81818812D01*
X185253763Y-81818812D01*
X185253763Y-81757513D01*
X185257395Y-81686256D01*
X185268818Y-81636276D01*
X185288824Y-81604696D01*
X185297743Y-81597626D01*
X185331824Y-81585508D01*
X185331824Y-81461746D01*
X185292456Y-81463971D01*
X185235244Y-81486663D01*
X185196580Y-81517624D01*
X185179864Y-81536376D01*
X185168878Y-81554733D01*
X185162180Y-81578619D01*
X185158326Y-81613957D01*
X185155873Y-81666669D01*
X185155168Y-81687577D01*
X185150879Y-81818812D01*
X185111158Y-81818620D01*
X185069405Y-81813537D01*
X185044158Y-81795162D01*
X185028030Y-81758039D01*
X185027742Y-81757043D01*
X185021400Y-81704410D01*
X185029684Y-81652906D01*
X185049827Y-81614630D01*
X185059773Y-81599272D01*
X185058397Y-81582730D01*
X185043987Y-81557275D01*
X185033817Y-81542328D01*
X185012088Y-81513091D01*
X184995800Y-81494980D01*
X184991137Y-81492074D01*
X184967005Y-81504040D01*
X184938185Y-81539396D01*
X184928461Y-81554753D01*
X184911714Y-81598901D01*
X184902227Y-81658398D01*
X184900095Y-81724487D01*
X184905417Y-81788411D01*
G36*
X184901486Y-82385255D02*
X184911015Y-82433595D01*
X184925125Y-82461114D01*
X184948568Y-82490064D01*
X185000571Y-82448876D01*
X185032064Y-82423482D01*
X185047428Y-82406238D01*
X185049776Y-82389102D01*
X185042217Y-82364027D01*
X185037941Y-82352257D01*
X185031631Y-82304270D01*
X185045156Y-82260324D01*
X185075710Y-82228060D01*
X185085452Y-82222819D01*
X185111258Y-82217112D01*
X185158817Y-82212706D01*
X185224758Y-82209811D01*
X185305710Y-82208631D01*
X185317226Y-82208614D01*
X185517822Y-82208614D01*
X185517822Y-82070297D01*
X184901683Y-82070297D01*
X184901683Y-82139456D01*
X184902725Y-82179333D01*
X184907358Y-82200107D01*
X184917849Y-82207789D01*
X184927745Y-82208614D01*
X184953806Y-82208614D01*
X184927745Y-82241745D01*
X184909965Y-82279735D01*
X184901174Y-82330770D01*
X184901486Y-82385255D01*
X184901486Y-82385255D01*
G37*
X184901486Y-82385255D02*
X184911015Y-82433595D01*
X184925125Y-82461114D01*
X184948568Y-82490064D01*
X185000571Y-82448876D01*
X185032064Y-82423482D01*
X185047428Y-82406238D01*
X185049776Y-82389102D01*
X185042217Y-82364027D01*
X185037941Y-82352257D01*
X185031631Y-82304270D01*
X185045156Y-82260324D01*
X185075710Y-82228060D01*
X185085452Y-82222819D01*
X185111258Y-82217112D01*
X185158817Y-82212706D01*
X185224758Y-82209811D01*
X185305710Y-82208631D01*
X185317226Y-82208614D01*
X185517822Y-82208614D01*
X185517822Y-82070297D01*
X184901683Y-82070297D01*
X184901683Y-82139456D01*
X184902725Y-82179333D01*
X184907358Y-82200107D01*
X184917849Y-82207789D01*
X184927745Y-82208614D01*
X184953806Y-82208614D01*
X184927745Y-82241745D01*
X184909965Y-82279735D01*
X184901174Y-82330770D01*
X184901486Y-82385255D01*
G36*
X184904970Y-82782581D02*
X184920597Y-82842685D01*
X184952848Y-82893021D01*
X184976940Y-82917393D01*
X185033895Y-82957345D01*
X185099965Y-82980242D01*
X185181182Y-82988108D01*
X185187748Y-82988148D01*
X185253763Y-82988218D01*
X185253763Y-82608264D01*
X185288342Y-82616363D01*
X185319659Y-82630987D01*
X185352291Y-82656581D01*
X185357500Y-82661935D01*
X185385694Y-82707943D01*
X185390475Y-82760410D01*
X185371926Y-82820803D01*
X185366931Y-82831040D01*
X185351745Y-82862439D01*
X185343094Y-82883470D01*
X185342293Y-82887139D01*
X185350063Y-82899948D01*
X185369072Y-82924378D01*
X185379460Y-82936779D01*
X185403321Y-82962476D01*
X185419077Y-82970915D01*
X185433571Y-82965058D01*
X185437534Y-82961928D01*
X185454879Y-82940725D01*
X185475959Y-82905738D01*
X185488265Y-82881337D01*
X185509946Y-82812072D01*
X185516971Y-82735388D01*
X185508647Y-82662765D01*
X185502686Y-82642426D01*
X185468952Y-82579476D01*
X185417045Y-82532815D01*
X185346459Y-82502173D01*
X185256692Y-82487282D01*
X185209753Y-82485647D01*
X185141413Y-82490421D01*
X185141413Y-82610990D01*
X185146465Y-82622652D01*
X185150429Y-82653998D01*
X185152768Y-82699571D01*
X185153169Y-82730446D01*
X185152783Y-82785981D01*
X185150975Y-82821033D01*
X185146773Y-82840262D01*
X185139203Y-82848330D01*
X185128218Y-82849901D01*
X185094381Y-82839121D01*
X185060940Y-82811980D01*
X185035272Y-82776277D01*
X185024772Y-82740560D01*
X185034086Y-82692048D01*
X185061013Y-82650053D01*
X185099827Y-82620936D01*
X185141413Y-82610990D01*
X185141413Y-82490421D01*
X185110236Y-82492599D01*
X185030949Y-82514055D01*
X184971263Y-82550470D01*
X184930549Y-82602297D01*
X184908179Y-82669990D01*
X184903871Y-82706662D01*
X184904970Y-82782581D01*
X184904970Y-82782581D01*
G37*
X184904970Y-82782581D02*
X184920597Y-82842685D01*
X184952848Y-82893021D01*
X184976940Y-82917393D01*
X185033895Y-82957345D01*
X185099965Y-82980242D01*
X185181182Y-82988108D01*
X185187748Y-82988148D01*
X185253763Y-82988218D01*
X185253763Y-82608264D01*
X185288342Y-82616363D01*
X185319659Y-82630987D01*
X185352291Y-82656581D01*
X185357500Y-82661935D01*
X185385694Y-82707943D01*
X185390475Y-82760410D01*
X185371926Y-82820803D01*
X185366931Y-82831040D01*
X185351745Y-82862439D01*
X185343094Y-82883470D01*
X185342293Y-82887139D01*
X185350063Y-82899948D01*
X185369072Y-82924378D01*
X185379460Y-82936779D01*
X185403321Y-82962476D01*
X185419077Y-82970915D01*
X185433571Y-82965058D01*
X185437534Y-82961928D01*
X185454879Y-82940725D01*
X185475959Y-82905738D01*
X185488265Y-82881337D01*
X185509946Y-82812072D01*
X185516971Y-82735388D01*
X185508647Y-82662765D01*
X185502686Y-82642426D01*
X185468952Y-82579476D01*
X185417045Y-82532815D01*
X185346459Y-82502173D01*
X185256692Y-82487282D01*
X185209753Y-82485647D01*
X185141413Y-82490421D01*
X185141413Y-82610990D01*
X185146465Y-82622652D01*
X185150429Y-82653998D01*
X185152768Y-82699571D01*
X185153169Y-82730446D01*
X185152783Y-82785981D01*
X185150975Y-82821033D01*
X185146773Y-82840262D01*
X185139203Y-82848330D01*
X185128218Y-82849901D01*
X185094381Y-82839121D01*
X185060940Y-82811980D01*
X185035272Y-82776277D01*
X185024772Y-82740560D01*
X185034086Y-82692048D01*
X185061013Y-82650053D01*
X185099827Y-82620936D01*
X185141413Y-82610990D01*
X185141413Y-82490421D01*
X185110236Y-82492599D01*
X185030949Y-82514055D01*
X184971263Y-82550470D01*
X184930549Y-82602297D01*
X184908179Y-82669990D01*
X184903871Y-82706662D01*
X184904970Y-82782581D01*
G36*
X183965148Y-78211739D02*
X183994231Y-78277521D01*
X184042793Y-78327460D01*
X184110908Y-78361626D01*
X184198651Y-78380093D01*
X184212351Y-78381417D01*
X184308939Y-78382454D01*
X184393602Y-78369007D01*
X184462221Y-78341892D01*
X184484294Y-78327373D01*
X184531011Y-78276799D01*
X184561268Y-78212391D01*
X184573824Y-78140334D01*
X184567439Y-78066815D01*
X184547772Y-78010928D01*
X184514629Y-77962868D01*
X184471175Y-77923588D01*
X184470158Y-77922908D01*
X184443338Y-77906956D01*
X184416368Y-77896590D01*
X184382332Y-77890312D01*
X184334310Y-77886627D01*
X184294931Y-77885003D01*
X184259219Y-77884328D01*
X184259219Y-78010045D01*
X184294770Y-78011274D01*
X184342094Y-78015734D01*
X184372465Y-78023603D01*
X184394072Y-78037793D01*
X184406694Y-78051083D01*
X184433122Y-78098198D01*
X184436653Y-78147495D01*
X184417639Y-78193407D01*
X184396331Y-78216362D01*
X184374859Y-78232904D01*
X184354313Y-78242579D01*
X184327574Y-78246826D01*
X184287523Y-78247080D01*
X184250638Y-78245772D01*
X184197947Y-78242957D01*
X184163772Y-78238495D01*
X184141480Y-78230452D01*
X184124442Y-78216897D01*
X184114703Y-78206155D01*
X184089123Y-78161223D01*
X184087847Y-78112751D01*
X184102999Y-78072106D01*
X184134642Y-78037433D01*
X184186620Y-78016776D01*
X184259219Y-78010045D01*
X184259219Y-77884328D01*
X184216621Y-77883521D01*
X184158056Y-77886052D01*
X184114007Y-77893638D01*
X184079248Y-77907319D01*
X184048551Y-77928135D01*
X184039436Y-77935853D01*
X183994021Y-77984111D01*
X183967493Y-78035872D01*
X183956379Y-78099172D01*
X183955471Y-78130039D01*
X183965148Y-78211739D01*
X183965148Y-78211739D01*
G37*
X183965148Y-78211739D02*
X183994231Y-78277521D01*
X184042793Y-78327460D01*
X184110908Y-78361626D01*
X184198651Y-78380093D01*
X184212351Y-78381417D01*
X184308939Y-78382454D01*
X184393602Y-78369007D01*
X184462221Y-78341892D01*
X184484294Y-78327373D01*
X184531011Y-78276799D01*
X184561268Y-78212391D01*
X184573824Y-78140334D01*
X184567439Y-78066815D01*
X184547772Y-78010928D01*
X184514629Y-77962868D01*
X184471175Y-77923588D01*
X184470158Y-77922908D01*
X184443338Y-77906956D01*
X184416368Y-77896590D01*
X184382332Y-77890312D01*
X184334310Y-77886627D01*
X184294931Y-77885003D01*
X184259219Y-77884328D01*
X184259219Y-78010045D01*
X184294770Y-78011274D01*
X184342094Y-78015734D01*
X184372465Y-78023603D01*
X184394072Y-78037793D01*
X184406694Y-78051083D01*
X184433122Y-78098198D01*
X184436653Y-78147495D01*
X184417639Y-78193407D01*
X184396331Y-78216362D01*
X184374859Y-78232904D01*
X184354313Y-78242579D01*
X184327574Y-78246826D01*
X184287523Y-78247080D01*
X184250638Y-78245772D01*
X184197947Y-78242957D01*
X184163772Y-78238495D01*
X184141480Y-78230452D01*
X184124442Y-78216897D01*
X184114703Y-78206155D01*
X184089123Y-78161223D01*
X184087847Y-78112751D01*
X184102999Y-78072106D01*
X184134642Y-78037433D01*
X184186620Y-78016776D01*
X184259219Y-78010045D01*
X184259219Y-77884328D01*
X184216621Y-77883521D01*
X184158056Y-77886052D01*
X184114007Y-77893638D01*
X184079248Y-77907319D01*
X184048551Y-77928135D01*
X184039436Y-77935853D01*
X183994021Y-77984111D01*
X183967493Y-78035872D01*
X183956379Y-78099172D01*
X183955471Y-78130039D01*
X183965148Y-78211739D01*
G36*
X183972614Y-79393301D02*
X183978514Y-79405832D01*
X184010283Y-79449201D01*
X184056646Y-79490210D01*
X184107696Y-79520832D01*
X184131166Y-79529541D01*
X184173091Y-79537488D01*
X184223757Y-79542226D01*
X184244679Y-79542801D01*
X184310693Y-79542871D01*
X184310693Y-79162917D01*
X184345273Y-79171017D01*
X184386170Y-79190896D01*
X184421514Y-79225653D01*
X184444282Y-79267002D01*
X184449010Y-79293351D01*
X184443273Y-79329084D01*
X184428882Y-79371718D01*
X184422262Y-79386201D01*
X184395513Y-79439760D01*
X184430376Y-79485467D01*
X184453955Y-79511842D01*
X184473417Y-79525876D01*
X184479129Y-79526586D01*
X184492973Y-79514049D01*
X184514012Y-79486572D01*
X184530425Y-79461634D01*
X184559930Y-79394336D01*
X184573284Y-79318890D01*
X184569812Y-79244112D01*
X184551663Y-79184505D01*
X184512784Y-79123059D01*
X184461595Y-79079392D01*
X184395367Y-79052074D01*
X184311371Y-79039678D01*
X184272936Y-79038579D01*
X184184861Y-79042978D01*
X184182299Y-79043518D01*
X184182299Y-79169418D01*
X184190558Y-79172885D01*
X184195113Y-79187137D01*
X184197065Y-79216530D01*
X184197517Y-79265425D01*
X184197525Y-79284252D01*
X184196843Y-79341533D01*
X184194364Y-79377859D01*
X184189443Y-79397396D01*
X184181434Y-79404310D01*
X184178862Y-79404555D01*
X184158423Y-79396664D01*
X184129789Y-79376915D01*
X184119763Y-79368425D01*
X184091408Y-79336906D01*
X184080259Y-79304051D01*
X184079327Y-79286349D01*
X184090981Y-79238461D01*
X184122285Y-79198301D01*
X184167752Y-79172827D01*
X184169233Y-79172375D01*
X184182299Y-79169418D01*
X184182299Y-79043518D01*
X184115510Y-79057608D01*
X184060025Y-79083962D01*
X184020639Y-79116193D01*
X183977931Y-79175783D01*
X183955109Y-79245832D01*
X183953046Y-79320339D01*
X183972614Y-79393301D01*
X183972614Y-79393301D01*
G37*
X183972614Y-79393301D02*
X183978514Y-79405832D01*
X184010283Y-79449201D01*
X184056646Y-79490210D01*
X184107696Y-79520832D01*
X184131166Y-79529541D01*
X184173091Y-79537488D01*
X184223757Y-79542226D01*
X184244679Y-79542801D01*
X184310693Y-79542871D01*
X184310693Y-79162917D01*
X184345273Y-79171017D01*
X184386170Y-79190896D01*
X184421514Y-79225653D01*
X184444282Y-79267002D01*
X184449010Y-79293351D01*
X184443273Y-79329084D01*
X184428882Y-79371718D01*
X184422262Y-79386201D01*
X184395513Y-79439760D01*
X184430376Y-79485467D01*
X184453955Y-79511842D01*
X184473417Y-79525876D01*
X184479129Y-79526586D01*
X184492973Y-79514049D01*
X184514012Y-79486572D01*
X184530425Y-79461634D01*
X184559930Y-79394336D01*
X184573284Y-79318890D01*
X184569812Y-79244112D01*
X184551663Y-79184505D01*
X184512784Y-79123059D01*
X184461595Y-79079392D01*
X184395367Y-79052074D01*
X184311371Y-79039678D01*
X184272936Y-79038579D01*
X184184861Y-79042978D01*
X184182299Y-79043518D01*
X184182299Y-79169418D01*
X184190558Y-79172885D01*
X184195113Y-79187137D01*
X184197065Y-79216530D01*
X184197517Y-79265425D01*
X184197525Y-79284252D01*
X184196843Y-79341533D01*
X184194364Y-79377859D01*
X184189443Y-79397396D01*
X184181434Y-79404310D01*
X184178862Y-79404555D01*
X184158423Y-79396664D01*
X184129789Y-79376915D01*
X184119763Y-79368425D01*
X184091408Y-79336906D01*
X184080259Y-79304051D01*
X184079327Y-79286349D01*
X184090981Y-79238461D01*
X184122285Y-79198301D01*
X184167752Y-79172827D01*
X184169233Y-79172375D01*
X184182299Y-79169418D01*
X184182299Y-79043518D01*
X184115510Y-79057608D01*
X184060025Y-79083962D01*
X184020639Y-79116193D01*
X183977931Y-79175783D01*
X183955109Y-79245832D01*
X183953046Y-79320339D01*
X183972614Y-79393301D01*
G36*
X183956452Y-80764017D02*
X183965482Y-80811634D01*
X183984370Y-80861034D01*
X183986777Y-80866312D01*
X184006476Y-80903774D01*
X184024781Y-80929717D01*
X184036508Y-80938103D01*
X184055632Y-80930117D01*
X184083850Y-80910720D01*
X184094384Y-80902110D01*
X184135847Y-80866628D01*
X184108858Y-80820885D01*
X184090878Y-80777350D01*
X184081267Y-80727050D01*
X184080660Y-80678812D01*
X184089691Y-80641467D01*
X184095327Y-80632505D01*
X184121171Y-80615437D01*
X184150941Y-80613363D01*
X184174197Y-80626134D01*
X184178708Y-80633688D01*
X184184309Y-80656325D01*
X184190892Y-80696115D01*
X184197183Y-80745166D01*
X184198170Y-80754215D01*
X184211798Y-80832996D01*
X184234946Y-80890136D01*
X184269752Y-80928030D01*
X184318354Y-80949079D01*
X184377718Y-80955635D01*
X184445198Y-80946577D01*
X184498188Y-80917164D01*
X184536783Y-80867278D01*
X184561081Y-80796800D01*
X184570667Y-80718565D01*
X184570552Y-80654766D01*
X184561845Y-80603016D01*
X184549825Y-80567673D01*
X184528880Y-80523017D01*
X184504574Y-80481747D01*
X184493876Y-80467079D01*
X184463084Y-80429357D01*
X184417049Y-80474852D01*
X184371013Y-80520347D01*
X184405243Y-80572072D01*
X184430952Y-80623952D01*
X184444399Y-80679351D01*
X184445818Y-80732605D01*
X184435443Y-80778049D01*
X184413507Y-80810016D01*
X184394998Y-80820338D01*
X184365314Y-80818789D01*
X184342615Y-80793140D01*
X184326940Y-80743460D01*
X184319695Y-80689031D01*
X184305873Y-80605264D01*
X184279796Y-80543033D01*
X184240699Y-80501507D01*
X184187820Y-80479853D01*
X184125126Y-80476853D01*
X184059642Y-80491671D01*
X184010144Y-80525454D01*
X183976408Y-80578505D01*
X183958207Y-80651126D01*
X183954639Y-80704928D01*
X183956452Y-80764017D01*
X183956452Y-80764017D01*
G37*
X183956452Y-80764017D02*
X183965482Y-80811634D01*
X183984370Y-80861034D01*
X183986777Y-80866312D01*
X184006476Y-80903774D01*
X184024781Y-80929717D01*
X184036508Y-80938103D01*
X184055632Y-80930117D01*
X184083850Y-80910720D01*
X184094384Y-80902110D01*
X184135847Y-80866628D01*
X184108858Y-80820885D01*
X184090878Y-80777350D01*
X184081267Y-80727050D01*
X184080660Y-80678812D01*
X184089691Y-80641467D01*
X184095327Y-80632505D01*
X184121171Y-80615437D01*
X184150941Y-80613363D01*
X184174197Y-80626134D01*
X184178708Y-80633688D01*
X184184309Y-80656325D01*
X184190892Y-80696115D01*
X184197183Y-80745166D01*
X184198170Y-80754215D01*
X184211798Y-80832996D01*
X184234946Y-80890136D01*
X184269752Y-80928030D01*
X184318354Y-80949079D01*
X184377718Y-80955635D01*
X184445198Y-80946577D01*
X184498188Y-80917164D01*
X184536783Y-80867278D01*
X184561081Y-80796800D01*
X184570667Y-80718565D01*
X184570552Y-80654766D01*
X184561845Y-80603016D01*
X184549825Y-80567673D01*
X184528880Y-80523017D01*
X184504574Y-80481747D01*
X184493876Y-80467079D01*
X184463084Y-80429357D01*
X184417049Y-80474852D01*
X184371013Y-80520347D01*
X184405243Y-80572072D01*
X184430952Y-80623952D01*
X184444399Y-80679351D01*
X184445818Y-80732605D01*
X184435443Y-80778049D01*
X184413507Y-80810016D01*
X184394998Y-80820338D01*
X184365314Y-80818789D01*
X184342615Y-80793140D01*
X184326940Y-80743460D01*
X184319695Y-80689031D01*
X184305873Y-80605264D01*
X184279796Y-80543033D01*
X184240699Y-80501507D01*
X184187820Y-80479853D01*
X184125126Y-80476853D01*
X184059642Y-80491671D01*
X184010144Y-80525454D01*
X183976408Y-80578505D01*
X183958207Y-80651126D01*
X183954639Y-80704928D01*
X183956452Y-80764017D01*
G36*
X183966055Y-81360762D02*
X184000692Y-81424363D01*
X184055372Y-81474123D01*
X184099842Y-81497568D01*
X184139121Y-81507634D01*
X184195116Y-81514156D01*
X184259621Y-81516951D01*
X184324429Y-81515836D01*
X184381334Y-81510626D01*
X184411727Y-81504541D01*
X184453306Y-81484014D01*
X184497468Y-81448463D01*
X184536087Y-81405619D01*
X184561034Y-81363211D01*
X184561430Y-81362177D01*
X184572331Y-81309553D01*
X184572601Y-81247188D01*
X184562676Y-81187924D01*
X184554722Y-81165040D01*
X184521300Y-81106102D01*
X184477511Y-81063890D01*
X184419538Y-81036156D01*
X184343565Y-81020651D01*
X184303771Y-81017143D01*
X184253766Y-81017590D01*
X184253766Y-81152376D01*
X184326732Y-81156917D01*
X184382334Y-81169986D01*
X184417861Y-81190756D01*
X184428020Y-81205552D01*
X184435104Y-81243464D01*
X184433007Y-81288527D01*
X184422812Y-81327487D01*
X184417204Y-81337704D01*
X184384538Y-81364659D01*
X184334545Y-81382451D01*
X184273705Y-81390024D01*
X184208497Y-81386325D01*
X184169253Y-81378057D01*
X184123805Y-81354320D01*
X184095396Y-81316849D01*
X184085573Y-81271720D01*
X184095887Y-81225011D01*
X184121112Y-81189132D01*
X184141925Y-81170277D01*
X184162439Y-81159272D01*
X184190203Y-81154026D01*
X184232762Y-81152449D01*
X184253766Y-81152376D01*
X184253766Y-81017590D01*
X184197580Y-81018094D01*
X184110501Y-81035388D01*
X184042530Y-81069029D01*
X183993664Y-81119018D01*
X183963899Y-81185356D01*
X183960448Y-81199601D01*
X183952345Y-81285210D01*
X183966055Y-81360762D01*
X183966055Y-81360762D01*
G37*
X183966055Y-81360762D02*
X184000692Y-81424363D01*
X184055372Y-81474123D01*
X184099842Y-81497568D01*
X184139121Y-81507634D01*
X184195116Y-81514156D01*
X184259621Y-81516951D01*
X184324429Y-81515836D01*
X184381334Y-81510626D01*
X184411727Y-81504541D01*
X184453306Y-81484014D01*
X184497468Y-81448463D01*
X184536087Y-81405619D01*
X184561034Y-81363211D01*
X184561430Y-81362177D01*
X184572331Y-81309553D01*
X184572601Y-81247188D01*
X184562676Y-81187924D01*
X184554722Y-81165040D01*
X184521300Y-81106102D01*
X184477511Y-81063890D01*
X184419538Y-81036156D01*
X184343565Y-81020651D01*
X184303771Y-81017143D01*
X184253766Y-81017590D01*
X184253766Y-81152376D01*
X184326732Y-81156917D01*
X184382334Y-81169986D01*
X184417861Y-81190756D01*
X184428020Y-81205552D01*
X184435104Y-81243464D01*
X184433007Y-81288527D01*
X184422812Y-81327487D01*
X184417204Y-81337704D01*
X184384538Y-81364659D01*
X184334545Y-81382451D01*
X184273705Y-81390024D01*
X184208497Y-81386325D01*
X184169253Y-81378057D01*
X184123805Y-81354320D01*
X184095396Y-81316849D01*
X184085573Y-81271720D01*
X184095887Y-81225011D01*
X184121112Y-81189132D01*
X184141925Y-81170277D01*
X184162439Y-81159272D01*
X184190203Y-81154026D01*
X184232762Y-81152449D01*
X184253766Y-81152376D01*
X184253766Y-81017590D01*
X184197580Y-81018094D01*
X184110501Y-81035388D01*
X184042530Y-81069029D01*
X183993664Y-81119018D01*
X183963899Y-81185356D01*
X183960448Y-81199601D01*
X183952345Y-81285210D01*
X183966055Y-81360762D01*
G36*
X184154342Y-81743367D02*
X184246563Y-81744555D01*
X184316610Y-81748897D01*
X184367381Y-81757558D01*
X184401772Y-81771704D01*
X184422679Y-81792500D01*
X184433000Y-81821110D01*
X184435636Y-81856535D01*
X184432682Y-81893636D01*
X184421889Y-81921818D01*
X184400360Y-81942243D01*
X184365199Y-81956079D01*
X184313510Y-81964491D01*
X184242394Y-81968643D01*
X184154342Y-81969703D01*
X183958614Y-81969703D01*
X183958614Y-82108020D01*
X184562179Y-82108020D01*
X184562179Y-82038862D01*
X184560489Y-81997170D01*
X184554556Y-81975701D01*
X184543293Y-81969703D01*
X184533261Y-81966091D01*
X184535383Y-81951714D01*
X184549580Y-81922736D01*
X184571480Y-81856319D01*
X184569928Y-81785875D01*
X184546147Y-81718377D01*
X184527362Y-81686233D01*
X184507022Y-81661715D01*
X184481573Y-81643804D01*
X184447458Y-81631479D01*
X184401121Y-81623723D01*
X184339007Y-81619516D01*
X184257561Y-81617840D01*
X184194578Y-81617624D01*
X183958614Y-81617624D01*
X183958614Y-81743367D01*
X184154342Y-81743367D01*
X184154342Y-81743367D01*
G37*
X184154342Y-81743367D02*
X184246563Y-81744555D01*
X184316610Y-81748897D01*
X184367381Y-81757558D01*
X184401772Y-81771704D01*
X184422679Y-81792500D01*
X184433000Y-81821110D01*
X184435636Y-81856535D01*
X184432682Y-81893636D01*
X184421889Y-81921818D01*
X184400360Y-81942243D01*
X184365199Y-81956079D01*
X184313510Y-81964491D01*
X184242394Y-81968643D01*
X184154342Y-81969703D01*
X183958614Y-81969703D01*
X183958614Y-82108020D01*
X184562179Y-82108020D01*
X184562179Y-82038862D01*
X184560489Y-81997170D01*
X184554556Y-81975701D01*
X184543293Y-81969703D01*
X184533261Y-81966091D01*
X184535383Y-81951714D01*
X184549580Y-81922736D01*
X184571480Y-81856319D01*
X184569928Y-81785875D01*
X184546147Y-81718377D01*
X184527362Y-81686233D01*
X184507022Y-81661715D01*
X184481573Y-81643804D01*
X184447458Y-81631479D01*
X184401121Y-81623723D01*
X184339007Y-81619516D01*
X184257561Y-81617840D01*
X184194578Y-81617624D01*
X183958614Y-81617624D01*
X183958614Y-81743367D01*
X184154342Y-81743367D01*
G36*
X183963880Y-82967226D02*
X183994830Y-83040080D01*
X184009895Y-83063027D01*
X184033048Y-83092354D01*
X184051253Y-83110764D01*
X184057183Y-83113961D01*
X184070340Y-83104935D01*
X184092667Y-83081837D01*
X184108250Y-83063344D01*
X184148926Y-83012728D01*
X184115295Y-82972760D01*
X184093584Y-82941874D01*
X184086090Y-82911759D01*
X184087920Y-82877292D01*
X184101528Y-82822561D01*
X184129772Y-82784886D01*
X184175433Y-82761991D01*
X184241289Y-82751597D01*
X184241331Y-82751595D01*
X184314939Y-82752494D01*
X184368946Y-82766463D01*
X184405716Y-82794328D01*
X184418168Y-82813325D01*
X184433673Y-82863776D01*
X184433683Y-82917663D01*
X184418638Y-82964546D01*
X184411287Y-82975644D01*
X184392511Y-83003476D01*
X184389434Y-83025236D01*
X184403409Y-83048704D01*
X184428510Y-83074649D01*
X184470880Y-83115716D01*
X184508464Y-83070121D01*
X184550882Y-82999674D01*
X184571785Y-82920233D01*
X184570272Y-82837215D01*
X184556411Y-82782694D01*
X184522135Y-82718970D01*
X184468212Y-82668005D01*
X184430149Y-82644851D01*
X184375536Y-82626099D01*
X184306369Y-82616715D01*
X184231407Y-82616643D01*
X184159409Y-82625824D01*
X184099137Y-82644199D01*
X184092958Y-82647093D01*
X184032351Y-82689952D01*
X183988224Y-82747979D01*
X183961493Y-82816591D01*
X183953073Y-82891201D01*
X183963880Y-82967226D01*
X183963880Y-82967226D01*
G37*
X183963880Y-82967226D02*
X183994830Y-83040080D01*
X184009895Y-83063027D01*
X184033048Y-83092354D01*
X184051253Y-83110764D01*
X184057183Y-83113961D01*
X184070340Y-83104935D01*
X184092667Y-83081837D01*
X184108250Y-83063344D01*
X184148926Y-83012728D01*
X184115295Y-82972760D01*
X184093584Y-82941874D01*
X184086090Y-82911759D01*
X184087920Y-82877292D01*
X184101528Y-82822561D01*
X184129772Y-82784886D01*
X184175433Y-82761991D01*
X184241289Y-82751597D01*
X184241331Y-82751595D01*
X184314939Y-82752494D01*
X184368946Y-82766463D01*
X184405716Y-82794328D01*
X184418168Y-82813325D01*
X184433673Y-82863776D01*
X184433683Y-82917663D01*
X184418638Y-82964546D01*
X184411287Y-82975644D01*
X184392511Y-83003476D01*
X184389434Y-83025236D01*
X184403409Y-83048704D01*
X184428510Y-83074649D01*
X184470880Y-83115716D01*
X184508464Y-83070121D01*
X184550882Y-82999674D01*
X184571785Y-82920233D01*
X184570272Y-82837215D01*
X184556411Y-82782694D01*
X184522135Y-82718970D01*
X184468212Y-82668005D01*
X184430149Y-82644851D01*
X184375536Y-82626099D01*
X184306369Y-82616715D01*
X184231407Y-82616643D01*
X184159409Y-82625824D01*
X184099137Y-82644199D01*
X184092958Y-82647093D01*
X184032351Y-82689952D01*
X183988224Y-82747979D01*
X183961493Y-82816591D01*
X183953073Y-82891201D01*
X183963880Y-82967226D01*
G36*
X183956457Y-83427898D02*
X183964279Y-83460096D01*
X183992921Y-83521825D01*
X184036667Y-83574610D01*
X184089117Y-83611141D01*
X184100893Y-83616160D01*
X184131740Y-83623045D01*
X184177371Y-83627864D01*
X184223492Y-83629505D01*
X184310693Y-83629505D01*
X184310693Y-83447178D01*
X184310978Y-83371979D01*
X184312704Y-83319003D01*
X184317181Y-83285325D01*
X184325720Y-83268020D01*
X184339630Y-83264163D01*
X184360222Y-83270829D01*
X184384315Y-83282770D01*
X184424525Y-83316080D01*
X184444558Y-83362368D01*
X184443905Y-83418944D01*
X184422101Y-83483031D01*
X184395193Y-83538417D01*
X184431532Y-83584375D01*
X184467872Y-83630333D01*
X184507819Y-83587096D01*
X184545563Y-83529374D01*
X184568320Y-83458386D01*
X184574688Y-83382029D01*
X184563268Y-83308199D01*
X184559393Y-83296287D01*
X184525506Y-83231399D01*
X184474986Y-83183130D01*
X184406325Y-83150465D01*
X184318014Y-83132385D01*
X184316121Y-83132175D01*
X184219878Y-83130556D01*
X184185542Y-83137100D01*
X184185542Y-83264852D01*
X184190822Y-83276584D01*
X184194867Y-83308438D01*
X184197176Y-83355397D01*
X184197525Y-83385154D01*
X184197306Y-83440648D01*
X184195916Y-83475346D01*
X184192251Y-83493601D01*
X184185210Y-83499766D01*
X184173690Y-83498195D01*
X184169233Y-83496878D01*
X184127355Y-83474382D01*
X184093604Y-83439003D01*
X184078773Y-83407780D01*
X184079668Y-83366301D01*
X184098164Y-83324269D01*
X184128786Y-83289012D01*
X184166062Y-83267854D01*
X184185542Y-83264852D01*
X184185542Y-83137100D01*
X184135229Y-83146690D01*
X184064191Y-83178698D01*
X184008779Y-83224701D01*
X183971009Y-83282821D01*
X183952896Y-83351180D01*
X183956457Y-83427898D01*
X183956457Y-83427898D01*
G37*
X183956457Y-83427898D02*
X183964279Y-83460096D01*
X183992921Y-83521825D01*
X184036667Y-83574610D01*
X184089117Y-83611141D01*
X184100893Y-83616160D01*
X184131740Y-83623045D01*
X184177371Y-83627864D01*
X184223492Y-83629505D01*
X184310693Y-83629505D01*
X184310693Y-83447178D01*
X184310978Y-83371979D01*
X184312704Y-83319003D01*
X184317181Y-83285325D01*
X184325720Y-83268020D01*
X184339630Y-83264163D01*
X184360222Y-83270829D01*
X184384315Y-83282770D01*
X184424525Y-83316080D01*
X184444558Y-83362368D01*
X184443905Y-83418944D01*
X184422101Y-83483031D01*
X184395193Y-83538417D01*
X184431532Y-83584375D01*
X184467872Y-83630333D01*
X184507819Y-83587096D01*
X184545563Y-83529374D01*
X184568320Y-83458386D01*
X184574688Y-83382029D01*
X184563268Y-83308199D01*
X184559393Y-83296287D01*
X184525506Y-83231399D01*
X184474986Y-83183130D01*
X184406325Y-83150465D01*
X184318014Y-83132385D01*
X184316121Y-83132175D01*
X184219878Y-83130556D01*
X184185542Y-83137100D01*
X184185542Y-83264852D01*
X184190822Y-83276584D01*
X184194867Y-83308438D01*
X184197176Y-83355397D01*
X184197525Y-83385154D01*
X184197306Y-83440648D01*
X184195916Y-83475346D01*
X184192251Y-83493601D01*
X184185210Y-83499766D01*
X184173690Y-83498195D01*
X184169233Y-83496878D01*
X184127355Y-83474382D01*
X184093604Y-83439003D01*
X184078773Y-83407780D01*
X184079668Y-83366301D01*
X184098164Y-83324269D01*
X184128786Y-83289012D01*
X184166062Y-83267854D01*
X184185542Y-83264852D01*
X184185542Y-83137100D01*
X184135229Y-83146690D01*
X184064191Y-83178698D01*
X184008779Y-83224701D01*
X183971009Y-83282821D01*
X183952896Y-83351180D01*
X183956457Y-83427898D01*
G36*
X183969002Y-79995988D02*
X183983950Y-80027283D01*
X184005541Y-80057591D01*
X184030391Y-80080682D01*
X184062087Y-80097500D01*
X184104214Y-80108994D01*
X184160358Y-80116109D01*
X184234106Y-80119793D01*
X184329044Y-80120992D01*
X184338985Y-80121011D01*
X184562179Y-80121287D01*
X184562179Y-79982970D01*
X184356418Y-79982970D01*
X184280189Y-79982872D01*
X184224939Y-79982191D01*
X184186501Y-79980349D01*
X184160706Y-79976767D01*
X184143384Y-79970868D01*
X184130368Y-79962073D01*
X184117507Y-79949820D01*
X184089873Y-79906953D01*
X184084745Y-79860157D01*
X184102217Y-79815576D01*
X184115221Y-79800072D01*
X184127447Y-79788690D01*
X184140540Y-79780519D01*
X184158615Y-79775026D01*
X184185787Y-79771680D01*
X184226170Y-79769949D01*
X184283879Y-79769303D01*
X184354132Y-79769208D01*
X184562179Y-79769208D01*
X184562179Y-79630891D01*
X183958614Y-79630891D01*
X183958614Y-79700050D01*
X183960256Y-79741572D01*
X183966087Y-79762994D01*
X183977461Y-79769205D01*
X183977798Y-79769208D01*
X183988938Y-79772090D01*
X183987674Y-79784801D01*
X183975434Y-79810074D01*
X183957424Y-79867395D01*
X183955421Y-79932963D01*
X183969002Y-79995988D01*
X183969002Y-79995988D01*
G37*
X183969002Y-79995988D02*
X183983950Y-80027283D01*
X184005541Y-80057591D01*
X184030391Y-80080682D01*
X184062087Y-80097500D01*
X184104214Y-80108994D01*
X184160358Y-80116109D01*
X184234106Y-80119793D01*
X184329044Y-80120992D01*
X184338985Y-80121011D01*
X184562179Y-80121287D01*
X184562179Y-79982970D01*
X184356418Y-79982970D01*
X184280189Y-79982872D01*
X184224939Y-79982191D01*
X184186501Y-79980349D01*
X184160706Y-79976767D01*
X184143384Y-79970868D01*
X184130368Y-79962073D01*
X184117507Y-79949820D01*
X184089873Y-79906953D01*
X184084745Y-79860157D01*
X184102217Y-79815576D01*
X184115221Y-79800072D01*
X184127447Y-79788690D01*
X184140540Y-79780519D01*
X184158615Y-79775026D01*
X184185787Y-79771680D01*
X184226170Y-79769949D01*
X184283879Y-79769303D01*
X184354132Y-79769208D01*
X184562179Y-79769208D01*
X184562179Y-79630891D01*
X183958614Y-79630891D01*
X183958614Y-79700050D01*
X183960256Y-79741572D01*
X183966087Y-79762994D01*
X183977461Y-79769205D01*
X183977798Y-79769208D01*
X183988938Y-79772090D01*
X183987674Y-79784801D01*
X183975434Y-79810074D01*
X183957424Y-79867395D01*
X183955421Y-79932963D01*
X183969002Y-79995988D01*
G36*
X183958030Y-82549460D02*
X183971245Y-82592711D01*
X183987941Y-82620558D01*
X184001145Y-82629629D01*
X184016797Y-82627132D01*
X184041385Y-82610931D01*
X184058800Y-82597232D01*
X184090283Y-82568992D01*
X184103529Y-82547775D01*
X184102664Y-82529688D01*
X184089010Y-82476035D01*
X184089630Y-82436630D01*
X184105104Y-82404632D01*
X184114161Y-82393890D01*
X184146027Y-82359505D01*
X184562179Y-82359505D01*
X184562179Y-82221188D01*
X183958614Y-82221188D01*
X183958614Y-82290347D01*
X183960256Y-82331869D01*
X183966087Y-82353291D01*
X183977461Y-82359502D01*
X183977798Y-82359505D01*
X183989713Y-82362439D01*
X183988159Y-82375704D01*
X183979563Y-82394084D01*
X183963568Y-82432046D01*
X183953945Y-82462872D01*
X183951478Y-82502536D01*
X183958030Y-82549460D01*
X183958030Y-82549460D01*
G37*
X183958030Y-82549460D02*
X183971245Y-82592711D01*
X183987941Y-82620558D01*
X184001145Y-82629629D01*
X184016797Y-82627132D01*
X184041385Y-82610931D01*
X184058800Y-82597232D01*
X184090283Y-82568992D01*
X184103529Y-82547775D01*
X184102664Y-82529688D01*
X184089010Y-82476035D01*
X184089630Y-82436630D01*
X184105104Y-82404632D01*
X184114161Y-82393890D01*
X184146027Y-82359505D01*
X184562179Y-82359505D01*
X184562179Y-82221188D01*
X183958614Y-82221188D01*
X183958614Y-82290347D01*
X183960256Y-82331869D01*
X183966087Y-82353291D01*
X183977461Y-82359502D01*
X183977798Y-82359505D01*
X183989713Y-82362439D01*
X183988159Y-82375704D01*
X183979563Y-82394084D01*
X183963568Y-82432046D01*
X183953945Y-82462872D01*
X183951478Y-82502536D01*
X183958030Y-82549460D01*
G36*
X179790018Y-81126964D02*
X180091570Y-81183812D01*
X180264512Y-81603338D01*
X180093395Y-81854984D01*
X180045750Y-81925458D01*
X180003210Y-81989163D01*
X179967715Y-82043126D01*
X179941210Y-82084373D01*
X179925636Y-82109934D01*
X179922278Y-82116895D01*
X179930914Y-82129435D01*
X179954792Y-82156231D01*
X179990859Y-82194280D01*
X180036067Y-82240579D01*
X180087364Y-82292123D01*
X180141701Y-82345909D01*
X180196028Y-82398935D01*
X180247295Y-82448195D01*
X180292451Y-82490687D01*
X180328446Y-82523407D01*
X180352230Y-82543351D01*
X180360190Y-82548119D01*
X180374865Y-82541257D01*
X180407014Y-82522020D01*
X180453492Y-82492430D01*
X180511156Y-82454510D01*
X180576860Y-82410282D01*
X180614336Y-82384654D01*
X180682768Y-82337941D01*
X180744520Y-82296432D01*
X180796519Y-82262140D01*
X180835692Y-82237080D01*
X180858965Y-82223264D01*
X180863855Y-82221188D01*
X180877755Y-82225895D01*
X180910150Y-82238723D01*
X180956485Y-82257738D01*
X181012206Y-82281003D01*
X181072758Y-82306584D01*
X181133586Y-82332545D01*
X181190136Y-82356950D01*
X181237852Y-82377863D01*
X181272181Y-82393349D01*
X181288568Y-82401472D01*
X181289212Y-82401952D01*
X181292341Y-82414707D01*
X181299321Y-82448677D01*
X181309467Y-82500340D01*
X181322092Y-82566176D01*
X181336509Y-82642664D01*
X181344823Y-82687290D01*
X181360384Y-82769021D01*
X181375192Y-82842843D01*
X181388436Y-82905021D01*
X181399305Y-82951822D01*
X181406989Y-82979509D01*
X181409427Y-82985074D01*
X181425930Y-82990526D01*
X181463200Y-82994924D01*
X181516880Y-82998272D01*
X181582612Y-83000574D01*
X181656037Y-83001832D01*
X181732796Y-83002048D01*
X181808532Y-83001227D01*
X181878886Y-82999371D01*
X181939500Y-82996482D01*
X181986016Y-82992565D01*
X182014075Y-82987622D01*
X182019916Y-82984657D01*
X182026917Y-82966934D01*
X182036927Y-82929381D01*
X182048769Y-82876964D01*
X182061267Y-82814652D01*
X182065310Y-82792900D01*
X182084520Y-82688024D01*
X182099991Y-82605180D01*
X182112337Y-82541630D01*
X182122173Y-82494637D01*
X182130114Y-82461463D01*
X182136776Y-82439371D01*
X182142773Y-82425624D01*
X182148719Y-82417484D01*
X182149894Y-82416345D01*
X182168826Y-82404977D01*
X182205669Y-82387635D01*
X182255913Y-82366050D01*
X182315046Y-82341954D01*
X182378556Y-82317079D01*
X182441932Y-82293157D01*
X182500662Y-82271919D01*
X182550235Y-82255097D01*
X182586139Y-82244422D01*
X182603862Y-82241627D01*
X182604483Y-82241860D01*
X182618970Y-82251331D01*
X182650844Y-82272818D01*
X182696789Y-82304063D01*
X182753485Y-82342807D01*
X182817617Y-82386793D01*
X182835842Y-82399319D01*
X182901914Y-82443984D01*
X182962200Y-82483288D01*
X183013235Y-82515088D01*
X183051560Y-82537245D01*
X183073711Y-82547617D01*
X183076432Y-82548119D01*
X183090736Y-82539405D01*
X183119072Y-82515325D01*
X183158396Y-82478976D01*
X183205661Y-82433453D01*
X183257823Y-82381852D01*
X183311835Y-82327267D01*
X183364653Y-82272794D01*
X183413231Y-82221529D01*
X183454523Y-82176567D01*
X183485485Y-82141004D01*
X183503070Y-82117935D01*
X183505941Y-82111554D01*
X183499178Y-82096699D01*
X183480939Y-82066286D01*
X183454297Y-82025268D01*
X183432852Y-81993709D01*
X183393503Y-81936525D01*
X183347171Y-81868806D01*
X183300913Y-81800880D01*
X183276155Y-81764361D01*
X183192547Y-81640752D01*
X183248650Y-81536991D01*
X183273228Y-81489720D01*
X183292331Y-81449523D01*
X183303227Y-81422326D01*
X183304743Y-81415402D01*
X183293549Y-81407077D01*
X183261917Y-81390654D01*
X183212765Y-81367357D01*
X183149010Y-81338414D01*
X183073571Y-81305050D01*
X182989364Y-81268491D01*
X182899308Y-81229964D01*
X182806321Y-81190694D01*
X182713320Y-81151908D01*
X182623223Y-81114830D01*
X182538948Y-81080689D01*
X182463413Y-81050708D01*
X182399534Y-81026116D01*
X182350231Y-81008136D01*
X182318421Y-80997997D01*
X182307496Y-80996366D01*
X182293561Y-81009291D01*
X182270940Y-81037589D01*
X182244333Y-81075346D01*
X182242228Y-81078515D01*
X182164114Y-81176100D01*
X182072982Y-81254786D01*
X181971745Y-81313891D01*
X181863318Y-81352732D01*
X181750614Y-81370628D01*
X181636548Y-81366897D01*
X181524034Y-81340857D01*
X181415985Y-81291825D01*
X181392345Y-81277400D01*
X181296887Y-81202369D01*
X181220232Y-81113730D01*
X181162780Y-81014549D01*
X181124929Y-80907895D01*
X181107078Y-80796836D01*
X181109625Y-80684439D01*
X181132970Y-80573773D01*
X181177510Y-80467906D01*
X181243645Y-80369905D01*
X181270487Y-80339590D01*
X181354512Y-80262438D01*
X181442966Y-80206218D01*
X181542115Y-80167653D01*
X181640303Y-80146174D01*
X181750697Y-80140872D01*
X181861640Y-80158552D01*
X181969381Y-80197419D01*
X182070169Y-80255677D01*
X182160256Y-80331531D01*
X182235892Y-80423183D01*
X182243864Y-80435228D01*
X182269974Y-80473389D01*
X182292595Y-80502399D01*
X182307039Y-80516268D01*
X182307496Y-80516469D01*
X182323121Y-80513492D01*
X182358582Y-80501689D01*
X182410962Y-80482286D01*
X182477345Y-80456512D01*
X182554814Y-80425591D01*
X182640450Y-80390751D01*
X182731337Y-80353217D01*
X182824559Y-80314217D01*
X182917197Y-80274977D01*
X183006335Y-80236724D01*
X183089055Y-80200683D01*
X183162441Y-80168083D01*
X183223575Y-80140148D01*
X183269541Y-80118105D01*
X183297421Y-80103182D01*
X183304743Y-80097172D01*
X183299041Y-80078809D01*
X183283749Y-80044448D01*
X183261599Y-80000016D01*
X183248650Y-79975583D01*
X183192547Y-79871822D01*
X183276155Y-79748213D01*
X183318987Y-79685114D01*
X183366122Y-79616030D01*
X183410503Y-79551293D01*
X183432852Y-79518866D01*
X183463477Y-79473259D01*
X183487747Y-79434640D01*
X183502587Y-79408048D01*
X183505724Y-79399410D01*
X183497261Y-79386839D01*
X183473636Y-79359016D01*
X183437302Y-79318639D01*
X183390711Y-79268405D01*
X183336317Y-79211012D01*
X183301392Y-79174714D01*
X183238996Y-79111210D01*
X183183188Y-79056327D01*
X183136354Y-79012286D01*
X183100882Y-78981305D01*
X183079161Y-78965602D01*
X183074752Y-78964095D01*
X183057985Y-78971086D01*
X183024082Y-78990406D01*
X182976476Y-79019909D01*
X182918599Y-79057455D01*
X182853884Y-79100900D01*
X182835842Y-79113255D01*
X182770267Y-79158273D01*
X182711228Y-79198660D01*
X182662042Y-79232160D01*
X182626028Y-79256514D01*
X182606502Y-79269464D01*
X182604483Y-79270715D01*
X182588922Y-79268844D01*
X182554709Y-79258913D01*
X182506355Y-79242653D01*
X182448371Y-79221795D01*
X182385270Y-79198073D01*
X182321563Y-79173216D01*
X182261761Y-79148958D01*
X182210376Y-79127029D01*
X182171919Y-79109162D01*
X182150902Y-79097087D01*
X182149894Y-79096229D01*
X182143888Y-79088846D01*
X182137948Y-79076375D01*
X182131460Y-79056080D01*
X182123809Y-79025222D01*
X182114380Y-78981066D01*
X182102559Y-78920874D01*
X182087729Y-78841907D01*
X182069277Y-78741430D01*
X182065310Y-78719675D01*
X182052853Y-78655198D01*
X182040666Y-78598989D01*
X182029926Y-78556013D01*
X182021809Y-78531240D01*
X182019916Y-78527918D01*
X182003138Y-78522444D01*
X181965645Y-78517994D01*
X181911794Y-78514572D01*
X181845944Y-78512181D01*
X181772453Y-78510823D01*
X181695680Y-78510501D01*
X181619983Y-78511219D01*
X181549720Y-78512979D01*
X181489250Y-78515784D01*
X181442930Y-78519638D01*
X181415119Y-78524543D01*
X181409427Y-78527500D01*
X181403686Y-78543963D01*
X181394345Y-78581449D01*
X181382215Y-78636225D01*
X181368107Y-78704555D01*
X181352830Y-78782706D01*
X181344823Y-78825284D01*
X181329721Y-78906071D01*
X181316040Y-78978113D01*
X181304467Y-79037889D01*
X181295687Y-79081879D01*
X181290387Y-79106561D01*
X181289212Y-79110623D01*
X181275965Y-79117489D01*
X181244057Y-79132002D01*
X181198047Y-79152229D01*
X181142492Y-79176234D01*
X181081953Y-79202082D01*
X181020986Y-79227840D01*
X180964151Y-79251573D01*
X180916006Y-79271346D01*
X180881110Y-79285224D01*
X180864021Y-79291274D01*
X180863274Y-79291386D01*
X180849793Y-79284528D01*
X180818770Y-79265302D01*
X180773289Y-79235728D01*
X180716432Y-79197827D01*
X180651283Y-79153620D01*
X180613862Y-79127921D01*
X180545247Y-79081093D01*
X180482952Y-79039501D01*
X180430129Y-79005175D01*
X180389927Y-78980143D01*
X180365500Y-78966435D01*
X180360024Y-78964456D01*
X180347278Y-78972966D01*
X180320063Y-78996493D01*
X180281428Y-79032032D01*
X180234423Y-79076577D01*
X180182095Y-79127123D01*
X180127495Y-79180664D01*
X180073670Y-79234195D01*
X180023670Y-79284711D01*
X179980543Y-79329206D01*
X179947339Y-79364675D01*
X179927106Y-79388113D01*
X179922278Y-79395954D01*
X179929067Y-79408720D01*
X179948142Y-79439256D01*
X179977561Y-79484590D01*
X180015381Y-79541756D01*
X180059661Y-79607784D01*
X180093395Y-79657590D01*
X180264512Y-79909236D01*
X180178041Y-80118999D01*
X180091570Y-80328763D01*
X179790018Y-80385611D01*
X179488466Y-80442460D01*
X179488466Y-81070115D01*
X179790018Y-81126964D01*
X179790018Y-81126964D01*
G37*
X179790018Y-81126964D02*
X180091570Y-81183812D01*
X180264512Y-81603338D01*
X180093395Y-81854984D01*
X180045750Y-81925458D01*
X180003210Y-81989163D01*
X179967715Y-82043126D01*
X179941210Y-82084373D01*
X179925636Y-82109934D01*
X179922278Y-82116895D01*
X179930914Y-82129435D01*
X179954792Y-82156231D01*
X179990859Y-82194280D01*
X180036067Y-82240579D01*
X180087364Y-82292123D01*
X180141701Y-82345909D01*
X180196028Y-82398935D01*
X180247295Y-82448195D01*
X180292451Y-82490687D01*
X180328446Y-82523407D01*
X180352230Y-82543351D01*
X180360190Y-82548119D01*
X180374865Y-82541257D01*
X180407014Y-82522020D01*
X180453492Y-82492430D01*
X180511156Y-82454510D01*
X180576860Y-82410282D01*
X180614336Y-82384654D01*
X180682768Y-82337941D01*
X180744520Y-82296432D01*
X180796519Y-82262140D01*
X180835692Y-82237080D01*
X180858965Y-82223264D01*
X180863855Y-82221188D01*
X180877755Y-82225895D01*
X180910150Y-82238723D01*
X180956485Y-82257738D01*
X181012206Y-82281003D01*
X181072758Y-82306584D01*
X181133586Y-82332545D01*
X181190136Y-82356950D01*
X181237852Y-82377863D01*
X181272181Y-82393349D01*
X181288568Y-82401472D01*
X181289212Y-82401952D01*
X181292341Y-82414707D01*
X181299321Y-82448677D01*
X181309467Y-82500340D01*
X181322092Y-82566176D01*
X181336509Y-82642664D01*
X181344823Y-82687290D01*
X181360384Y-82769021D01*
X181375192Y-82842843D01*
X181388436Y-82905021D01*
X181399305Y-82951822D01*
X181406989Y-82979509D01*
X181409427Y-82985074D01*
X181425930Y-82990526D01*
X181463200Y-82994924D01*
X181516880Y-82998272D01*
X181582612Y-83000574D01*
X181656037Y-83001832D01*
X181732796Y-83002048D01*
X181808532Y-83001227D01*
X181878886Y-82999371D01*
X181939500Y-82996482D01*
X181986016Y-82992565D01*
X182014075Y-82987622D01*
X182019916Y-82984657D01*
X182026917Y-82966934D01*
X182036927Y-82929381D01*
X182048769Y-82876964D01*
X182061267Y-82814652D01*
X182065310Y-82792900D01*
X182084520Y-82688024D01*
X182099991Y-82605180D01*
X182112337Y-82541630D01*
X182122173Y-82494637D01*
X182130114Y-82461463D01*
X182136776Y-82439371D01*
X182142773Y-82425624D01*
X182148719Y-82417484D01*
X182149894Y-82416345D01*
X182168826Y-82404977D01*
X182205669Y-82387635D01*
X182255913Y-82366050D01*
X182315046Y-82341954D01*
X182378556Y-82317079D01*
X182441932Y-82293157D01*
X182500662Y-82271919D01*
X182550235Y-82255097D01*
X182586139Y-82244422D01*
X182603862Y-82241627D01*
X182604483Y-82241860D01*
X182618970Y-82251331D01*
X182650844Y-82272818D01*
X182696789Y-82304063D01*
X182753485Y-82342807D01*
X182817617Y-82386793D01*
X182835842Y-82399319D01*
X182901914Y-82443984D01*
X182962200Y-82483288D01*
X183013235Y-82515088D01*
X183051560Y-82537245D01*
X183073711Y-82547617D01*
X183076432Y-82548119D01*
X183090736Y-82539405D01*
X183119072Y-82515325D01*
X183158396Y-82478976D01*
X183205661Y-82433453D01*
X183257823Y-82381852D01*
X183311835Y-82327267D01*
X183364653Y-82272794D01*
X183413231Y-82221529D01*
X183454523Y-82176567D01*
X183485485Y-82141004D01*
X183503070Y-82117935D01*
X183505941Y-82111554D01*
X183499178Y-82096699D01*
X183480939Y-82066286D01*
X183454297Y-82025268D01*
X183432852Y-81993709D01*
X183393503Y-81936525D01*
X183347171Y-81868806D01*
X183300913Y-81800880D01*
X183276155Y-81764361D01*
X183192547Y-81640752D01*
X183248650Y-81536991D01*
X183273228Y-81489720D01*
X183292331Y-81449523D01*
X183303227Y-81422326D01*
X183304743Y-81415402D01*
X183293549Y-81407077D01*
X183261917Y-81390654D01*
X183212765Y-81367357D01*
X183149010Y-81338414D01*
X183073571Y-81305050D01*
X182989364Y-81268491D01*
X182899308Y-81229964D01*
X182806321Y-81190694D01*
X182713320Y-81151908D01*
X182623223Y-81114830D01*
X182538948Y-81080689D01*
X182463413Y-81050708D01*
X182399534Y-81026116D01*
X182350231Y-81008136D01*
X182318421Y-80997997D01*
X182307496Y-80996366D01*
X182293561Y-81009291D01*
X182270940Y-81037589D01*
X182244333Y-81075346D01*
X182242228Y-81078515D01*
X182164114Y-81176100D01*
X182072982Y-81254786D01*
X181971745Y-81313891D01*
X181863318Y-81352732D01*
X181750614Y-81370628D01*
X181636548Y-81366897D01*
X181524034Y-81340857D01*
X181415985Y-81291825D01*
X181392345Y-81277400D01*
X181296887Y-81202369D01*
X181220232Y-81113730D01*
X181162780Y-81014549D01*
X181124929Y-80907895D01*
X181107078Y-80796836D01*
X181109625Y-80684439D01*
X181132970Y-80573773D01*
X181177510Y-80467906D01*
X181243645Y-80369905D01*
X181270487Y-80339590D01*
X181354512Y-80262438D01*
X181442966Y-80206218D01*
X181542115Y-80167653D01*
X181640303Y-80146174D01*
X181750697Y-80140872D01*
X181861640Y-80158552D01*
X181969381Y-80197419D01*
X182070169Y-80255677D01*
X182160256Y-80331531D01*
X182235892Y-80423183D01*
X182243864Y-80435228D01*
X182269974Y-80473389D01*
X182292595Y-80502399D01*
X182307039Y-80516268D01*
X182307496Y-80516469D01*
X182323121Y-80513492D01*
X182358582Y-80501689D01*
X182410962Y-80482286D01*
X182477345Y-80456512D01*
X182554814Y-80425591D01*
X182640450Y-80390751D01*
X182731337Y-80353217D01*
X182824559Y-80314217D01*
X182917197Y-80274977D01*
X183006335Y-80236724D01*
X183089055Y-80200683D01*
X183162441Y-80168083D01*
X183223575Y-80140148D01*
X183269541Y-80118105D01*
X183297421Y-80103182D01*
X183304743Y-80097172D01*
X183299041Y-80078809D01*
X183283749Y-80044448D01*
X183261599Y-80000016D01*
X183248650Y-79975583D01*
X183192547Y-79871822D01*
X183276155Y-79748213D01*
X183318987Y-79685114D01*
X183366122Y-79616030D01*
X183410503Y-79551293D01*
X183432852Y-79518866D01*
X183463477Y-79473259D01*
X183487747Y-79434640D01*
X183502587Y-79408048D01*
X183505724Y-79399410D01*
X183497261Y-79386839D01*
X183473636Y-79359016D01*
X183437302Y-79318639D01*
X183390711Y-79268405D01*
X183336317Y-79211012D01*
X183301392Y-79174714D01*
X183238996Y-79111210D01*
X183183188Y-79056327D01*
X183136354Y-79012286D01*
X183100882Y-78981305D01*
X183079161Y-78965602D01*
X183074752Y-78964095D01*
X183057985Y-78971086D01*
X183024082Y-78990406D01*
X182976476Y-79019909D01*
X182918599Y-79057455D01*
X182853884Y-79100900D01*
X182835842Y-79113255D01*
X182770267Y-79158273D01*
X182711228Y-79198660D01*
X182662042Y-79232160D01*
X182626028Y-79256514D01*
X182606502Y-79269464D01*
X182604483Y-79270715D01*
X182588922Y-79268844D01*
X182554709Y-79258913D01*
X182506355Y-79242653D01*
X182448371Y-79221795D01*
X182385270Y-79198073D01*
X182321563Y-79173216D01*
X182261761Y-79148958D01*
X182210376Y-79127029D01*
X182171919Y-79109162D01*
X182150902Y-79097087D01*
X182149894Y-79096229D01*
X182143888Y-79088846D01*
X182137948Y-79076375D01*
X182131460Y-79056080D01*
X182123809Y-79025222D01*
X182114380Y-78981066D01*
X182102559Y-78920874D01*
X182087729Y-78841907D01*
X182069277Y-78741430D01*
X182065310Y-78719675D01*
X182052853Y-78655198D01*
X182040666Y-78598989D01*
X182029926Y-78556013D01*
X182021809Y-78531240D01*
X182019916Y-78527918D01*
X182003138Y-78522444D01*
X181965645Y-78517994D01*
X181911794Y-78514572D01*
X181845944Y-78512181D01*
X181772453Y-78510823D01*
X181695680Y-78510501D01*
X181619983Y-78511219D01*
X181549720Y-78512979D01*
X181489250Y-78515784D01*
X181442930Y-78519638D01*
X181415119Y-78524543D01*
X181409427Y-78527500D01*
X181403686Y-78543963D01*
X181394345Y-78581449D01*
X181382215Y-78636225D01*
X181368107Y-78704555D01*
X181352830Y-78782706D01*
X181344823Y-78825284D01*
X181329721Y-78906071D01*
X181316040Y-78978113D01*
X181304467Y-79037889D01*
X181295687Y-79081879D01*
X181290387Y-79106561D01*
X181289212Y-79110623D01*
X181275965Y-79117489D01*
X181244057Y-79132002D01*
X181198047Y-79152229D01*
X181142492Y-79176234D01*
X181081953Y-79202082D01*
X181020986Y-79227840D01*
X180964151Y-79251573D01*
X180916006Y-79271346D01*
X180881110Y-79285224D01*
X180864021Y-79291274D01*
X180863274Y-79291386D01*
X180849793Y-79284528D01*
X180818770Y-79265302D01*
X180773289Y-79235728D01*
X180716432Y-79197827D01*
X180651283Y-79153620D01*
X180613862Y-79127921D01*
X180545247Y-79081093D01*
X180482952Y-79039501D01*
X180430129Y-79005175D01*
X180389927Y-78980143D01*
X180365500Y-78966435D01*
X180360024Y-78964456D01*
X180347278Y-78972966D01*
X180320063Y-78996493D01*
X180281428Y-79032032D01*
X180234423Y-79076577D01*
X180182095Y-79127123D01*
X180127495Y-79180664D01*
X180073670Y-79234195D01*
X180023670Y-79284711D01*
X179980543Y-79329206D01*
X179947339Y-79364675D01*
X179927106Y-79388113D01*
X179922278Y-79395954D01*
X179929067Y-79408720D01*
X179948142Y-79439256D01*
X179977561Y-79484590D01*
X180015381Y-79541756D01*
X180059661Y-79607784D01*
X180093395Y-79657590D01*
X180264512Y-79909236D01*
X180178041Y-80118999D01*
X180091570Y-80328763D01*
X179790018Y-80385611D01*
X179488466Y-80442460D01*
X179488466Y-81070115D01*
X179790018Y-81126964D01*
G36*
X127416296Y-92645195D02*
X127441895Y-92790847D01*
X127452382Y-92827600D01*
X127496660Y-92967300D01*
X127634980Y-92958625D01*
X127712238Y-92952955D01*
X127764833Y-92947535D01*
X127778779Y-92944679D01*
X127771383Y-92921212D01*
X127746545Y-92866304D01*
X127721629Y-92815699D01*
X127682700Y-92722231D01*
X127663553Y-92625122D01*
X127659000Y-92516541D01*
X127661025Y-92420320D01*
X127670416Y-92358122D01*
X127692144Y-92313227D01*
X127731180Y-92268916D01*
X127733246Y-92266846D01*
X127818695Y-92207923D01*
X127906544Y-92193455D01*
X127986801Y-92224138D01*
X128012833Y-92247355D01*
X128042866Y-92294852D01*
X128081393Y-92377171D01*
X128122267Y-92480493D01*
X128143374Y-92540825D01*
X128213624Y-92723306D01*
X128289593Y-92861286D01*
X128375823Y-92961048D01*
X128476854Y-93028878D01*
X128505359Y-93041749D01*
X128582817Y-93069929D01*
X128646826Y-93079003D01*
X128722555Y-93070868D01*
X128769327Y-93061646D01*
X128913168Y-93010593D01*
X129024448Y-92923674D01*
X129104265Y-92799256D01*
X129153715Y-92635709D01*
X129172841Y-92461380D01*
X129172949Y-92333592D01*
X129163536Y-92211786D01*
X129148918Y-92129100D01*
X129119755Y-92034720D01*
X129084870Y-91945426D01*
X129071175Y-91916790D01*
X129036375Y-91861133D01*
X129000430Y-91841877D01*
X128949145Y-91846940D01*
X128866117Y-91858594D01*
X128800041Y-91862400D01*
X128728232Y-91862400D01*
X128790484Y-91983050D01*
X128849365Y-92126888D01*
X128884407Y-92277008D01*
X128895243Y-92422259D01*
X128881505Y-92551487D01*
X128842826Y-92653540D01*
X128813819Y-92691089D01*
X128734350Y-92744642D01*
X128654671Y-92749210D01*
X128576983Y-92706549D01*
X128503483Y-92618417D01*
X128436373Y-92486570D01*
X128389020Y-92351666D01*
X128324191Y-92173153D01*
X128248403Y-92040896D01*
X128157404Y-91950793D01*
X128046939Y-91898743D01*
X127912755Y-91880646D01*
X127900300Y-91880542D01*
X127748004Y-91903985D01*
X127617120Y-91971699D01*
X127512994Y-92079764D01*
X127444086Y-92215203D01*
X127417123Y-92337521D01*
X127407950Y-92487468D01*
X127416296Y-92645195D01*
X127416296Y-92645195D01*
G37*
X127416296Y-92645195D02*
X127441895Y-92790847D01*
X127452382Y-92827600D01*
X127496660Y-92967300D01*
X127634980Y-92958625D01*
X127712238Y-92952955D01*
X127764833Y-92947535D01*
X127778779Y-92944679D01*
X127771383Y-92921212D01*
X127746545Y-92866304D01*
X127721629Y-92815699D01*
X127682700Y-92722231D01*
X127663553Y-92625122D01*
X127659000Y-92516541D01*
X127661025Y-92420320D01*
X127670416Y-92358122D01*
X127692144Y-92313227D01*
X127731180Y-92268916D01*
X127733246Y-92266846D01*
X127818695Y-92207923D01*
X127906544Y-92193455D01*
X127986801Y-92224138D01*
X128012833Y-92247355D01*
X128042866Y-92294852D01*
X128081393Y-92377171D01*
X128122267Y-92480493D01*
X128143374Y-92540825D01*
X128213624Y-92723306D01*
X128289593Y-92861286D01*
X128375823Y-92961048D01*
X128476854Y-93028878D01*
X128505359Y-93041749D01*
X128582817Y-93069929D01*
X128646826Y-93079003D01*
X128722555Y-93070868D01*
X128769327Y-93061646D01*
X128913168Y-93010593D01*
X129024448Y-92923674D01*
X129104265Y-92799256D01*
X129153715Y-92635709D01*
X129172841Y-92461380D01*
X129172949Y-92333592D01*
X129163536Y-92211786D01*
X129148918Y-92129100D01*
X129119755Y-92034720D01*
X129084870Y-91945426D01*
X129071175Y-91916790D01*
X129036375Y-91861133D01*
X129000430Y-91841877D01*
X128949145Y-91846940D01*
X128866117Y-91858594D01*
X128800041Y-91862400D01*
X128728232Y-91862400D01*
X128790484Y-91983050D01*
X128849365Y-92126888D01*
X128884407Y-92277008D01*
X128895243Y-92422259D01*
X128881505Y-92551487D01*
X128842826Y-92653540D01*
X128813819Y-92691089D01*
X128734350Y-92744642D01*
X128654671Y-92749210D01*
X128576983Y-92706549D01*
X128503483Y-92618417D01*
X128436373Y-92486570D01*
X128389020Y-92351666D01*
X128324191Y-92173153D01*
X128248403Y-92040896D01*
X128157404Y-91950793D01*
X128046939Y-91898743D01*
X127912755Y-91880646D01*
X127900300Y-91880542D01*
X127748004Y-91903985D01*
X127617120Y-91971699D01*
X127512994Y-92079764D01*
X127444086Y-92215203D01*
X127417123Y-92337521D01*
X127407950Y-92487468D01*
X127416296Y-92645195D01*
G36*
X127430400Y-93843600D02*
X127430400Y-94300800D01*
X127684400Y-94300800D01*
X127684400Y-93843600D01*
X128240386Y-93843600D01*
X128441399Y-93843899D01*
X128597477Y-93846301D01*
X128714485Y-93853066D01*
X128798288Y-93866451D01*
X128854751Y-93888715D01*
X128889738Y-93922115D01*
X128909115Y-93968911D01*
X128918746Y-94031361D01*
X128924189Y-94106906D01*
X128934917Y-94275400D01*
X129018781Y-94275400D01*
X129099044Y-94271963D01*
X129147731Y-94254953D01*
X129172563Y-94214323D01*
X129181259Y-94140024D01*
X129181885Y-94063132D01*
X129176391Y-93955741D01*
X129163151Y-93854244D01*
X129146695Y-93786209D01*
X129118144Y-93713080D01*
X129086549Y-93655151D01*
X129045904Y-93610547D01*
X128990201Y-93577390D01*
X128913435Y-93553805D01*
X128809599Y-93537914D01*
X128672687Y-93527841D01*
X128496692Y-93521710D01*
X128287650Y-93517824D01*
X127684400Y-93508716D01*
X127684400Y-93227353D01*
X127589150Y-93243097D01*
X127518400Y-93253549D01*
X127467321Y-93258937D01*
X127462150Y-93259120D01*
X127440361Y-93283981D01*
X127430854Y-93357920D01*
X127430400Y-93386400D01*
X127430400Y-93513400D01*
X127226402Y-93513400D01*
X127121546Y-93514026D01*
X127056586Y-93521921D01*
X127020649Y-93546110D01*
X127002862Y-93595619D01*
X126992353Y-93679472D01*
X126989242Y-93710250D01*
X126975593Y-93843600D01*
X127430400Y-93843600D01*
X127430400Y-93843600D01*
G37*
X127430400Y-93843600D02*
X127430400Y-94300800D01*
X127684400Y-94300800D01*
X127684400Y-93843600D01*
X128240386Y-93843600D01*
X128441399Y-93843899D01*
X128597477Y-93846301D01*
X128714485Y-93853066D01*
X128798288Y-93866451D01*
X128854751Y-93888715D01*
X128889738Y-93922115D01*
X128909115Y-93968911D01*
X128918746Y-94031361D01*
X128924189Y-94106906D01*
X128934917Y-94275400D01*
X129018781Y-94275400D01*
X129099044Y-94271963D01*
X129147731Y-94254953D01*
X129172563Y-94214323D01*
X129181259Y-94140024D01*
X129181885Y-94063132D01*
X129176391Y-93955741D01*
X129163151Y-93854244D01*
X129146695Y-93786209D01*
X129118144Y-93713080D01*
X129086549Y-93655151D01*
X129045904Y-93610547D01*
X128990201Y-93577390D01*
X128913435Y-93553805D01*
X128809599Y-93537914D01*
X128672687Y-93527841D01*
X128496692Y-93521710D01*
X128287650Y-93517824D01*
X127684400Y-93508716D01*
X127684400Y-93227353D01*
X127589150Y-93243097D01*
X127518400Y-93253549D01*
X127467321Y-93258937D01*
X127462150Y-93259120D01*
X127440361Y-93283981D01*
X127430854Y-93357920D01*
X127430400Y-93386400D01*
X127430400Y-93513400D01*
X127226402Y-93513400D01*
X127121546Y-93514026D01*
X127056586Y-93521921D01*
X127020649Y-93546110D01*
X127002862Y-93595619D01*
X126992353Y-93679472D01*
X126989242Y-93710250D01*
X126975593Y-93843600D01*
X127430400Y-93843600D01*
G36*
X127435537Y-96923350D02*
X127443100Y-97082100D01*
X129132200Y-97095484D01*
X129132200Y-96945917D01*
X129130868Y-96862190D01*
X129122677Y-96815884D01*
X129101334Y-96793622D01*
X129060547Y-96782029D01*
X129054529Y-96780815D01*
X128976858Y-96765281D01*
X129052410Y-96669690D01*
X129136951Y-96523927D01*
X129175838Y-96357716D01*
X129169278Y-96169877D01*
X129154419Y-96090378D01*
X129104847Y-95970074D01*
X129017642Y-95855756D01*
X128905147Y-95762532D01*
X128869393Y-95741512D01*
X128834972Y-95724384D01*
X128799011Y-95711001D01*
X128754820Y-95700806D01*
X128695710Y-95693243D01*
X128614991Y-95687755D01*
X128505974Y-95683784D01*
X128361969Y-95680774D01*
X128176286Y-95678168D01*
X128097150Y-95677212D01*
X127430400Y-95669324D01*
X127430400Y-95977200D01*
X127959189Y-95977200D01*
X128180117Y-95978816D01*
X128356652Y-95984417D01*
X128495121Y-95995133D01*
X128601852Y-96012092D01*
X128683172Y-96036425D01*
X128745408Y-96069260D01*
X128794886Y-96111727D01*
X128810412Y-96129136D01*
X128871542Y-96238877D01*
X128894353Y-96367825D01*
X128879424Y-96502514D01*
X128827335Y-96629478D01*
X128786374Y-96687245D01*
X128721284Y-96764600D01*
X127427975Y-96764600D01*
X127435537Y-96923350D01*
X127435537Y-96923350D01*
G37*
X127435537Y-96923350D02*
X127443100Y-97082100D01*
X129132200Y-97095484D01*
X129132200Y-96945917D01*
X129130868Y-96862190D01*
X129122677Y-96815884D01*
X129101334Y-96793622D01*
X129060547Y-96782029D01*
X129054529Y-96780815D01*
X128976858Y-96765281D01*
X129052410Y-96669690D01*
X129136951Y-96523927D01*
X129175838Y-96357716D01*
X129169278Y-96169877D01*
X129154419Y-96090378D01*
X129104847Y-95970074D01*
X129017642Y-95855756D01*
X128905147Y-95762532D01*
X128869393Y-95741512D01*
X128834972Y-95724384D01*
X128799011Y-95711001D01*
X128754820Y-95700806D01*
X128695710Y-95693243D01*
X128614991Y-95687755D01*
X128505974Y-95683784D01*
X128361969Y-95680774D01*
X128176286Y-95678168D01*
X128097150Y-95677212D01*
X127430400Y-95669324D01*
X127430400Y-95977200D01*
X127959189Y-95977200D01*
X128180117Y-95978816D01*
X128356652Y-95984417D01*
X128495121Y-95995133D01*
X128601852Y-96012092D01*
X128683172Y-96036425D01*
X128745408Y-96069260D01*
X128794886Y-96111727D01*
X128810412Y-96129136D01*
X128871542Y-96238877D01*
X128894353Y-96367825D01*
X128879424Y-96502514D01*
X128827335Y-96629478D01*
X128786374Y-96687245D01*
X128721284Y-96764600D01*
X127427975Y-96764600D01*
X127435537Y-96923350D01*
G36*
X127419555Y-101424804D02*
X127426557Y-101514329D01*
X127440858Y-101581008D01*
X127464609Y-101638773D01*
X127472624Y-101654100D01*
X127582290Y-101808665D01*
X127721221Y-101921912D01*
X127888073Y-101993065D01*
X128081504Y-102021349D01*
X128109850Y-102021842D01*
X128294000Y-102022400D01*
X128294000Y-100773763D01*
X128376550Y-100790388D01*
X128502709Y-100828893D01*
X128625143Y-100888814D01*
X128727691Y-100960850D01*
X128789361Y-101027951D01*
X128859190Y-101178425D01*
X128892166Y-101356783D01*
X128887783Y-101555422D01*
X128845537Y-101766737D01*
X128839742Y-101786511D01*
X128820389Y-101856755D01*
X128810931Y-101903318D01*
X128811288Y-101913155D01*
X128838600Y-101920719D01*
X128899161Y-101931312D01*
X128934014Y-101936384D01*
X129049313Y-101952188D01*
X129104359Y-101790444D01*
X129149766Y-101611785D01*
X129171280Y-101423110D01*
X129167824Y-101242956D01*
X129143960Y-101108615D01*
X129064982Y-100908151D01*
X128951308Y-100741693D01*
X128805520Y-100612408D01*
X128683907Y-100544905D01*
X128477832Y-100478446D01*
X128270992Y-100457618D01*
X128070132Y-100480266D01*
X128065400Y-100481874D01*
X128065400Y-100804457D01*
X128065400Y-101692200D01*
X127995550Y-101692105D01*
X127898758Y-101669838D01*
X127805971Y-101611947D01*
X127735944Y-101531420D01*
X127720971Y-101501959D01*
X127683366Y-101352371D01*
X127690540Y-101203439D01*
X127738548Y-101064713D01*
X127823446Y-100945742D01*
X127941290Y-100856076D01*
X127998582Y-100829861D01*
X128065400Y-100804457D01*
X128065400Y-100481874D01*
X127882001Y-100544234D01*
X127713344Y-100647369D01*
X127570910Y-100787514D01*
X127477543Y-100930200D01*
X127448875Y-100992258D01*
X127430973Y-101055093D01*
X127421459Y-101133342D01*
X127417953Y-101241646D01*
X127417700Y-101298500D01*
X127419555Y-101424804D01*
X127419555Y-101424804D01*
G37*
X127419555Y-101424804D02*
X127426557Y-101514329D01*
X127440858Y-101581008D01*
X127464609Y-101638773D01*
X127472624Y-101654100D01*
X127582290Y-101808665D01*
X127721221Y-101921912D01*
X127888073Y-101993065D01*
X128081504Y-102021349D01*
X128109850Y-102021842D01*
X128294000Y-102022400D01*
X128294000Y-100773763D01*
X128376550Y-100790388D01*
X128502709Y-100828893D01*
X128625143Y-100888814D01*
X128727691Y-100960850D01*
X128789361Y-101027951D01*
X128859190Y-101178425D01*
X128892166Y-101356783D01*
X128887783Y-101555422D01*
X128845537Y-101766737D01*
X128839742Y-101786511D01*
X128820389Y-101856755D01*
X128810931Y-101903318D01*
X128811288Y-101913155D01*
X128838600Y-101920719D01*
X128899161Y-101931312D01*
X128934014Y-101936384D01*
X129049313Y-101952188D01*
X129104359Y-101790444D01*
X129149766Y-101611785D01*
X129171280Y-101423110D01*
X129167824Y-101242956D01*
X129143960Y-101108615D01*
X129064982Y-100908151D01*
X128951308Y-100741693D01*
X128805520Y-100612408D01*
X128683907Y-100544905D01*
X128477832Y-100478446D01*
X128270992Y-100457618D01*
X128070132Y-100480266D01*
X128065400Y-100481874D01*
X128065400Y-100804457D01*
X128065400Y-101692200D01*
X127995550Y-101692105D01*
X127898758Y-101669838D01*
X127805971Y-101611947D01*
X127735944Y-101531420D01*
X127720971Y-101501959D01*
X127683366Y-101352371D01*
X127690540Y-101203439D01*
X127738548Y-101064713D01*
X127823446Y-100945742D01*
X127941290Y-100856076D01*
X127998582Y-100829861D01*
X128065400Y-100804457D01*
X128065400Y-100481874D01*
X127882001Y-100544234D01*
X127713344Y-100647369D01*
X127570910Y-100787514D01*
X127477543Y-100930200D01*
X127448875Y-100992258D01*
X127430973Y-101055093D01*
X127421459Y-101133342D01*
X127417953Y-101241646D01*
X127417700Y-101298500D01*
X127419555Y-101424804D01*
G36*
X127001638Y-104705688D02*
X127050818Y-104712109D01*
X127137972Y-104714564D01*
X127199082Y-104714800D01*
X127430400Y-104714800D01*
X127430400Y-105172000D01*
X127684400Y-105172000D01*
X127684400Y-104708248D01*
X128256642Y-104719524D01*
X128455333Y-104723487D01*
X128609146Y-104728213D01*
X128723975Y-104736145D01*
X128805713Y-104749726D01*
X128860254Y-104771399D01*
X128893493Y-104803607D01*
X128911324Y-104848792D01*
X128919639Y-104909397D01*
X128924335Y-104987865D01*
X128924813Y-104996462D01*
X128931159Y-105089702D01*
X128939565Y-105142146D01*
X128953910Y-105163764D01*
X128978071Y-105164527D01*
X128989139Y-105161827D01*
X129057413Y-105150385D01*
X129113150Y-105146946D01*
X129183000Y-105146600D01*
X129180816Y-104949750D01*
X129176924Y-104843956D01*
X129168708Y-104748951D01*
X129157868Y-104683802D01*
X129156725Y-104679730D01*
X129122912Y-104607439D01*
X129076358Y-104543106D01*
X129035906Y-104502965D01*
X128992934Y-104471765D01*
X128940695Y-104448395D01*
X128872440Y-104431739D01*
X128781423Y-104420686D01*
X128660894Y-104414123D01*
X128504106Y-104410936D01*
X128304311Y-104410012D01*
X128269415Y-104410000D01*
X127684400Y-104410000D01*
X127684400Y-104127816D01*
X127443100Y-104143300D01*
X127435422Y-104276650D01*
X127427745Y-104410000D01*
X126998600Y-104410000D01*
X126998600Y-104522222D01*
X126995230Y-104600830D01*
X126986796Y-104662069D01*
X126983182Y-104674622D01*
X126981929Y-104693721D01*
X127001638Y-104705688D01*
X127001638Y-104705688D01*
G37*
X127001638Y-104705688D02*
X127050818Y-104712109D01*
X127137972Y-104714564D01*
X127199082Y-104714800D01*
X127430400Y-104714800D01*
X127430400Y-105172000D01*
X127684400Y-105172000D01*
X127684400Y-104708248D01*
X128256642Y-104719524D01*
X128455333Y-104723487D01*
X128609146Y-104728213D01*
X128723975Y-104736145D01*
X128805713Y-104749726D01*
X128860254Y-104771399D01*
X128893493Y-104803607D01*
X128911324Y-104848792D01*
X128919639Y-104909397D01*
X128924335Y-104987865D01*
X128924813Y-104996462D01*
X128931159Y-105089702D01*
X128939565Y-105142146D01*
X128953910Y-105163764D01*
X128978071Y-105164527D01*
X128989139Y-105161827D01*
X129057413Y-105150385D01*
X129113150Y-105146946D01*
X129183000Y-105146600D01*
X129180816Y-104949750D01*
X129176924Y-104843956D01*
X129168708Y-104748951D01*
X129157868Y-104683802D01*
X129156725Y-104679730D01*
X129122912Y-104607439D01*
X129076358Y-104543106D01*
X129035906Y-104502965D01*
X128992934Y-104471765D01*
X128940695Y-104448395D01*
X128872440Y-104431739D01*
X128781423Y-104420686D01*
X128660894Y-104414123D01*
X128504106Y-104410936D01*
X128304311Y-104410012D01*
X128269415Y-104410000D01*
X127684400Y-104410000D01*
X127684400Y-104127816D01*
X127443100Y-104143300D01*
X127435422Y-104276650D01*
X127427745Y-104410000D01*
X126998600Y-104410000D01*
X126998600Y-104522222D01*
X126995230Y-104600830D01*
X126986796Y-104662069D01*
X126983182Y-104674622D01*
X126981929Y-104693721D01*
X127001638Y-104705688D01*
G36*
X127421917Y-106152293D02*
X127435593Y-106269473D01*
X127460269Y-106361602D01*
X127463270Y-106369582D01*
X127508840Y-106487665D01*
X127615670Y-106475441D01*
X127706980Y-106463554D01*
X127754505Y-106448011D01*
X127764932Y-106419365D01*
X127744945Y-106368168D01*
X127722258Y-106324806D01*
X127680939Y-106216725D01*
X127660387Y-106096131D01*
X127659580Y-105974853D01*
X127677496Y-105864723D01*
X127713112Y-105777571D01*
X127765405Y-105725225D01*
X127774437Y-105721178D01*
X127856971Y-105706068D01*
X127943195Y-105714269D01*
X127997783Y-105737348D01*
X128023691Y-105773232D01*
X128060571Y-105846133D01*
X128103205Y-105944918D01*
X128140430Y-106041898D01*
X128199646Y-106197166D01*
X128251666Y-106312482D01*
X128302215Y-106397022D01*
X128357022Y-106459962D01*
X128421812Y-106510479D01*
X128440198Y-106522216D01*
X128522518Y-106561226D01*
X128615486Y-106576699D01*
X128677420Y-106577333D01*
X128831066Y-106555792D01*
X128954201Y-106496547D01*
X129052108Y-106395896D01*
X129124161Y-106264200D01*
X129143578Y-106193340D01*
X129159440Y-106089005D01*
X129170422Y-105968470D01*
X129175197Y-105849008D01*
X129172439Y-105747897D01*
X129167048Y-105705400D01*
X129143212Y-105607349D01*
X129111476Y-105509990D01*
X129077641Y-105428799D01*
X129047509Y-105379256D01*
X129043250Y-105375159D01*
X128987185Y-105358040D01*
X128885153Y-105361298D01*
X128866599Y-105363461D01*
X128725312Y-105381114D01*
X128775786Y-105462784D01*
X128833350Y-105584750D01*
X128872279Y-105726231D01*
X128891316Y-105873215D01*
X128889202Y-106011691D01*
X128864680Y-106127646D01*
X128840040Y-106178530D01*
X128776311Y-106233783D01*
X128689678Y-106253412D01*
X128613274Y-106239474D01*
X128551619Y-106198800D01*
X128494776Y-106122855D01*
X128439829Y-106006585D01*
X128383866Y-105844933D01*
X128381578Y-105837496D01*
X128311049Y-105656772D01*
X128224099Y-105523033D01*
X128119555Y-105434809D01*
X128031980Y-105398440D01*
X127877395Y-105381032D01*
X127732505Y-105411318D01*
X127604638Y-105486249D01*
X127501128Y-105602773D01*
X127487325Y-105625060D01*
X127454876Y-105684836D01*
X127434394Y-105739983D01*
X127423175Y-105804956D01*
X127418518Y-105894211D01*
X127417700Y-105997500D01*
X127421917Y-106152293D01*
X127421917Y-106152293D01*
G37*
X127421917Y-106152293D02*
X127435593Y-106269473D01*
X127460269Y-106361602D01*
X127463270Y-106369582D01*
X127508840Y-106487665D01*
X127615670Y-106475441D01*
X127706980Y-106463554D01*
X127754505Y-106448011D01*
X127764932Y-106419365D01*
X127744945Y-106368168D01*
X127722258Y-106324806D01*
X127680939Y-106216725D01*
X127660387Y-106096131D01*
X127659580Y-105974853D01*
X127677496Y-105864723D01*
X127713112Y-105777571D01*
X127765405Y-105725225D01*
X127774437Y-105721178D01*
X127856971Y-105706068D01*
X127943195Y-105714269D01*
X127997783Y-105737348D01*
X128023691Y-105773232D01*
X128060571Y-105846133D01*
X128103205Y-105944918D01*
X128140430Y-106041898D01*
X128199646Y-106197166D01*
X128251666Y-106312482D01*
X128302215Y-106397022D01*
X128357022Y-106459962D01*
X128421812Y-106510479D01*
X128440198Y-106522216D01*
X128522518Y-106561226D01*
X128615486Y-106576699D01*
X128677420Y-106577333D01*
X128831066Y-106555792D01*
X128954201Y-106496547D01*
X129052108Y-106395896D01*
X129124161Y-106264200D01*
X129143578Y-106193340D01*
X129159440Y-106089005D01*
X129170422Y-105968470D01*
X129175197Y-105849008D01*
X129172439Y-105747897D01*
X129167048Y-105705400D01*
X129143212Y-105607349D01*
X129111476Y-105509990D01*
X129077641Y-105428799D01*
X129047509Y-105379256D01*
X129043250Y-105375159D01*
X128987185Y-105358040D01*
X128885153Y-105361298D01*
X128866599Y-105363461D01*
X128725312Y-105381114D01*
X128775786Y-105462784D01*
X128833350Y-105584750D01*
X128872279Y-105726231D01*
X128891316Y-105873215D01*
X128889202Y-106011691D01*
X128864680Y-106127646D01*
X128840040Y-106178530D01*
X128776311Y-106233783D01*
X128689678Y-106253412D01*
X128613274Y-106239474D01*
X128551619Y-106198800D01*
X128494776Y-106122855D01*
X128439829Y-106006585D01*
X128383866Y-105844933D01*
X128381578Y-105837496D01*
X128311049Y-105656772D01*
X128224099Y-105523033D01*
X128119555Y-105434809D01*
X128031980Y-105398440D01*
X127877395Y-105381032D01*
X127732505Y-105411318D01*
X127604638Y-105486249D01*
X127501128Y-105602773D01*
X127487325Y-105625060D01*
X127454876Y-105684836D01*
X127434394Y-105739983D01*
X127423175Y-105804956D01*
X127418518Y-105894211D01*
X127417700Y-105997500D01*
X127421917Y-106152293D01*
G36*
X127435537Y-89404950D02*
X127443100Y-89563700D01*
X129132200Y-89577084D01*
X129132200Y-89246200D01*
X127427975Y-89246200D01*
X127435537Y-89404950D01*
X127435537Y-89404950D01*
G37*
X127435537Y-89404950D02*
X127443100Y-89563700D01*
X129132200Y-89577084D01*
X129132200Y-89246200D01*
X127427975Y-89246200D01*
X127435537Y-89404950D01*
G36*
X127410351Y-90903664D02*
X127437068Y-91084002D01*
X127494053Y-91227602D01*
X127585947Y-91341585D01*
X127717394Y-91433076D01*
X127773616Y-91461109D01*
X127816222Y-91479522D01*
X127858980Y-91493753D01*
X127909176Y-91504456D01*
X127974093Y-91512288D01*
X128061016Y-91517900D01*
X128177230Y-91521949D01*
X128330018Y-91525089D01*
X128516250Y-91527834D01*
X129132200Y-91536168D01*
X129132200Y-91232912D01*
X128567050Y-91223287D01*
X128379183Y-91219667D01*
X128234730Y-91215586D01*
X128126304Y-91210379D01*
X128046519Y-91203380D01*
X127987989Y-91193924D01*
X127943328Y-91181347D01*
X127905150Y-91164982D01*
X127901939Y-91163381D01*
X127800008Y-91096762D01*
X127734701Y-91012604D01*
X127699174Y-90899560D01*
X127689137Y-90810538D01*
X127693447Y-90640585D01*
X127731957Y-90501350D01*
X127803140Y-90388554D01*
X127866715Y-90313000D01*
X129132200Y-90313000D01*
X129132200Y-89982800D01*
X127430400Y-89982800D01*
X127430400Y-90108649D01*
X127432315Y-90183828D01*
X127444141Y-90223147D01*
X127474996Y-90241536D01*
X127517197Y-90250781D01*
X127603995Y-90267064D01*
X127533315Y-90378516D01*
X127454595Y-90534506D01*
X127414468Y-90699621D01*
X127409451Y-90888739D01*
X127410351Y-90903664D01*
X127410351Y-90903664D01*
G37*
X127410351Y-90903664D02*
X127437068Y-91084002D01*
X127494053Y-91227602D01*
X127585947Y-91341585D01*
X127717394Y-91433076D01*
X127773616Y-91461109D01*
X127816222Y-91479522D01*
X127858980Y-91493753D01*
X127909176Y-91504456D01*
X127974093Y-91512288D01*
X128061016Y-91517900D01*
X128177230Y-91521949D01*
X128330018Y-91525089D01*
X128516250Y-91527834D01*
X129132200Y-91536168D01*
X129132200Y-91232912D01*
X128567050Y-91223287D01*
X128379183Y-91219667D01*
X128234730Y-91215586D01*
X128126304Y-91210379D01*
X128046519Y-91203380D01*
X127987989Y-91193924D01*
X127943328Y-91181347D01*
X127905150Y-91164982D01*
X127901939Y-91163381D01*
X127800008Y-91096762D01*
X127734701Y-91012604D01*
X127699174Y-90899560D01*
X127689137Y-90810538D01*
X127693447Y-90640585D01*
X127731957Y-90501350D01*
X127803140Y-90388554D01*
X127866715Y-90313000D01*
X129132200Y-90313000D01*
X129132200Y-89982800D01*
X127430400Y-89982800D01*
X127430400Y-90108649D01*
X127432315Y-90183828D01*
X127444141Y-90223147D01*
X127474996Y-90241536D01*
X127517197Y-90250781D01*
X127603995Y-90267064D01*
X127533315Y-90378516D01*
X127454595Y-90534506D01*
X127414468Y-90699621D01*
X127409451Y-90888739D01*
X127410351Y-90903664D01*
G36*
X127384169Y-95443902D02*
X127404924Y-95461102D01*
X127436750Y-95456875D01*
X127499768Y-95443102D01*
X127580450Y-95426511D01*
X127593642Y-95423890D01*
X127650539Y-95410035D01*
X127683540Y-95387880D01*
X127703555Y-95343614D01*
X127721494Y-95263423D01*
X127721870Y-95261537D01*
X127751590Y-95158440D01*
X127795111Y-95056793D01*
X127819338Y-95014638D01*
X127888320Y-94910400D01*
X129132200Y-94910400D01*
X129132200Y-94554800D01*
X127430400Y-94554800D01*
X127430400Y-94694500D01*
X127432162Y-94774604D01*
X127441014Y-94816321D01*
X127462302Y-94832032D01*
X127490725Y-94834200D01*
X127561532Y-94839350D01*
X127627513Y-94849492D01*
X127703976Y-94864785D01*
X127592721Y-94980897D01*
X127488615Y-95108261D01*
X127416469Y-95236468D01*
X127381846Y-95354871D01*
X127379600Y-95388803D01*
X127384169Y-95443902D01*
X127384169Y-95443902D01*
G37*
X127384169Y-95443902D02*
X127404924Y-95461102D01*
X127436750Y-95456875D01*
X127499768Y-95443102D01*
X127580450Y-95426511D01*
X127593642Y-95423890D01*
X127650539Y-95410035D01*
X127683540Y-95387880D01*
X127703555Y-95343614D01*
X127721494Y-95263423D01*
X127721870Y-95261537D01*
X127751590Y-95158440D01*
X127795111Y-95056793D01*
X127819338Y-95014638D01*
X127888320Y-94910400D01*
X129132200Y-94910400D01*
X129132200Y-94554800D01*
X127430400Y-94554800D01*
X127430400Y-94694500D01*
X127432162Y-94774604D01*
X127441014Y-94816321D01*
X127462302Y-94832032D01*
X127490725Y-94834200D01*
X127561532Y-94839350D01*
X127627513Y-94849492D01*
X127703976Y-94864785D01*
X127592721Y-94980897D01*
X127488615Y-95108261D01*
X127416469Y-95236468D01*
X127381846Y-95354871D01*
X127379600Y-95388803D01*
X127384169Y-95443902D01*
G36*
X127438772Y-98515727D02*
X127509738Y-98664281D01*
X127618157Y-98787782D01*
X127623973Y-98792652D01*
X127722500Y-98874005D01*
X127639934Y-98938755D01*
X127577398Y-99000312D01*
X127513188Y-99082387D01*
X127487534Y-99122302D01*
X127454996Y-99182201D01*
X127434455Y-99237355D01*
X127423202Y-99302231D01*
X127418526Y-99391293D01*
X127417700Y-99495100D01*
X127419232Y-99618080D01*
X127425411Y-99704391D01*
X127438605Y-99768111D01*
X127461187Y-99823318D01*
X127478259Y-99854793D01*
X127532018Y-99932425D01*
X127593505Y-99999206D01*
X127612556Y-100015004D01*
X127670025Y-100054367D01*
X127728374Y-100085429D01*
X127794623Y-100109333D01*
X127875795Y-100127220D01*
X127978911Y-100140232D01*
X128110991Y-100149511D01*
X128279057Y-100156199D01*
X128490129Y-100161437D01*
X128516250Y-100161973D01*
X129132200Y-100174443D01*
X129132200Y-99841323D01*
X128528950Y-99833311D01*
X128315108Y-99829735D01*
X128146024Y-99824376D01*
X128015653Y-99815797D01*
X127917954Y-99802561D01*
X127846884Y-99783230D01*
X127796400Y-99756367D01*
X127760461Y-99720534D01*
X127733024Y-99674294D01*
X127717886Y-99640375D01*
X127692665Y-99539533D01*
X127686970Y-99419386D01*
X127699484Y-99299161D01*
X127728888Y-99198084D01*
X127750891Y-99158823D01*
X127789201Y-99111046D01*
X127830085Y-99073884D01*
X127880212Y-99046014D01*
X127946255Y-99026119D01*
X128034885Y-99012877D01*
X128152771Y-99004969D01*
X128306586Y-99001074D01*
X128503000Y-98999873D01*
X128554350Y-98999839D01*
X129132200Y-98999800D01*
X129132200Y-98672977D01*
X128541650Y-98664938D01*
X128332562Y-98661386D01*
X128167815Y-98656120D01*
X128040952Y-98647694D01*
X127945515Y-98634664D01*
X127875046Y-98615584D01*
X127823086Y-98589008D01*
X127783178Y-98553492D01*
X127748865Y-98507591D01*
X127734171Y-98484216D01*
X127693173Y-98373272D01*
X127684535Y-98241004D01*
X127706043Y-98103312D01*
X127755484Y-97976095D01*
X127817039Y-97888896D01*
X127835064Y-97871125D01*
X127855824Y-97857453D01*
X127885721Y-97847344D01*
X127931154Y-97840259D01*
X127998524Y-97835662D01*
X128094230Y-97833015D01*
X128224672Y-97831780D01*
X128396252Y-97831420D01*
X128501627Y-97831400D01*
X129132200Y-97831400D01*
X129132200Y-97501200D01*
X127430400Y-97501200D01*
X127430400Y-97625373D01*
X127432342Y-97699902D01*
X127444546Y-97738738D01*
X127476579Y-97756982D01*
X127519662Y-97766292D01*
X127608925Y-97783038D01*
X127545848Y-97865736D01*
X127458797Y-98017124D01*
X127412481Y-98182410D01*
X127406079Y-98351857D01*
X127438772Y-98515727D01*
X127438772Y-98515727D01*
G37*
X127438772Y-98515727D02*
X127509738Y-98664281D01*
X127618157Y-98787782D01*
X127623973Y-98792652D01*
X127722500Y-98874005D01*
X127639934Y-98938755D01*
X127577398Y-99000312D01*
X127513188Y-99082387D01*
X127487534Y-99122302D01*
X127454996Y-99182201D01*
X127434455Y-99237355D01*
X127423202Y-99302231D01*
X127418526Y-99391293D01*
X127417700Y-99495100D01*
X127419232Y-99618080D01*
X127425411Y-99704391D01*
X127438605Y-99768111D01*
X127461187Y-99823318D01*
X127478259Y-99854793D01*
X127532018Y-99932425D01*
X127593505Y-99999206D01*
X127612556Y-100015004D01*
X127670025Y-100054367D01*
X127728374Y-100085429D01*
X127794623Y-100109333D01*
X127875795Y-100127220D01*
X127978911Y-100140232D01*
X128110991Y-100149511D01*
X128279057Y-100156199D01*
X128490129Y-100161437D01*
X128516250Y-100161973D01*
X129132200Y-100174443D01*
X129132200Y-99841323D01*
X128528950Y-99833311D01*
X128315108Y-99829735D01*
X128146024Y-99824376D01*
X128015653Y-99815797D01*
X127917954Y-99802561D01*
X127846884Y-99783230D01*
X127796400Y-99756367D01*
X127760461Y-99720534D01*
X127733024Y-99674294D01*
X127717886Y-99640375D01*
X127692665Y-99539533D01*
X127686970Y-99419386D01*
X127699484Y-99299161D01*
X127728888Y-99198084D01*
X127750891Y-99158823D01*
X127789201Y-99111046D01*
X127830085Y-99073884D01*
X127880212Y-99046014D01*
X127946255Y-99026119D01*
X128034885Y-99012877D01*
X128152771Y-99004969D01*
X128306586Y-99001074D01*
X128503000Y-98999873D01*
X128554350Y-98999839D01*
X129132200Y-98999800D01*
X129132200Y-98672977D01*
X128541650Y-98664938D01*
X128332562Y-98661386D01*
X128167815Y-98656120D01*
X128040952Y-98647694D01*
X127945515Y-98634664D01*
X127875046Y-98615584D01*
X127823086Y-98589008D01*
X127783178Y-98553492D01*
X127748865Y-98507591D01*
X127734171Y-98484216D01*
X127693173Y-98373272D01*
X127684535Y-98241004D01*
X127706043Y-98103312D01*
X127755484Y-97976095D01*
X127817039Y-97888896D01*
X127835064Y-97871125D01*
X127855824Y-97857453D01*
X127885721Y-97847344D01*
X127931154Y-97840259D01*
X127998524Y-97835662D01*
X128094230Y-97833015D01*
X128224672Y-97831780D01*
X128396252Y-97831420D01*
X128501627Y-97831400D01*
X129132200Y-97831400D01*
X129132200Y-97501200D01*
X127430400Y-97501200D01*
X127430400Y-97625373D01*
X127432342Y-97699902D01*
X127444546Y-97738738D01*
X127476579Y-97756982D01*
X127519662Y-97766292D01*
X127608925Y-97783038D01*
X127545848Y-97865736D01*
X127458797Y-98017124D01*
X127412481Y-98182410D01*
X127406079Y-98351857D01*
X127438772Y-98515727D01*
G36*
X127416694Y-103344872D02*
X127461994Y-103514307D01*
X127546886Y-103652512D01*
X127671945Y-103760476D01*
X127808898Y-103828690D01*
X127860134Y-103846546D01*
X127914130Y-103860423D01*
X127978614Y-103871032D01*
X128061317Y-103879082D01*
X128169968Y-103885284D01*
X128312297Y-103890346D01*
X128496034Y-103894981D01*
X128541650Y-103895988D01*
X129132200Y-103908825D01*
X129132200Y-103575177D01*
X128541650Y-103567138D01*
X128331709Y-103563527D01*
X128166177Y-103558027D01*
X128038664Y-103549076D01*
X127942778Y-103535111D01*
X127872130Y-103514568D01*
X127820329Y-103485883D01*
X127780986Y-103447495D01*
X127747709Y-103397838D01*
X127731722Y-103368996D01*
X127692195Y-103249597D01*
X127683059Y-103109852D01*
X127702081Y-102966235D01*
X127747028Y-102835219D01*
X127815666Y-102733276D01*
X127818258Y-102730649D01*
X127891507Y-102657400D01*
X129132200Y-102657400D01*
X129132200Y-102352600D01*
X127427616Y-102352600D01*
X127435358Y-102471760D01*
X127443058Y-102545223D01*
X127460795Y-102584129D01*
X127499265Y-102604714D01*
X127528306Y-102612875D01*
X127583043Y-102630066D01*
X127595837Y-102648515D01*
X127575715Y-102677864D01*
X127490222Y-102810715D01*
X127433558Y-102977944D01*
X127410409Y-103143216D01*
X127416694Y-103344872D01*
X127416694Y-103344872D01*
G37*
X127416694Y-103344872D02*
X127461994Y-103514307D01*
X127546886Y-103652512D01*
X127671945Y-103760476D01*
X127808898Y-103828690D01*
X127860134Y-103846546D01*
X127914130Y-103860423D01*
X127978614Y-103871032D01*
X128061317Y-103879082D01*
X128169968Y-103885284D01*
X128312297Y-103890346D01*
X128496034Y-103894981D01*
X128541650Y-103895988D01*
X129132200Y-103908825D01*
X129132200Y-103575177D01*
X128541650Y-103567138D01*
X128331709Y-103563527D01*
X128166177Y-103558027D01*
X128038664Y-103549076D01*
X127942778Y-103535111D01*
X127872130Y-103514568D01*
X127820329Y-103485883D01*
X127780986Y-103447495D01*
X127747709Y-103397838D01*
X127731722Y-103368996D01*
X127692195Y-103249597D01*
X127683059Y-103109852D01*
X127702081Y-102966235D01*
X127747028Y-102835219D01*
X127815666Y-102733276D01*
X127818258Y-102730649D01*
X127891507Y-102657400D01*
X129132200Y-102657400D01*
X129132200Y-102352600D01*
X127427616Y-102352600D01*
X127435358Y-102471760D01*
X127443058Y-102545223D01*
X127460795Y-102584129D01*
X127499265Y-102604714D01*
X127528306Y-102612875D01*
X127583043Y-102630066D01*
X127595837Y-102648515D01*
X127575715Y-102677864D01*
X127490222Y-102810715D01*
X127433558Y-102977944D01*
X127410409Y-103143216D01*
X127416694Y-103344872D01*
G36*
X123061600Y-88204800D02*
X123061600Y-89728800D01*
X123518800Y-89728800D01*
X123518800Y-88204800D01*
X124382400Y-88204800D01*
X124382400Y-89398600D01*
X124839600Y-89398600D01*
X124839600Y-88204800D01*
X125855600Y-88204800D01*
X125855600Y-89781577D01*
X126077850Y-89774238D01*
X126300100Y-89766900D01*
X126313534Y-88204800D01*
X127938400Y-88204800D01*
X127938400Y-81727800D01*
X121969400Y-81727800D01*
X121969400Y-82235800D01*
X127430400Y-82235800D01*
X127430400Y-87696800D01*
X121969400Y-87696800D01*
X121969400Y-82235800D01*
X121969400Y-81727800D01*
X121486800Y-81727800D01*
X121486800Y-88204800D01*
X123061600Y-88204800D01*
X123061600Y-88204800D01*
G37*
X123061600Y-88204800D02*
X123061600Y-89728800D01*
X123518800Y-89728800D01*
X123518800Y-88204800D01*
X124382400Y-88204800D01*
X124382400Y-89398600D01*
X124839600Y-89398600D01*
X124839600Y-88204800D01*
X125855600Y-88204800D01*
X125855600Y-89781577D01*
X126077850Y-89774238D01*
X126300100Y-89766900D01*
X126313534Y-88204800D01*
X127938400Y-88204800D01*
X127938400Y-81727800D01*
X121969400Y-81727800D01*
X121969400Y-82235800D01*
X127430400Y-82235800D01*
X127430400Y-87696800D01*
X121969400Y-87696800D01*
X121969400Y-82235800D01*
X121969400Y-81727800D01*
X121486800Y-81727800D01*
X121486800Y-88204800D01*
X123061600Y-88204800D01*
G36*
X126698937Y-89404950D02*
X126706500Y-89563700D01*
X126877950Y-89571210D01*
X127049400Y-89578721D01*
X127049400Y-89246200D01*
X126691375Y-89246200D01*
X126698937Y-89404950D01*
X126698937Y-89404950D01*
G37*
X126698937Y-89404950D02*
X126706500Y-89563700D01*
X126877950Y-89571210D01*
X127049400Y-89578721D01*
X127049400Y-89246200D01*
X126691375Y-89246200D01*
X126698937Y-89404950D01*
G36*
X123144150Y-93093504D02*
X123192412Y-93100879D01*
X123283749Y-93113940D01*
X123412837Y-93131970D01*
X123574351Y-93154254D01*
X123762967Y-93180078D01*
X123973360Y-93208726D01*
X124200206Y-93239483D01*
X124438180Y-93271633D01*
X124681958Y-93304461D01*
X124926215Y-93337252D01*
X125165628Y-93369291D01*
X125394871Y-93399862D01*
X125608620Y-93428249D01*
X125801550Y-93453738D01*
X125968338Y-93475614D01*
X126103658Y-93493160D01*
X126202187Y-93505663D01*
X126258600Y-93512405D01*
X126269700Y-93513400D01*
X126289512Y-93507620D01*
X126302206Y-93484337D01*
X126309301Y-93434633D01*
X126312310Y-93349589D01*
X126312800Y-93259883D01*
X126312171Y-93144357D01*
X126308892Y-93069885D01*
X126300867Y-93026728D01*
X126286006Y-93005142D01*
X126262214Y-92995388D01*
X126255650Y-92993879D01*
X126218806Y-92988225D01*
X126137093Y-92977215D01*
X126016079Y-92961553D01*
X125861332Y-92941943D01*
X125678422Y-92919086D01*
X125472916Y-92893685D01*
X125250383Y-92866444D01*
X125131700Y-92852016D01*
X124903226Y-92824030D01*
X124689471Y-92797310D01*
X124495913Y-92772581D01*
X124328029Y-92750568D01*
X124191298Y-92731994D01*
X124091196Y-92717583D01*
X124033203Y-92708059D01*
X124021485Y-92705270D01*
X124024783Y-92691762D01*
X124063453Y-92661577D01*
X124139280Y-92613668D01*
X124254051Y-92546987D01*
X124409548Y-92460488D01*
X124607557Y-92353122D01*
X124764435Y-92269236D01*
X124947284Y-92171520D01*
X125115053Y-92081155D01*
X125262665Y-92000931D01*
X125385045Y-91933637D01*
X125477114Y-91882063D01*
X125533797Y-91848997D01*
X125550375Y-91837436D01*
X125528744Y-91822702D01*
X125467512Y-91786865D01*
X125371861Y-91732808D01*
X125246969Y-91663416D01*
X125098017Y-91581571D01*
X124930185Y-91490157D01*
X124799032Y-91419206D01*
X124618685Y-91321701D01*
X124451603Y-91230958D01*
X124303318Y-91150013D01*
X124179360Y-91081901D01*
X124085261Y-91029658D01*
X124026551Y-90996320D01*
X124009542Y-90985908D01*
X124010577Y-90976562D01*
X124039686Y-90965464D01*
X124100348Y-90952045D01*
X124196042Y-90935735D01*
X124330247Y-90915965D01*
X124506441Y-90892164D01*
X124728103Y-90863764D01*
X124843435Y-90849353D01*
X125064356Y-90821836D01*
X125283148Y-90794437D01*
X125491143Y-90768250D01*
X125679671Y-90744373D01*
X125840065Y-90723903D01*
X125963656Y-90707934D01*
X126014350Y-90701262D01*
X126312800Y-90661522D01*
X126312800Y-90160600D01*
X126249013Y-90160600D01*
X126213852Y-90163932D01*
X126133751Y-90173450D01*
X126014097Y-90188429D01*
X125860276Y-90208147D01*
X125677677Y-90231882D01*
X125471688Y-90258912D01*
X125247695Y-90288513D01*
X125011086Y-90319963D01*
X124767248Y-90352539D01*
X124521570Y-90385520D01*
X124279438Y-90418183D01*
X124046240Y-90449804D01*
X123827364Y-90479662D01*
X123628196Y-90507034D01*
X123454125Y-90531198D01*
X123310538Y-90551431D01*
X123202823Y-90567010D01*
X123136366Y-90577212D01*
X123118750Y-90580405D01*
X123090615Y-90590280D01*
X123073660Y-90611419D01*
X123065115Y-90654670D01*
X123062208Y-90730880D01*
X123062027Y-90802433D01*
X123062455Y-91011500D01*
X123834518Y-91417900D01*
X124015115Y-91513695D01*
X124179752Y-91602440D01*
X124323419Y-91681324D01*
X124441109Y-91747535D01*
X124527812Y-91798264D01*
X124578518Y-91830699D01*
X124589741Y-91841657D01*
X124564000Y-91857234D01*
X124498620Y-91893521D01*
X124398952Y-91947640D01*
X124270348Y-92016712D01*
X124118161Y-92097860D01*
X123947742Y-92188204D01*
X123817250Y-92257072D01*
X123061600Y-92655130D01*
X123061600Y-93079298D01*
X123144150Y-93093504D01*
X123144150Y-93093504D01*
G37*
X123144150Y-93093504D02*
X123192412Y-93100879D01*
X123283749Y-93113940D01*
X123412837Y-93131970D01*
X123574351Y-93154254D01*
X123762967Y-93180078D01*
X123973360Y-93208726D01*
X124200206Y-93239483D01*
X124438180Y-93271633D01*
X124681958Y-93304461D01*
X124926215Y-93337252D01*
X125165628Y-93369291D01*
X125394871Y-93399862D01*
X125608620Y-93428249D01*
X125801550Y-93453738D01*
X125968338Y-93475614D01*
X126103658Y-93493160D01*
X126202187Y-93505663D01*
X126258600Y-93512405D01*
X126269700Y-93513400D01*
X126289512Y-93507620D01*
X126302206Y-93484337D01*
X126309301Y-93434633D01*
X126312310Y-93349589D01*
X126312800Y-93259883D01*
X126312171Y-93144357D01*
X126308892Y-93069885D01*
X126300867Y-93026728D01*
X126286006Y-93005142D01*
X126262214Y-92995388D01*
X126255650Y-92993879D01*
X126218806Y-92988225D01*
X126137093Y-92977215D01*
X126016079Y-92961553D01*
X125861332Y-92941943D01*
X125678422Y-92919086D01*
X125472916Y-92893685D01*
X125250383Y-92866444D01*
X125131700Y-92852016D01*
X124903226Y-92824030D01*
X124689471Y-92797310D01*
X124495913Y-92772581D01*
X124328029Y-92750568D01*
X124191298Y-92731994D01*
X124091196Y-92717583D01*
X124033203Y-92708059D01*
X124021485Y-92705270D01*
X124024783Y-92691762D01*
X124063453Y-92661577D01*
X124139280Y-92613668D01*
X124254051Y-92546987D01*
X124409548Y-92460488D01*
X124607557Y-92353122D01*
X124764435Y-92269236D01*
X124947284Y-92171520D01*
X125115053Y-92081155D01*
X125262665Y-92000931D01*
X125385045Y-91933637D01*
X125477114Y-91882063D01*
X125533797Y-91848997D01*
X125550375Y-91837436D01*
X125528744Y-91822702D01*
X125467512Y-91786865D01*
X125371861Y-91732808D01*
X125246969Y-91663416D01*
X125098017Y-91581571D01*
X124930185Y-91490157D01*
X124799032Y-91419206D01*
X124618685Y-91321701D01*
X124451603Y-91230958D01*
X124303318Y-91150013D01*
X124179360Y-91081901D01*
X124085261Y-91029658D01*
X124026551Y-90996320D01*
X124009542Y-90985908D01*
X124010577Y-90976562D01*
X124039686Y-90965464D01*
X124100348Y-90952045D01*
X124196042Y-90935735D01*
X124330247Y-90915965D01*
X124506441Y-90892164D01*
X124728103Y-90863764D01*
X124843435Y-90849353D01*
X125064356Y-90821836D01*
X125283148Y-90794437D01*
X125491143Y-90768250D01*
X125679671Y-90744373D01*
X125840065Y-90723903D01*
X125963656Y-90707934D01*
X126014350Y-90701262D01*
X126312800Y-90661522D01*
X126312800Y-90160600D01*
X126249013Y-90160600D01*
X126213852Y-90163932D01*
X126133751Y-90173450D01*
X126014097Y-90188429D01*
X125860276Y-90208147D01*
X125677677Y-90231882D01*
X125471688Y-90258912D01*
X125247695Y-90288513D01*
X125011086Y-90319963D01*
X124767248Y-90352539D01*
X124521570Y-90385520D01*
X124279438Y-90418183D01*
X124046240Y-90449804D01*
X123827364Y-90479662D01*
X123628196Y-90507034D01*
X123454125Y-90531198D01*
X123310538Y-90551431D01*
X123202823Y-90567010D01*
X123136366Y-90577212D01*
X123118750Y-90580405D01*
X123090615Y-90590280D01*
X123073660Y-90611419D01*
X123065115Y-90654670D01*
X123062208Y-90730880D01*
X123062027Y-90802433D01*
X123062455Y-91011500D01*
X123834518Y-91417900D01*
X124015115Y-91513695D01*
X124179752Y-91602440D01*
X124323419Y-91681324D01*
X124441109Y-91747535D01*
X124527812Y-91798264D01*
X124578518Y-91830699D01*
X124589741Y-91841657D01*
X124564000Y-91857234D01*
X124498620Y-91893521D01*
X124398952Y-91947640D01*
X124270348Y-92016712D01*
X124118161Y-92097860D01*
X123947742Y-92188204D01*
X123817250Y-92257072D01*
X123061600Y-92655130D01*
X123061600Y-93079298D01*
X123144150Y-93093504D01*
G36*
X123518800Y-96104200D02*
X123518800Y-94580200D01*
X124382400Y-94580200D01*
X124382400Y-95774000D01*
X124839600Y-95774000D01*
X124839600Y-94580200D01*
X125855600Y-94580200D01*
X125855600Y-96156977D01*
X126077850Y-96149638D01*
X126300100Y-96142300D01*
X126306734Y-95107250D01*
X126313369Y-94072200D01*
X123061600Y-94072200D01*
X123061600Y-96104200D01*
X123518800Y-96104200D01*
X123518800Y-96104200D01*
G37*
X123518800Y-96104200D02*
X123518800Y-94580200D01*
X124382400Y-94580200D01*
X124382400Y-95774000D01*
X124839600Y-95774000D01*
X124839600Y-94580200D01*
X125855600Y-94580200D01*
X125855600Y-96156977D01*
X126077850Y-96149638D01*
X126300100Y-96142300D01*
X126306734Y-95107250D01*
X126313369Y-94072200D01*
X123061600Y-94072200D01*
X123061600Y-96104200D01*
X123518800Y-96104200D01*
G36*
X123067090Y-96935008D02*
X123074300Y-97207016D01*
X125350446Y-98707700D01*
X124206023Y-98714308D01*
X123061599Y-98720917D01*
X123061600Y-98974658D01*
X123061600Y-99228400D01*
X126312800Y-99228400D01*
X126312800Y-98804809D01*
X125087250Y-97987935D01*
X123861700Y-97171062D01*
X126312800Y-97171000D01*
X126312800Y-96933933D01*
X126311092Y-96828785D01*
X126306512Y-96743634D01*
X126299874Y-96690692D01*
X126295866Y-96679933D01*
X126268164Y-96676976D01*
X126193994Y-96674182D01*
X126077688Y-96671598D01*
X125923578Y-96669269D01*
X125735996Y-96667239D01*
X125519274Y-96665553D01*
X125277745Y-96664257D01*
X125015740Y-96663396D01*
X124737590Y-96663015D01*
X124669407Y-96663000D01*
X123059881Y-96663000D01*
X123067090Y-96935008D01*
X123067090Y-96935008D01*
G37*
X123067090Y-96935008D02*
X123074300Y-97207016D01*
X125350446Y-98707700D01*
X124206023Y-98714308D01*
X123061599Y-98720917D01*
X123061600Y-98974658D01*
X123061600Y-99228400D01*
X126312800Y-99228400D01*
X126312800Y-98804809D01*
X125087250Y-97987935D01*
X123861700Y-97171062D01*
X126312800Y-97171000D01*
X126312800Y-96933933D01*
X126311092Y-96828785D01*
X126306512Y-96743634D01*
X126299874Y-96690692D01*
X126295866Y-96679933D01*
X126268164Y-96676976D01*
X126193994Y-96674182D01*
X126077688Y-96671598D01*
X125923578Y-96669269D01*
X125735996Y-96667239D01*
X125519274Y-96665553D01*
X125277745Y-96664257D01*
X125015740Y-96663396D01*
X124737590Y-96663015D01*
X124669407Y-96663000D01*
X123059881Y-96663000D01*
X123067090Y-96935008D01*
G36*
X123518800Y-102047800D02*
X123518800Y-101108000D01*
X126312800Y-101108000D01*
X126312800Y-100600000D01*
X123518800Y-100600000D01*
X123518800Y-99685600D01*
X123061600Y-99685600D01*
X123061600Y-102047800D01*
X123518800Y-102047800D01*
X123518800Y-102047800D01*
G37*
X123518800Y-102047800D02*
X123518800Y-101108000D01*
X126312800Y-101108000D01*
X126312800Y-100600000D01*
X123518800Y-100600000D01*
X123518800Y-99685600D01*
X123061600Y-99685600D01*
X123061600Y-102047800D01*
X123518800Y-102047800D01*
G36*
X123130592Y-103591517D02*
X123166408Y-103604354D01*
X123245786Y-103632826D01*
X123364476Y-103675406D01*
X123518225Y-103730569D01*
X123702783Y-103796790D01*
X123913898Y-103872543D01*
X124147318Y-103956303D01*
X124398792Y-104046545D01*
X124664068Y-104141741D01*
X124731111Y-104165801D01*
X124997541Y-104261272D01*
X125250034Y-104351474D01*
X125484501Y-104434964D01*
X125696851Y-104510299D01*
X125882996Y-104576035D01*
X126038846Y-104630730D01*
X126160312Y-104672941D01*
X126243303Y-104701223D01*
X126283730Y-104714135D01*
X126286861Y-104714800D01*
X126299286Y-104690478D01*
X126308013Y-104621644D01*
X126312402Y-104514493D01*
X126312800Y-104463202D01*
X126312800Y-104211604D01*
X126103250Y-104136463D01*
X125970690Y-104089172D01*
X125821854Y-104036438D01*
X125688219Y-103989413D01*
X125684215Y-103988011D01*
X125474731Y-103914700D01*
X125474665Y-103316089D01*
X125474600Y-102717479D01*
X126312800Y-102421811D01*
X126312800Y-101897281D01*
X126103250Y-101973128D01*
X126040757Y-101995649D01*
X125935471Y-102033477D01*
X125792430Y-102084805D01*
X125616671Y-102147828D01*
X125413233Y-102220739D01*
X125187152Y-102301735D01*
X124992000Y-102371626D01*
X124992000Y-102889044D01*
X124992000Y-103744972D01*
X124757050Y-103660210D01*
X124641219Y-103618725D01*
X124495355Y-103566932D01*
X124337417Y-103511184D01*
X124185359Y-103457836D01*
X124172850Y-103453465D01*
X124049470Y-103409502D01*
X123945221Y-103370694D01*
X123868550Y-103340318D01*
X123827900Y-103321648D01*
X123823600Y-103318042D01*
X123846116Y-103305031D01*
X123907716Y-103278972D01*
X123999472Y-103243425D01*
X124112458Y-103201949D01*
X124134750Y-103193991D01*
X124286970Y-103139869D01*
X124455056Y-103080092D01*
X124615907Y-103022875D01*
X124718950Y-102986212D01*
X124992000Y-102889044D01*
X124992000Y-102371626D01*
X124943468Y-102389008D01*
X124687217Y-102480753D01*
X124484000Y-102553491D01*
X123074300Y-103058009D01*
X123067092Y-103312120D01*
X123059884Y-103566232D01*
X123130592Y-103591517D01*
X123130592Y-103591517D01*
G37*
X123130592Y-103591517D02*
X123166408Y-103604354D01*
X123245786Y-103632826D01*
X123364476Y-103675406D01*
X123518225Y-103730569D01*
X123702783Y-103796790D01*
X123913898Y-103872543D01*
X124147318Y-103956303D01*
X124398792Y-104046545D01*
X124664068Y-104141741D01*
X124731111Y-104165801D01*
X124997541Y-104261272D01*
X125250034Y-104351474D01*
X125484501Y-104434964D01*
X125696851Y-104510299D01*
X125882996Y-104576035D01*
X126038846Y-104630730D01*
X126160312Y-104672941D01*
X126243303Y-104701223D01*
X126283730Y-104714135D01*
X126286861Y-104714800D01*
X126299286Y-104690478D01*
X126308013Y-104621644D01*
X126312402Y-104514493D01*
X126312800Y-104463202D01*
X126312800Y-104211604D01*
X126103250Y-104136463D01*
X125970690Y-104089172D01*
X125821854Y-104036438D01*
X125688219Y-103989413D01*
X125684215Y-103988011D01*
X125474731Y-103914700D01*
X125474665Y-103316089D01*
X125474600Y-102717479D01*
X126312800Y-102421811D01*
X126312800Y-101897281D01*
X126103250Y-101973128D01*
X126040757Y-101995649D01*
X125935471Y-102033477D01*
X125792430Y-102084805D01*
X125616671Y-102147828D01*
X125413233Y-102220739D01*
X125187152Y-102301735D01*
X124992000Y-102371626D01*
X124992000Y-102889044D01*
X124992000Y-103744972D01*
X124757050Y-103660210D01*
X124641219Y-103618725D01*
X124495355Y-103566932D01*
X124337417Y-103511184D01*
X124185359Y-103457836D01*
X124172850Y-103453465D01*
X124049470Y-103409502D01*
X123945221Y-103370694D01*
X123868550Y-103340318D01*
X123827900Y-103321648D01*
X123823600Y-103318042D01*
X123846116Y-103305031D01*
X123907716Y-103278972D01*
X123999472Y-103243425D01*
X124112458Y-103201949D01*
X124134750Y-103193991D01*
X124286970Y-103139869D01*
X124455056Y-103080092D01*
X124615907Y-103022875D01*
X124718950Y-102986212D01*
X124992000Y-102889044D01*
X124992000Y-102371626D01*
X124943468Y-102389008D01*
X124687217Y-102480753D01*
X124484000Y-102553491D01*
X123074300Y-103058009D01*
X123067092Y-103312120D01*
X123059884Y-103566232D01*
X123130592Y-103591517D01*
G36*
X125842900Y-105616500D02*
X125849645Y-106334050D01*
X125856391Y-107051600D01*
X126312800Y-107051600D01*
X126312800Y-105121200D01*
X123061600Y-105121200D01*
X123061600Y-105603366D01*
X125842900Y-105616500D01*
X125842900Y-105616500D01*
G37*
X125842900Y-105616500D02*
X125849645Y-106334050D01*
X125856391Y-107051600D01*
X126312800Y-107051600D01*
X126312800Y-105121200D01*
X123061600Y-105121200D01*
X123061600Y-105603366D01*
X125842900Y-105616500D01*
G36*
X123283850Y-84795838D02*
X123506100Y-84788500D01*
X123512827Y-84032850D01*
X123519555Y-83277200D01*
X124382400Y-83277200D01*
X124382400Y-84471000D01*
X124839600Y-84471000D01*
X124839600Y-83277200D01*
X125855600Y-83277200D01*
X125855600Y-84826600D01*
X126312800Y-84826600D01*
X126312800Y-82769200D01*
X123061600Y-82769200D01*
X123061600Y-84803177D01*
X123283850Y-84795838D01*
X123283850Y-84795838D01*
G37*
X123283850Y-84795838D02*
X123506100Y-84788500D01*
X123512827Y-84032850D01*
X123519555Y-83277200D01*
X124382400Y-83277200D01*
X124382400Y-84471000D01*
X124839600Y-84471000D01*
X124839600Y-83277200D01*
X125855600Y-83277200D01*
X125855600Y-84826600D01*
X126312800Y-84826600D01*
X126312800Y-82769200D01*
X123061600Y-82769200D01*
X123061600Y-84803177D01*
X123283850Y-84795838D01*
G36*
X125855600Y-85868000D02*
X125855600Y-87317777D01*
X126077850Y-87310438D01*
X126300100Y-87303100D01*
X126306751Y-86331550D01*
X126313403Y-85360000D01*
X123061600Y-85360000D01*
X123061600Y-85868000D01*
X125855600Y-85868000D01*
X125855600Y-85868000D01*
G37*
X125855600Y-85868000D02*
X125855600Y-87317777D01*
X126077850Y-87310438D01*
X126300100Y-87303100D01*
X126306751Y-86331550D01*
X126313403Y-85360000D01*
X123061600Y-85360000D01*
X123061600Y-85868000D01*
X125855600Y-85868000D01*
D14*
X161010000Y-80220000D02*
X161010000Y-79780000D01*
X159990000Y-80220000D02*
X159990000Y-79780000D01*
D13*
X149952381Y-79238095D02*
X150761905Y-79238095D01*
X150857143Y-79285714D01*
X150904762Y-79333333D01*
X150952381Y-79428571D01*
X150952381Y-79619048D01*
X150904762Y-79714286D01*
X150857143Y-79761905D01*
X150761905Y-79809524D01*
X149952381Y-79809524D01*
X149952381Y-80190476D02*
X149952381Y-80809524D01*
X150333333Y-80476190D01*
X150333333Y-80619048D01*
X150380952Y-80714286D01*
X150428571Y-80761905D01*
X150523810Y-80809524D01*
X150761905Y-80809524D01*
X150857143Y-80761905D01*
X150904762Y-80714286D01*
X150952381Y-80619048D01*
X150952381Y-80333333D01*
X150904762Y-80238095D01*
X150857143Y-80190476D01*
X167952381Y-79607143D02*
X167476190Y-79273809D01*
X167952381Y-79035714D02*
X166952381Y-79035714D01*
X166952381Y-79416667D01*
X167000000Y-79511905D01*
X167047619Y-79559524D01*
X167142857Y-79607143D01*
X167285714Y-79607143D01*
X167380952Y-79559524D01*
X167428571Y-79511905D01*
X167476190Y-79416667D01*
X167476190Y-79035714D01*
X166952381Y-79940476D02*
X166952381Y-80559524D01*
X167333333Y-80226190D01*
X167333333Y-80369048D01*
X167380952Y-80464286D01*
X167428571Y-80511905D01*
X167523810Y-80559524D01*
X167761905Y-80559524D01*
X167857143Y-80511905D01*
X167904762Y-80464286D01*
X167952381Y-80369048D01*
X167952381Y-80083333D01*
X167904762Y-79988095D01*
X167857143Y-79940476D01*
X167047619Y-80940476D02*
X167000000Y-80988095D01*
X166952381Y-81083333D01*
X166952381Y-81321429D01*
X167000000Y-81416667D01*
X167047619Y-81464286D01*
X167142857Y-81511905D01*
X167238095Y-81511905D01*
X167380952Y-81464286D01*
X167952381Y-80892857D01*
X167952381Y-81511905D01*
X166702381Y-79607143D02*
X166226190Y-79273809D01*
X166702381Y-79035714D02*
X165702381Y-79035714D01*
X165702381Y-79416667D01*
X165750000Y-79511905D01*
X165797619Y-79559524D01*
X165892857Y-79607143D01*
X166035714Y-79607143D01*
X166130952Y-79559524D01*
X166178571Y-79511905D01*
X166226190Y-79416667D01*
X166226190Y-79035714D01*
X165702381Y-79940476D02*
X165702381Y-80559524D01*
X166083333Y-80226190D01*
X166083333Y-80369048D01*
X166130952Y-80464286D01*
X166178571Y-80511905D01*
X166273810Y-80559524D01*
X166511905Y-80559524D01*
X166607143Y-80511905D01*
X166654762Y-80464286D01*
X166702381Y-80369048D01*
X166702381Y-80083333D01*
X166654762Y-79988095D01*
X166607143Y-79940476D01*
X165702381Y-80892857D02*
X165702381Y-81511905D01*
X166083333Y-81178571D01*
X166083333Y-81321429D01*
X166130952Y-81416667D01*
X166178571Y-81464286D01*
X166273810Y-81511905D01*
X166511905Y-81511905D01*
X166607143Y-81464286D01*
X166654762Y-81416667D01*
X166702381Y-81321429D01*
X166702381Y-81035714D01*
X166654762Y-80940476D01*
X166607143Y-80892857D01*
X178409523Y-123960000D02*
X178485714Y-123912381D01*
X178599999Y-123912381D01*
X178714285Y-123960000D01*
X178790476Y-124055238D01*
X178828571Y-124150476D01*
X178866666Y-124340952D01*
X178866666Y-124483810D01*
X178828571Y-124674286D01*
X178790476Y-124769524D01*
X178714285Y-124864762D01*
X178599999Y-124912381D01*
X178523809Y-124912381D01*
X178409523Y-124864762D01*
X178371428Y-124817143D01*
X178371428Y-124483810D01*
X178523809Y-124483810D01*
X178028571Y-124912381D02*
X178028571Y-123912381D01*
X177571428Y-124912381D01*
X177571428Y-123912381D01*
X177190476Y-124912381D02*
X177190476Y-123912381D01*
X177000000Y-123912381D01*
X176885714Y-123960000D01*
X176809523Y-124055238D01*
X176771428Y-124150476D01*
X176733333Y-124340952D01*
X176733333Y-124483810D01*
X176771428Y-124674286D01*
X176809523Y-124769524D01*
X176885714Y-124864762D01*
X177000000Y-124912381D01*
X177190476Y-124912381D01*
X178790476Y-121372381D02*
X178295238Y-121372381D01*
X178561905Y-121753333D01*
X178447619Y-121753333D01*
X178371429Y-121800952D01*
X178333333Y-121848571D01*
X178295238Y-121943810D01*
X178295238Y-122181905D01*
X178333333Y-122277143D01*
X178371429Y-122324762D01*
X178447619Y-122372381D01*
X178676191Y-122372381D01*
X178752381Y-122324762D01*
X178790476Y-122277143D01*
X178066667Y-121372381D02*
X177800000Y-122372381D01*
X177533333Y-121372381D01*
X177342857Y-121372381D02*
X176847619Y-121372381D01*
X177114286Y-121753333D01*
X177000000Y-121753333D01*
X176923810Y-121800952D01*
X176885714Y-121848571D01*
X176847619Y-121943810D01*
X176847619Y-122181905D01*
X176885714Y-122277143D01*
X176923810Y-122324762D01*
X177000000Y-122372381D01*
X177228572Y-122372381D01*
X177304762Y-122324762D01*
X177342857Y-122277143D01*
X165357143Y-79607143D02*
X165404762Y-79559524D01*
X165452381Y-79416667D01*
X165452381Y-79321429D01*
X165404762Y-79178571D01*
X165309524Y-79083333D01*
X165214286Y-79035714D01*
X165023810Y-78988095D01*
X164880952Y-78988095D01*
X164690476Y-79035714D01*
X164595238Y-79083333D01*
X164500000Y-79178571D01*
X164452381Y-79321429D01*
X164452381Y-79416667D01*
X164500000Y-79559524D01*
X164547619Y-79607143D01*
X165452381Y-80559524D02*
X165452381Y-79988095D01*
X165452381Y-80273809D02*
X164452381Y-80273809D01*
X164595238Y-80178571D01*
X164690476Y-80083333D01*
X164738095Y-79988095D01*
X164452381Y-81178571D02*
X164452381Y-81273810D01*
X164500000Y-81369048D01*
X164547619Y-81416667D01*
X164642857Y-81464286D01*
X164833333Y-81511905D01*
X165071429Y-81511905D01*
X165261905Y-81464286D01*
X165357143Y-81416667D01*
X165404762Y-81369048D01*
X165452381Y-81273810D01*
X165452381Y-81178571D01*
X165404762Y-81083333D01*
X165357143Y-81035714D01*
X165261905Y-80988095D01*
X165071429Y-80940476D01*
X164833333Y-80940476D01*
X164642857Y-80988095D01*
X164547619Y-81035714D01*
X164500000Y-81083333D01*
X164452381Y-81178571D01*
M02*
